<?xml version="1.0" encoding="UTF-8"?>
<svg width="113px" height="92px" viewBox="0 0 113 92" version="1.1" xmlns="http://www.w3.org/2000/svg" xmlns:xlink="http://www.w3.org/1999/xlink">
    <!-- Generator: Sketch 64 (93537) - https://sketch.com -->
    <title>brackets</title>
    <desc>Created with Sketch.</desc>
    <g id="brackets" stroke="none" stroke-width="1" fill="none" fill-rule="evenodd">
        <path d="M21,35 L21,16.1 C21,12.626075 23.826075,9.8 27.3,9.8 L35,9.8 C37.319625,9.8 39.2,7.919625 39.2,5.6 C39.2,3.280375 37.319625,1.4 35,1.4 L27.3,1.4 C19.19435,1.4 12.6,7.994525 12.6,16.1 L12.6,33.260325 L2.630075,43.230075 C0.9898,44.87035 0.9898,47.529475 2.630075,49.16975 L12.6,59.139675 L12.6,76.3 C12.6,84.405475 19.19435,91 27.3,91 L35,91 C37.319625,91 39.2,89.119625 39.2,86.8 C39.2,84.480375 37.319625,82.6 35,82.6 L27.3,82.6 C23.826075,82.6 21,79.773925 21,76.3 L21,57.4 C21,56.286125 20.557425,55.21775 19.769925,54.430075 L11.539675,46.2 L19.76975,37.969925 C20.557425,37.18225 21,36.113875 21,35 Z" id="Path" stroke="#000000" stroke-width="2.8" fill="#665E66" fill-rule="nonzero"></path>
        <path d="M93.2751313,35 L93.2751313,16.1 C93.2751313,12.626075 96.1012063,9.8 99.5751313,9.8 L107.275131,9.8 C109.594756,9.8 111.475131,7.919625 111.475131,5.6 C111.475131,3.280375 109.594756,1.4 107.275131,1.4 L99.5751313,1.4 C91.4694813,1.4 84.8751313,7.994525 84.8751313,16.1 L84.8751313,33.260325 L74.9052063,43.230075 C73.2649313,44.87035 73.2649313,47.529475 74.9052063,49.16975 L84.8751313,59.139675 L84.8751313,76.3 C84.8751313,84.405475 91.4694813,91 99.5751313,91 L107.275131,91 C109.594756,91 111.475131,89.119625 111.475131,86.8 C111.475131,84.480375 109.594756,82.6 107.275131,82.6 L99.5751313,82.6 C96.1012063,82.6 93.2751313,79.773925 93.2751313,76.3 L93.2751313,57.4 C93.2751313,56.286125 92.8325563,55.21775 92.0450563,54.430075 L83.8148063,46.2 L92.0448813,37.969925 C92.8325563,37.18225 93.2751313,36.113875 93.2751313,35 Z" id="Path" stroke="#000000" stroke-width="2.8" fill="#665E66" fill-rule="nonzero" transform="translate(92.575066, 46.200000) scale(-1, 1) translate(-92.575066, -46.200000) "></path>
    </g>
</svg>