<?xml version="1.0" encoding="UTF-8"?>
<svg width="168px" height="130px" viewBox="0 0 168 130" version="1.1" xmlns="http://www.w3.org/2000/svg" xmlns:xlink="http://www.w3.org/1999/xlink">
    <!-- Generator: Sketch 64 (93537) - https://sketch.com -->
    <title>console</title>
    <desc>Created with Sketch.</desc>
    <g id="console" stroke="none" stroke-width="1" fill="none" fill-rule="evenodd">
        <g id="3296094" fill-rule="nonzero">
            <path d="M165,5.00576 C165,2.7936 163.150793,1 160.869312,1 L5.13068813,1 C2.84953722,1 1,2.79328 1,5.00576 L1,17 L165,17 L165,5.00576 Z" id="Path" fill="#5C90B9"></path>
            <path d="M2,18 L2,123.822827 C2,126.129649 3.8604829,128 6.15587525,128 L162.844125,128 C165.139185,128 167,126.129983 167,123.822827 L167,18 L2,18 Z" id="Path" fill="#665E66"></path>
            <path d="M163.6187,2 L154,2 L154,18 L168,18 L168,6.00576 C168,3.7936 166.0386,2 163.6187,2 L163.6187,2 Z" id="Path" fill="#4A80AA"></path>
            <path d="M153.800805,19 L153.800805,81.2964774 C153.800805,102.918822 136.146551,120.447477 114.368539,120.447477 L3,120.447477 L3,122.898776 C3,125.163655 4.84920724,127 7.13068813,127 L162.869312,127 C165.150463,127 167,125.163983 167,122.898776 L167,19 L153.800805,19 Z" id="Path" fill="#544F57"></path>
            <path d="M24.0557476,101 C22.7847709,101 21.533567,100.38477 20.7439472,99.232259 C19.451901,97.3464233 19.8859325,94.7369645 21.7128198,93.4034642 L46.9300875,75.0000894 L21.7128198,56.5967145 C19.8856084,55.2632142 19.451901,52.6537555 20.7439472,50.7679198 C22.0356693,48.882084 24.5643328,48.4341269 26.3915442,49.7679618 L56.2875363,71.585713 C57.3614322,72.3695543 58,73.6425017 58,75.0000894 C58,76.357677 57.3614322,77.6306245 56.2875363,78.4144657 L26.3915442,100.232217 C25.681016,100.750429 24.864492,101 24.0557476,101 L24.0557476,101 Z" id="Path" fill="#F1F1F4"></path>
            <circle id="Oval" fill="#000000" cx="13" cy="12" r="2"></circle>
            <circle id="Oval" fill="#000000" cx="23" cy="12" r="2"></circle>
            <circle id="Oval" fill="#000000" cx="32" cy="12" r="2"></circle>
            <path d="M6.56839342,130 L161.431607,130 C165.053443,130 168,127.041891 168,123.405854 L168,100.88239 C168,99.9727772 167.666667,99.6530756 167,99.9232856 C166.368559,99.6530756 166.052838,99.9727772 166.052838,100.88239 L166.052838,123.405854 C166.052838,127.957792 162.339199,127.957792 161.431278,127.957792 L6.56839342,127.957792 C1.98278879,127.957792 1.98278879,124.317334 1.98278879,123.405854 L2.47125038,19.4060091 L166.052838,18.425699 L166.052838,89.3530118 C166.052838,90.2626249 166.368559,90.6765102 167,90.5946677 C167.666667,90.6765102 168,90.2626249 168,89.3530118 L168,6.59414561 C168,2.95810908 165.053115,0 161.431278,0 L132.187523,0 C131.281462,0 130.937908,0.358172255 131.156859,1.07451677 C130.937908,1.70289161 131.281462,2.01707904 132.187523,2.01707904 L161.431607,2.01707904 C162.339527,2.01707904 165.539067,3 166.052838,6.59414561 L166.052838,16.4705405 L1.98278879,16.4705405 L1.98278879,6.59414561 C1.98278879,5.6826659 3.55851157,2.47058108 6.56839342,2.01707904 L120.703499,2.01707904 C121.609559,2.01707904 122.049249,1.70289161 122.022569,1.07451677 C122.049249,0.358172255 121.609559,0 120.703499,0 L6.56839342,0 C2.94655675,0 0,2.95810908 0,6.59414561 L0,123.405854 C0,127.041891 2.94655675,130 6.56839342,130 Z" id="Path" fill="#000000"></path>
            <path d="M19.222786,100.221987 C20.4682364,101.961408 22.5009527,103 24.6601106,103 C26.0409868,103 27.3682916,102.582723 28.4986136,101.79384 L59.1873383,80.3661798 C60.9485377,79.136363 62,77.1308055 62,75.0007221 C62,72.8706387 60.9485377,70.8650812 59.1873383,69.6352644 L45.5798852,60.1341658 C44.8296646,59.6104341 44.2427091,59.7638106 43.8190186,60.5942955 C43.3189476,61.1990019 43.4440224,61.7633306 44.194243,62.2872814 L57.9048087,71.6533506 C58.1982865,71.8583748 58.8449628,72.9739246 59.8448375,75 C59.1054967,76.685643 58.5890875,77.6310862 58.2956097,77.8363294 L28.4986136,99.1499806 C28.2799278,99.3027878 26.9179462,100.812865 25.2447945,101 C24.1837752,101.11867 19.9402862,100.053105 20,97.1743348 C20.0597138,94.2955649 20.9664355,93.8253542 21.492808,93.4577549 L45.0012146,76.7309452 C45.4422077,76.4229708 45.6350979,76.0056907 45.5798852,75.4791049 C46.0208783,74.8010094 46.0208783,74.3079744 45.5798852,74 L22.0267084,57.5375149 C19.7480271,56.3563465 18.3258382,52.461857 21.492808,49.7791282 C24.6597779,47.0963993 26.2745626,49.2540822 27.0272233,49.7791282 L34.8761018,54.9142622 C35.6263224,55.438432 36.1418288,55.438432 36.4226208,54.9142622 C36.9289814,54.485376 36.8070515,54.0089576 36.0568309,53.4850068 L28.4989463,48.2076043 C27.047529,47.193983 25.2833349,46.799377 23.5311196,47.0963993 C21.7792369,47.393093 20.2492927,48.34593 19.2231187,49.7791282 C17.1045552,52.7375226 17.8182852,56.8462212 20.8146201,58.9381912 L43.8190186,75.0007221 L20.8146201,91.063253 C19.36287,92.0762173 18.3982532,93.5869567 18.0974551,95.3171771 C17.7969897,97.047069 18.196612,98.7891178 19.222786,100.221987 Z" id="Path" fill="#000000"></path>
        </g>
    </g>
</svg>