<?xml version="1.0" encoding="UTF-8"?>
<svg width="123px" height="105px" viewBox="0 0 123 105" version="1.1" xmlns="http://www.w3.org/2000/svg" xmlns:xlink="http://www.w3.org/1999/xlink">
    <!-- Generator: Sketch 64 (93537) - https://sketch.com -->
    <title>keycap-n-for-noel</title>
    <desc>Created with Sketch.</desc>
    <g id="keycap-n-for-noel" stroke="none" stroke-width="1" fill="none" fill-rule="evenodd">
        <g id="keycap" transform="translate(0.850000, 0.850000)">
            <path d="M15.2135075,35.3434946 C5.50666682,58.9538839 0.523929767,71.1704458 0.265296372,71.9931803 C-0.12265372,73.2272821 -0.0524743391,77.8229536 0.265296372,78.5810492 C0.477143513,79.0864462 22.970409,87.458172 67.7450929,103.696226 C69.7301969,103.887076 71.19575,103.887076 72.1417521,103.696226 C73.0877543,103.505377 74.0268615,103.020253 74.959074,102.240856 C105.614503,73.7678002 121.096414,59.2881832 121.404808,58.8020045 C121.713202,58.3158258 121.568175,56.7448884 120.969728,54.0891923 L108.425561,19.5166604" id="Path-3" stroke="#979797" stroke-width="0.51" fill="#D8D8D8"></path>
            <path d="M68.0263644,53.0519114 L65.0950533,54.5010397 L61.1317743,54.9703145 C51.1288428,53.032498 43.0678962,50.9528624 36.9489344,48.7314076 C30.8299727,46.5099528 24.2579016,43.2771534 17.2327214,39.0330093 C16.3475671,38.0778411 15.7513272,37.3536922 15.4440017,36.8605627 C15.1366761,36.3674331 15.1366761,35.5579557 15.4440017,34.4321304 L54.6829235,0.489996366 C55.1888561,0.163332122 55.8358313,2.53663757e-14 56.623849,2.53663757e-14 C57.4118667,2.53663757e-14 58.203267,0.163332122 58.99805,0.489996366 C68.325331,5.73195136 75.9887962,9.47413329 81.9884458,11.7165422 C87.9880954,13.958951 96.6284017,16.310412 107.909365,18.7709251 C108.158361,18.9794805 108.304773,19.2091574 108.348601,19.4599557 C108.395877,19.730494 108.583654,20.4656395 108.114043,20.9443445 C101.765072,27.4162657 100.750019,27.5156973 92.5483524,34.0564387 C87.0805746,38.4169329 78.9065786,44.7487572 68.0263644,53.0519114 Z" id="Path-2" stroke="#979797" stroke-width="0.51" fill-opacity="0.564885066" fill="#C5C3C4"></path>
            <path d="M67.5163644,51.5219114 L64.5850533,52.9710397 L60.6217743,53.4403145 C50.6188428,51.502498 42.5578962,49.4228624 36.4389344,47.2014076 C30.3199727,44.9799528 24.1551845,41.6981557 17.94457,37.3560161 C17.4373298,37.1406404 17.0300469,36.7863879 16.7227214,36.2932583 C16.4153958,35.8001288 16.4153958,35.1143255 16.7227214,34.2358485 L55.2356122,0.901049141 C55.8258475,0.699206367 56.514974,0.598284979 57.3029917,0.598284979 C58.0910094,0.598284979 58.9107972,0.91017893 59.7623551,1.53396683 C67.5132357,5.87987374 74.3885009,9.17403163 80.3881504,11.4164405 C86.3878,13.6588494 94.951244,16.0926501 106.078482,18.7178428 C106.528964,18.9087941 106.690473,19.254137 106.563009,19.7538717 C106.371813,20.5034738 105.910024,20.7407464 105.440413,21.2194513 C99.0914415,27.6913725 100.240019,25.9856973 92.0383524,32.5264387 C86.5705746,36.8869329 78.3965786,43.2187572 67.5163644,51.5219114 Z" id="Path-1" fill="#EBE9EA"></path>
            <path d="M74.6078775,97.6107804 L67.6620412,53.4403145 C79.8095552,44.137856 88.9615295,37.026725 95.1179643,32.1069217 C101.274399,27.1871184 105.292201,23.7738615 107.171369,21.867151 C115.411644,42.9159267 119.531781,53.9503145 119.531781,54.9703145 C119.531781,55.9903145 104.557147,70.2038031 74.6078775,97.6107804 C73.5050034,98.1923652 72.5362107,98.5476107 71.7014994,98.6765167 C70.8667881,98.8054227 69.5352435,98.8054227 67.7068657,98.6765167 C25.7550333,83.4325246 4.12732151,75.5609599 2.82373026,75.0618226 C1.52013902,74.5626853 0.578895595,73.7927323 -4.34852154e-14,72.7519636" id="Path-4" stroke="#979797" stroke-width="0.51" fill="#E6E6E6"></path>
            <path d="M2.54944155,74.9618936 L67.6620412,98.7731962 L60.945,54.9703145 C51.0811584,52.9773442 43.8723118,51.1725041 39.3184603,49.5557943 C27.6899942,45.4274526 16.9908646,39.3742436 17.0088331,38.8951251 C17.0373566,38.1345634 12.2175595,50.1161573 2.54944155,74.839907 L2.37258687,79.5556235" id="Path-5" stroke="#979797" stroke-width="0.51" fill="#DDDDDD"></path>
            <polyline id="Path-6" stroke="#979797" stroke-width="0.51" fill="#D8D8D8" points="61.1317743 54.9703145 67.6620412 98.7731962 67.6620412 103.839363"></polyline>
            <polyline id="Path-7" stroke="#979797" stroke-width="0.51" points="67.6620412 53.4403145 74.6078775 97.6107804 74.6078775 102.417117"></polyline>
            <line x1="119.531781" y1="54.9703145" x2="120.394446" y2="59.7321859" id="Path-9" stroke="#979797" stroke-width="0.51"></line>
        </g>
        <g id="letter" transform="translate(41.650000, 8.500000)" stroke="#979797" stroke-width="1.53">
            <polyline id="Path-8" points="-7.2475359e-15 13.600462 14.7647879 2.19643775e-13 13.9410206 18.8592997 26.8620412 5.67155963"></polyline>
        </g>
    </g>
</svg>