<?xml version="1.0" encoding="UTF-8"?>
<svg width="101px" height="51px" viewBox="0 0 101 51" version="1.1" xmlns="http://www.w3.org/2000/svg" xmlns:xlink="http://www.w3.org/1999/xlink">
    <!-- Generator: Sketch 64 (93537) - https://sketch.com -->
    <title>491849</title>
    <desc>Created with Sketch.</desc>
    <g id="Page-1" stroke="none" stroke-width="1" fill="none" fill-rule="evenodd">
        <g id="491849" fill-rule="nonzero">
            <path d="M0,38.9874371 C0,33.2922379 1.35074379,28.7935091 4.05223137,25.4928461 C6.75054446,22.1889925 10.6900816,20.025774 15.8644937,19 L15.8644937,24.9217309 C12.012255,26.1373448 9.42346167,28.2255845 8.10128825,31.1848547 C7.42194825,32.7434568 7.13783175,34.3547036 7.25211325,36.0249763 L16.147023,36.0249763 L16.147023,51 L0,51 L0,38.9874371 Z M26.8545642,38.9874371 C26.8545642,33.2172591 28.2418146,28.7009821 31.0179026,25.4354155 C33.7939906,22.1698489 37.6938467,20.025774 42.7174707,19 L42.7174707,24.9217309 C38.9033258,26.0990578 36.3351667,28.2255845 35.0129932,31.2981205 C34.2574656,32.9301062 33.9543022,34.5062565 34.1066775,36.0249763 L43,36.0249763 L43,51 L26.8545642,51 L26.8545642,38.9874371 Z" id="Shape" fill="#000000"></path>
            <path d="M58.2832717,26.0214346 C62.1074389,24.807537 64.6823464,22.7179104 66.0079941,19.7573401 C66.7273131,18.2004885 67.0296817,16.6085439 66.9166913,14.9751259 L58,14.9751259 L58,0 L74.1894523,0 L74.1894523,12.0145556 C74.1894523,17.5943373 72.8351591,22.0734759 70.1281643,25.4519715 C67.4195781,28.8304671 63.4728719,31.0126115 58.2848631,32 L58.2848631,26.0214346 L58.2832717,26.0214346 Z M85.0938194,26.0214346 C89.0198372,24.8442251 91.6313472,22.6812223 92.9283494,19.5292358 C93.461473,18.277055 93.7288305,16.7600818 93.7288305,14.9751259 L84.8105477,14.9751259 L84.8105477,0 L101,0 L101,12.0145556 C101,17.4427995 99.6791266,21.874084 97.0373797,25.3100045 C94.3972243,28.7459249 90.415507,30.9743283 85.0938194,31.9984049 L85.0938194,26.0214346 L85.0938194,26.0214346 Z" id="Shape" fill="#FFFFFF"></path>
        </g>
    </g>
</svg>
