<?xml version="1.0" encoding="UTF-8"?>
<svg width="186px" height="221px" viewBox="0 0 186 221" version="1.1" xmlns="http://www.w3.org/2000/svg" xmlns:xlink="http://www.w3.org/1999/xlink">
    <!-- Generator: Sketch 64 (93537) - https://sketch.com -->
    <title>secured-datacenter</title>
    <desc>Created with Sketch.</desc>
    <g id="secured-datacenter" stroke="none" stroke-width="1" fill="none" fill-rule="evenodd">
        <g id="4542118" transform="translate(93.000000, 110.500000) scale(-1, 1) translate(-93.000000, -110.500000) " fill-rule="nonzero">
            <path d="M143.547054,218 L6.45294572,218 C4.54618555,218 3,216.471433 3,214.585444 L3,181.414556 C3,179.528995 4.54575269,178 6.45294572,178 L143.547054,178 C145.453814,178 147,179.528567 147,181.414556 L147,214.585444 C147,216.471005 145.453814,218 143.547054,218 Z" id="Path" fill="#738B95"></path>
            <path d="M143.31345,178 L131,178 C133.036115,178 134.68655,179.509749 134.68655,181.371787 L134.68655,214.627785 C134.68655,216.490251 133.036115,218 131,218 L143.31345,218 C145.349565,218 147,216.490251 147,214.627785 L147,181.371787 C147.000456,179.509749 145.349565,178 143.31345,178 L143.31345,178 Z" id="Path" fill="#617881"></path>
            <path d="M143.547054,43 L6.45294572,43 C4.54618555,43 3,41.471433 3,39.5854442 L3,6.41455584 C3,4.52899505 4.54575269,3 6.45294572,3 L143.547054,3 C145.453814,3 147,4.528567 147,6.41455584 L147,39.5854442 C147,41.471433 145.453814,43 143.547054,43 Z" id="Path" fill="#738B95"></path>
            <path d="M143.31345,3 L131,3 C133.036115,3 134.68655,4.50974895 134.68655,6.37178691 L134.68655,39.627785 C134.68655,41.4902511 133.036115,43 131,43 L143.31345,43 C145.349565,43 147,41.4902511 147,39.627785 L147,6.37178691 C147.000456,4.50974895 145.349565,3 143.31345,3 Z" id="Path" fill="#617881"></path>
            <polygon id="Path" fill="#B4D0D5" points="13 43 137 43 137 61 13 61"></polygon>
            <polygon id="Path" fill="#9BB9C1" points="127 43 137 43 137 61 127 61"></polygon>
            <path d="M143.547054,101 L6.45294572,101 C4.54618555,101 3,99.471433 3,97.5854442 L3,64.4145558 C3,62.528995 4.54575269,61 6.45294572,61 L143.547054,61 C145.453814,61 147,62.528567 147,64.4145558 L147,97.5854442 C147,99.471433 145.453814,101 143.547054,101 Z" id="Path" fill="#738B95"></path>
            <path d="M143.31345,61 L131,61 C133.036115,61 134.68655,62.5097489 134.68655,64.3717869 L134.68655,97.627785 C134.68655,99.4902511 133.036115,101 131,101 L143.31345,101 C145.349565,101 147,99.4902511 147,97.627785 L147,64.3717869 C147.000456,62.5093209 145.349565,61 143.31345,61 Z" id="Path" fill="#617881"></path>
            <polygon id="Path" fill="#B4D0D5" points="13 102 137 102 137 120 13 120"></polygon>
            <polygon id="Path" fill="#9BB9C1" points="127 102 137 102 137 120 127 120"></polygon>
            <path d="M143.547054,160 L6.45294572,160 C4.54618555,160 3,158.471433 3,156.585444 L3,123.414556 C3,121.528995 4.54575269,120 6.45294572,120 L143.547054,120 C145.453814,120 147,121.528567 147,123.414556 L147,156.585444 C147,158.471005 145.453814,160 143.547054,160 Z" id="Path" fill="#738B95"></path>
            <path d="M143.31345,120 L131,120 C133.036115,120 134.68655,121.509749 134.68655,123.371787 L134.68655,156.627785 C134.68655,158.490251 133.036115,160 131,160 L143.31345,160 C145.349565,160 147,158.490251 147,156.627785 L147,123.371787 C147.000456,121.509321 145.349565,120 143.31345,120 Z" id="Path" fill="#617881"></path>
            <polygon id="Path" fill="#B4D0D5" points="13 160 137 160 137 178 13 178"></polygon>
            <polygon id="Path" fill="#9BB9C1" points="127 160 137 160 137 178 127 178"></polygon>
            <g id="Group" transform="translate(116.000000, 112.000000)">
                <path d="M35.3264359,71.8681411 L66.7454872,49.1863196 C67.3740513,48.7324147 67.7458718,48.0073794 67.7458718,47.2351346 L67.7458718,2.67881888 C67.7458718,1.34698896 66.6591795,0.267232214 65.3187949,0.267232214 L2.48025641,0.267232214 C1.13987179,0.267232214 0.0531794872,1.34698896 0.0531794872,2.67881888 L0.0531794872,47.2355678 C0.0531794872,48.0073794 0.425,48.7328478 1.0535641,49.1867527 L32.4726154,71.8685742 C33.3239231,72.4822987 34.4755641,72.4822987 35.3264359,71.8681411 L35.3264359,71.8681411 Z" id="Path" fill="#70B9C6"></path>
                <path d="M65.3187949,0.267232214 L54.7164615,0.267232214 L54.7164615,42.2049322 C54.7164615,42.9767438 54.344641,43.7022122 53.7160769,44.1561171 L23.9006923,65.6802211 L32.4730513,71.8690073 C33.3239231,72.483165 34.4755641,72.483165 35.3264359,71.8690073 L66.7454872,49.1871858 C67.3740513,48.7332809 67.7458718,48.0082457 67.7458718,47.2360009 L67.7458718,2.67881888 C67.7458718,1.34698896 66.6596154,0.267232214 65.3187949,0.267232214 L65.3187949,0.267232214 Z" id="Path" fill="#61AAB7"></path>
                <g transform="translate(19.615385, 27.719387)" id="Path">
                    <path d="M26.3901026,21.9771427 L2.17905128,21.9771427 C1.18738462,21.9771427 0.383153846,21.1784778 0.383153846,20.1927071 L0.383153846,1.82038411 C0.383153846,0.835046531 1.18694872,0.0359485799 2.17905128,0.0359485799 L26.3901026,0.0359485799 C27.3817692,0.0359485799 28.186,0.834613415 28.186,1.82038411 L28.186,20.1927071 C28.1855641,21.1780447 27.3817692,21.9771427 26.3901026,21.9771427 Z" fill="#F6E781"></path>
                    <path d="M26.3901026,0.0359485799 L17.6743333,0.0359485799 C18.666,0.0359485799 19.4702308,0.834613415 19.4702308,1.82038411 L19.4702308,20.1927071 C19.4702308,21.1780447 18.6664359,21.9771427 17.6743333,21.9771427 L26.3901026,21.9771427 C27.3817692,21.9771427 28.186,21.1784778 28.186,20.1927071 L28.186,1.82038411 C28.1855641,0.835046531 27.3817692,0.0359485799 26.3901026,0.0359485799 Z" fill="#F6E266"></path>
                </g>
            </g>
            <g id="Group" fill="#000000">
                <path d="M18.7003535,202.266365 L18.7003535,192.923504 C18.7003535,191.135217 17.2482558,189.686199 15.4561674,189.686199 C13.6640791,189.686199 12.2119814,191.135217 12.2119814,192.923504 L12.2119814,202.266365 C12.2119814,204.054652 13.6640791,205.50367 15.4561674,205.50367 C17.2482558,205.50367 18.7003535,204.054221 18.7003535,202.266365 Z" id="Path"></path>
                <path d="M43.4037488,200.832023 C45.1958372,200.832023 46.6479349,199.383006 46.6479349,197.594719 C46.6479349,195.806432 45.1958372,194.357414 43.4037488,194.357414 L28.3221767,194.357414 C26.5300884,194.357414 25.0779907,195.806432 25.0779907,197.594719 C25.0779907,199.383006 26.5300884,200.832023 28.3221767,200.832023 L43.4037488,200.832023 Z" id="Path"></path>
                <path d="M73.9367302,200.832023 C75.7288186,200.832023 77.1809163,199.383006 77.1809163,197.594719 C77.1809163,195.806432 75.7288186,194.357414 73.9367302,194.357414 L58.8551581,194.357414 C57.0630698,194.357414 55.6109721,195.806432 55.6109721,197.594719 C55.6109721,199.383006 57.0630698,200.832023 58.8551581,200.832023 L73.9367302,200.832023 Z" id="Path"></path>
                <path d="M104.469712,200.832023 C106.2618,200.832023 107.713898,199.383006 107.713898,197.594719 C107.713898,195.806432 106.2618,194.357414 104.469712,194.357414 L89.3881395,194.357414 C87.5960512,194.357414 86.1439535,195.806432 86.1439535,197.594719 C86.1439535,199.383006 87.5960512,200.832023 89.3881395,200.832023 L104.469712,200.832023 Z" id="Path"></path>
                <path d="M135.002693,200.832023 C136.794781,200.832023 138.246879,199.383006 138.246879,197.594719 C138.246879,195.806432 136.794781,194.357414 135.002693,194.357414 L119.920688,194.357414 C118.1286,194.357414 116.676502,195.806432 116.676502,197.594719 C116.676502,199.383006 118.1286,200.832023 119.920688,200.832023 L135.002693,200.832023 Z" id="Path"></path>
                <path d="M12.2119814,18.7332031 L12.2119814,28.0760645 C12.2119814,29.8643516 13.6640791,31.3133691 15.4561674,31.3133691 C17.2482558,31.3133691 18.7003535,29.8643516 18.7003535,28.0760645 L18.7003535,18.7332031 C18.7003535,16.944916 17.2482558,15.4958984 15.4561674,15.4958984 C13.6640791,15.4958984 12.2119814,16.9453477 12.2119814,18.7332031 Z" id="Path"></path>
                <path d="M28.3221767,20.1675449 C26.5300884,20.1675449 25.0779907,21.6165625 25.0779907,23.4048496 C25.0779907,25.1931367 26.5300884,26.6421543 28.3221767,26.6421543 L43.4037488,26.6421543 C45.1958372,26.6421543 46.6479349,25.1931367 46.6479349,23.4048496 C46.6479349,21.6165625 45.1958372,20.1675449 43.4037488,20.1675449 L28.3221767,20.1675449 Z" id="Path"></path>
                <path d="M58.8547256,20.1675449 C57.0626372,20.1675449 55.6105395,21.6165625 55.6105395,23.4048496 C55.6105395,25.1931367 57.0626372,26.6421543 58.8547256,26.6421543 L73.9362977,26.6421543 C75.728386,26.6421543 77.1804837,25.1931367 77.1804837,23.4048496 C77.1804837,21.6165625 75.728386,20.1675449 73.9362977,20.1675449 L58.8547256,20.1675449 Z" id="Path"></path>
                <path d="M89.387707,20.1675449 C87.5956186,20.1675449 86.1435209,21.6165625 86.1435209,23.4048496 C86.1435209,25.1931367 87.5956186,26.6421543 89.387707,26.6421543 L104.469279,26.6421543 C106.261367,26.6421543 107.713465,25.1931367 107.713465,23.4048496 C107.713465,21.6165625 106.261367,20.1675449 104.469279,20.1675449 L89.387707,20.1675449 Z" id="Path"></path>
                <path d="M119.920256,26.6421543 L135.00226,26.6421543 C136.794349,26.6421543 138.246447,25.1931367 138.246447,23.4048496 C138.246447,21.6165625 136.794349,20.1675449 135.00226,20.1675449 L119.920256,20.1675449 C118.128167,20.1675449 116.67607,21.6165625 116.67607,23.4048496 C116.67607,25.1931367 118.1286,26.6421543 119.920256,26.6421543 Z" id="Path"></path>
                <path d="M18.7003535,86.139498 L18.7003535,76.7962051 C18.7003535,75.007918 17.2482558,73.5589004 15.4561674,73.5589004 C13.6640791,73.5589004 12.2119814,75.007918 12.2119814,76.7962051 L12.2119814,86.139498 C12.2119814,87.9277852 13.6640791,89.3768027 15.4561674,89.3768027 C17.2482558,89.3768027 18.7003535,87.9277852 18.7003535,86.139498 Z" id="Path"></path>
                <path d="M28.3221767,84.7055879 L43.4037488,84.7055879 C45.1958372,84.7055879 46.6479349,83.2565703 46.6479349,81.4682832 C46.6479349,79.6799961 45.1958372,78.2309785 43.4037488,78.2309785 L28.3221767,78.2309785 C26.5300884,78.2309785 25.0779907,79.6799961 25.0779907,81.4682832 C25.0779907,83.2565703 26.5300884,84.7055879 28.3221767,84.7055879 L28.3221767,84.7055879 Z" id="Path"></path>
                <path d="M58.8547256,84.7055879 L73.9362977,84.7055879 C75.728386,84.7055879 77.1804837,83.2565703 77.1804837,81.4682832 C77.1804837,79.6799961 75.728386,78.2309785 73.9362977,78.2309785 L58.8547256,78.2309785 C57.0626372,78.2309785 55.6105395,79.6799961 55.6105395,81.4682832 C55.6105395,83.2565703 57.0630698,84.7055879 58.8547256,84.7055879 Z" id="Path"></path>
                <path d="M89.387707,84.7055879 L104.469279,84.7055879 C106.261367,84.7055879 107.713465,83.2565703 107.713465,81.4682832 C107.713465,79.6799961 106.261367,78.2309785 104.469279,78.2309785 L89.387707,78.2309785 C87.5956186,78.2309785 86.1435209,79.6799961 86.1435209,81.4682832 C86.1435209,83.2565703 87.5960512,84.7055879 89.387707,84.7055879 Z" id="Path"></path>
                <path d="M119.920256,84.7055879 L135.00226,84.7055879 C136.794349,84.7055879 138.246447,83.2565703 138.246447,81.4682832 C138.246447,79.6799961 136.794349,78.2309785 135.00226,78.2309785 L119.920256,78.2309785 C118.128167,78.2309785 116.67607,79.6799961 116.67607,81.4682832 C116.67607,83.2565703 118.1286,84.7055879 119.920256,84.7055879 Z" id="Path"></path>
                <path d="M18.7003535,144.202932 L18.7003535,134.86007 C18.7003535,133.071783 17.2482558,131.622766 15.4561674,131.622766 C13.6640791,131.622766 12.2119814,133.071783 12.2119814,134.86007 L12.2119814,144.202932 C12.2119814,145.991219 13.6640791,147.440236 15.4561674,147.440236 C17.2482558,147.440236 18.7003535,145.991219 18.7003535,144.202932 Z" id="Path"></path>
                <path d="M28.3221767,142.769021 L43.4037488,142.769021 C45.1958372,142.769021 46.6479349,141.320004 46.6479349,139.531717 C46.6479349,137.74343 45.1958372,136.294412 43.4037488,136.294412 L28.3221767,136.294412 C26.5300884,136.294412 25.0779907,137.74343 25.0779907,139.531717 C25.0779907,141.320004 26.5300884,142.769021 28.3221767,142.769021 L28.3221767,142.769021 Z" id="Path"></path>
                <path d="M58.8547256,142.769021 L73.9362977,142.769021 C75.728386,142.769021 77.1804837,141.320004 77.1804837,139.531717 C77.1804837,137.74343 75.728386,136.294412 73.9362977,136.294412 L58.8547256,136.294412 C57.0626372,136.294412 55.6105395,137.74343 55.6105395,139.531717 C55.6105395,141.320004 57.0630698,142.769021 58.8547256,142.769021 Z" id="Path"></path>
                <path d="M89.387707,142.769021 L104.469279,142.769021 C106.261367,142.769021 107.713465,141.320004 107.713465,139.531717 C107.713465,137.74343 106.261367,136.294412 104.469279,136.294412 L89.387707,136.294412 C87.5956186,136.294412 86.1435209,137.74343 86.1435209,139.531717 C86.1435209,141.320004 87.5960512,142.769021 89.387707,142.769021 Z" id="Path"></path>
                <path d="M149.13307,121.155912 C143.376153,121.155912 138.692414,125.829717 138.692414,131.574422 L138.692414,137.513797 L137.120065,137.513797 C134.348665,137.513797 132.094172,139.763939 132.094172,142.529461 L132.094172,160.839225 C132.094172,163.604746 134.348665,165.854889 137.120065,165.854889 L161.146074,165.854889 C163.917474,165.854889 166.171967,163.604746 166.171967,160.839225 L166.171967,142.529461 C166.171967,139.763939 163.917474,137.513797 161.146074,137.513797 L159.573293,137.513797 L159.573293,131.574422 C159.573293,125.829717 154.889553,121.155912 149.13307,121.155912 Z M145.180786,131.57399 C145.180786,129.399385 146.953842,127.63009 149.13307,127.63009 C151.312298,127.63009 153.085353,129.399385 153.085353,131.57399 L153.085353,137.513365 L145.181219,137.513365 L145.181219,131.57399 L145.180786,131.57399 Z M159.683595,159.379848 L138.582544,159.379848 L138.582544,143.987975 L159.683595,143.987975 L159.683595,159.379848 Z" id="Shape"></path>
                <path d="M182.719912,137.516387 C184.512,137.516387 185.96453,136.067369 185.96453,134.279082 L185.96453,115.759541 C185.96453,112.64957 183.428442,110.119293 180.31186,110.119293 L140.338298,110.119293 L140.338298,104.873564 L143.728256,104.873564 C147.419707,104.873564 150.423391,101.877115 150.423391,98.1930625 L150.423391,64.7439355 C150.423391,61.0603145 147.42014,58.0634336 143.728256,58.0634336 L140.338298,58.0634336 L140.338298,46.8101309 L143.728688,46.8101309 C147.42014,46.8101309 150.423391,43.8136816 150.423391,40.1296289 L150.423391,6.68050195 C150.422958,2.99644922 147.42014,-2.30024333e-14 143.728256,-2.30024333e-14 L126.406033,-2.30024333e-14 C124.613944,-2.30024333e-14 123.161847,1.44901758 123.161847,3.23730469 C123.161847,5.0255918 124.613944,6.47460937 126.406033,6.47460937 L143.728256,6.47460937 C143.842019,6.47460937 143.934586,6.56698047 143.934586,6.68050195 L143.934586,40.1296289 C143.934586,40.2431504 143.842019,40.3355215 143.728256,40.3355215 L6.73060465,40.3355215 C6.61684186,40.3355215 6.52427442,40.2431504 6.52427442,40.1296289 L6.52427442,6.68050195 C6.52427442,6.56698047 6.61684186,6.47460937 6.73060465,6.47460937 L113.435344,6.47460937 C115.227433,6.47460937 116.67953,5.0255918 116.67953,3.23730469 C116.67953,1.44901758 115.227433,-2.30024333e-14 113.435344,-2.30024333e-14 L6.73060465,-2.30024333e-14 C3.03915349,-2.30024333e-14 0.0359023256,2.99644922 0.0359023256,6.68050195 L0.0359023256,40.1296289 C0.0359023256,43.81325 3.03872093,46.8101309 6.73060465,46.8101309 L10.1209953,46.8101309 L10.1209953,58.0634336 L6.73060465,58.0634336 C3.03915349,58.0634336 0.0359023256,61.0598828 0.0359023256,64.7439355 L0.0359023256,98.1930625 C0.0359023256,101.876684 3.03872093,104.873564 6.73060465,104.873564 L10.1209953,104.873564 L10.1209953,116.126867 L6.73060465,116.126867 C3.03915349,116.126867 0.0359023256,119.123748 0.0359023256,122.807801 L0.0359023256,156.256496 C0.0359023256,159.940117 3.03872093,162.936998 6.73060465,162.936998 L10.1209953,162.936998 L10.1209953,174.190732 L6.73060465,174.190732 C3.03915349,174.190732 0.0359023256,177.187182 0.0359023256,180.871234 L0.0359023256,191.123994 C0.0359023256,192.912281 1.488,194.361299 3.28008837,194.361299 C5.07217674,194.361299 6.52427442,192.912281 6.52427442,191.123994 L6.52427442,180.870371 C6.52427442,180.75685 6.61684186,180.664479 6.73060465,180.664479 L136.613972,180.664479 L143.935019,185.972363 L143.935019,214.319066 C143.935019,214.43302 143.842451,214.525391 143.728688,214.525391 L6.73060465,214.525391 C6.61684186,214.525391 6.52427442,214.43302 6.52427442,214.319066 L6.52427442,204.066738 C6.52427442,202.278451 5.07217674,200.829434 3.28008837,200.829434 C1.488,200.829434 0.0359023256,202.278451 0.0359023256,204.066738 L0.0359023256,214.319066 C0.0359023256,218.002687 3.03872093,221 6.73060465,221 L143.728688,221 C147.42014,221 150.423391,218.003119 150.423391,214.319066 L150.423391,188.26308 C151.14014,188.09474 151.8318,187.784822 152.455981,187.332031 L183.63434,164.727443 C185.093358,163.669924 185.96453,161.96408 185.96453,160.164139 L185.96453,147.222689 C185.96453,145.434402 184.512433,143.985385 182.720344,143.985385 C180.928256,143.985385 179.476158,145.434402 179.476158,147.222689 L179.476158,159.739404 L149.133935,181.7384 L118.790847,159.739404 L118.790847,116.593471 L179.476591,116.593471 L179.476591,134.279082 C179.475726,136.066937 180.927823,137.516387 182.719912,137.516387 Z M16.6089349,46.8096992 L133.849493,46.8096992 L133.849493,58.063002 L16.6089349,58.063002 L16.6089349,46.8096992 Z M6.52427442,98.1926309 L6.52427442,64.7435039 C6.52427442,64.6299824 6.61684186,64.5376113 6.73060465,64.5376113 L143.728256,64.5376113 C143.842451,64.5376113 143.935019,64.6299824 143.935019,64.7435039 L143.935019,98.1926309 C143.935019,98.3061523 143.842451,98.3985234 143.728256,98.3985234 L6.73060465,98.3985234 C6.61684186,98.3985234 6.52427442,98.3061523 6.52427442,98.1926309 Z M6.52427442,156.256064 L6.52427442,122.807369 C6.52427442,122.693416 6.61684186,122.601045 6.73060465,122.601045 L112.301609,122.601045 L112.301609,156.461525 L6.73060465,156.461525 C6.61684186,156.461525 6.52427442,156.369586 6.52427442,156.256064 Z M127.683377,174.190301 L16.6089349,174.190301 L16.6089349,162.936566 L113.043879,162.936566 C113.437507,163.631076 113.970419,164.248322 114.632233,164.727875 L127.683377,174.190301 Z M117.954279,110.118861 C114.837265,110.118861 112.301609,112.649139 112.301609,115.759109 L112.301609,116.126436 L16.6089349,116.126436 L16.6089349,104.873133 L133.849493,104.873133 L133.849493,110.118861 L117.954279,110.118861 Z" id="Shape"></path>
            </g>
        </g>
    </g>
</svg>