<?xml version="1.0" encoding="UTF-8"?>
<svg width="135px" height="146px" viewBox="0 0 135 146" version="1.1" xmlns="http://www.w3.org/2000/svg" xmlns:xlink="http://www.w3.org/1999/xlink">
    <!-- Generator: Sketch 64 (93537) - https://sketch.com -->
    <title>security-checks-shield</title>
    <desc>Created with Sketch.</desc>
    <g id="Page-1" stroke="none" stroke-width="1" fill="none" fill-rule="evenodd">
        <g id="3076430" fill-rule="nonzero">
            <g id="Group" transform="translate(2.000000, 2.000000)">
                <path d="M4.09552774,18.5139521 C3.03141469,19.0446456 2.00724539,19.57987 1.03566391,20.1196255 C0.450301149,20.4447248 0.13965945,21.1665698 0.13965945,21.8988928 C0.13965945,31.1953735 4.39668639,85.4682665 16.5852781,106.075824 C23.8415348,118.344358 47.7523247,131.411198 59.2475044,134.73497 C59.5334326,134.817661 59.8311429,134.817661 60.1170712,134.73497 C61.6679808,134.286401 63.4467709,133.659141 65.3784393,132.881791 L4.09552774,18.5139521 Z" id="Path" fill="#FFD064"></path>
                <path d="M118.329199,20.1196255 C100.024041,9.95007757 63.9910404,1.24489245 60.0969557,0.196532156 C59.8230967,0.122903394 59.5414789,0.122903394 59.2676199,0.196532156 C55.580438,1.18938769 23.0780057,9.04784205 4.09552774,18.5139521 C5.14124943,42.7964345 9.78104671,86.4857593 20.0184292,103.794465 C26.5350081,114.81216 47.366106,126.959773 65.3787266,132.882074 C72.9326936,129.842339 82.8505261,124.486696 90.8625532,118.362765 L117.952176,40.5329165 C118.834962,31.6532878 119.225203,24.7140602 119.225203,21.8988928 C119.225203,21.1665698 118.914562,20.445008 118.329199,20.1196255 Z" id="Path" fill="#FFF0AF"></path>
                <path d="M102.780447,106.075824 C111.278408,91.708304 115.920505,60.9773581 117.953038,40.5329165 C117.563371,40.4179423 117.151577,40.3539419 116.725127,40.3539419 L95.1727426,40.3539419 C92.8019804,40.3539419 90.8622658,42.2654579 90.8622658,44.6017551 L90.8622658,118.362199 C95.9859859,114.445715 100.332096,110.215743 102.780447,106.075824 L102.780447,106.075824 Z" id="Path" fill="#FFD064"></path>
                <path d="M59.6831499,8.87283215 L15.2970203,22.8019779 C12.7934953,23.8339133 10.6695797,24.7882554 8.86923717,25.6599066 C8.98504532,28.088523 9.19395976,31.1639397 9.49885416,34.690191 C9.49885416,34.690191 11.4578222,53.715863 13.2659236,64.4248832 C13.2659236,64.4248832 22.1843002,90.980512 26.9074333,98.9661176 C32.0659247,107.688011 59.6820004,125.945395 59.6820004,125.945395 L59.6828625,125.945395 L59.6837246,125.945395 C71.0375206,121.999743 90.1737389,110.519886 95.3319429,101.797993 C100.055076,93.8123875 103.611794,79.1608303 106.099801,64.4248832 C107.907903,53.715863 109.866871,34.690191 109.866871,34.690191 C110.171765,31.1639397 110.38068,28.0888062 110.496488,25.6599066 C102.216637,21.6502542 87.0908859,15.8958833 59.6831499,8.87283215 Z" id="Path" fill="#81A9C8"></path>
                <path d="M100.919758,64.4248832 L110.496488,40.3539419 L95.1724553,40.3539419 C92.801693,40.3539419 90.8619784,42.2654579 90.8619784,44.6017551 L90.8619784,64.4248832 L100.919758,64.4248832 Z" id="Path" fill="#4980AC"></path>
                <path d="M59.6828625,118.533244 C48.5787868,113.382346 34.6418656,104.230857 30.3558148,96.9835216 C26.1482147,89.8695673 22.8656429,77.4656697 20.4402812,64.4246 L13.2659236,64.4246 C15.7539308,79.1605471 19.3106489,93.8121043 24.0337821,101.79771 C29.1922734,110.519603 48.3282044,121.99946 59.6820004,125.945112 L59.6828625,118.533244 Z" id="Path" fill="#4980AC"></path>
                <path d="M59.6822878,64.4248832 L59.6822878,118.533244 C59.6822878,118.533244 59.6822878,118.533244 59.6828625,118.533244 C67.3368326,115.302074 82.2875779,107.995269 90.8622658,101.49385 L90.8622658,64.4248832 L59.6822878,64.4248832 Z" id="Path" fill="#BCD1E1"></path>
                <path d="M59.6828625,8.87283215 C38.2339297,14.368936 24.3076411,19.0879733 15.2970203,22.8019779 C15.857957,32.2516631 17.5330083,48.7934971 20.4402812,64.4248832 L59.6828625,64.4248832 L59.6828625,8.87283215 Z" id="Path" fill="#BCD1E1"></path>
                <g transform="translate(96.554682, 34.548880)" fill="#E9EDF1" id="Path">
                    <path d="M25.9174605,106.33664 L4.36507623,106.33664 C1.99431396,106.33664 0.0545993735,104.425124 0.0545993735,102.088827 L0.0545993735,80.8497608 C0.0545993735,78.5134636 1.99431396,76.6019477 4.36507623,76.6019477 L25.9174605,76.6019477 C28.2882228,76.6019477 30.2279373,78.5134636 30.2279373,80.8497608 L30.2279373,102.088827 C30.2279373,104.425124 28.2882228,106.33664 25.9174605,106.33664 Z"></path>
                    <path d="M25.9174605,68.1063213 L4.36507623,68.1063213 C1.99431396,68.1063213 0.0545993735,66.1948054 0.0545993735,63.8585081 L0.0545993735,42.6194423 C0.0545993735,40.283145 1.99431396,38.3716291 4.36507623,38.3716291 L25.9174605,38.3716291 C28.2882228,38.3716291 30.2279373,40.283145 30.2279373,42.6194423 L30.2279373,63.8585081 C30.2279373,66.1948054 28.2882228,68.1063213 25.9174605,68.1063213 Z"></path>
                    <path d="M25.9174605,29.8760028 L4.36507623,29.8760028 C1.99431396,29.8760028 0.0545993735,27.9644869 0.0545993735,25.6281896 L0.0545993735,4.38912376 C0.0545993735,2.05282651 1.99431396,0.141310585 4.36507623,0.141310585 L25.9174605,0.141310585 C28.2882228,0.141310585 30.2279373,2.05282651 30.2279373,4.38912376 L30.2279373,25.6281896 C30.2279373,27.9644869 28.2882228,29.8760028 25.9174605,29.8760028 Z"></path>
                </g>
            </g>
            <path d="M123.373663,146 L102.014154,146 C98.4810066,146 95.6063015,143.121627 95.6063015,139.583972 L95.6063015,121.071877 C92.2001718,123.910613 88.5869973,126.416856 85.4397448,128.420938 C77.531885,133.456808 68.4016917,137.892137 62.1789547,139.719992 C61.5037094,139.918746 60.7888779,139.918746 60.113063,139.719992 C53.8908956,137.892137 44.7607023,133.456808 36.8528425,128.420938 C29.9844788,124.046633 20.8933021,117.280717 16.5892187,109.886316 C4.32145586,88.8123727 0,34.1691995 0,24.0472735 C0,22.480622 0.756696206,21.080217 1.9750426,20.3927039 C13.1170169,14.1032854 32.1278343,7.4357489 58.479203,0.576301907 C59.2632393,0.372129633 60.5544929,0 61.1465784,0 C61.738664,0 63.0296328,0.372129633 63.8136691,0.576301907 C85.3298146,6.17735191 102.075385,11.6988432 113.585027,16.9873613 C114.657275,17.4801123 115.127469,18.7496304 114.635346,19.8229606 C114.143223,20.8962908 112.875322,21.3667995 111.80336,20.8746189 C100.520697,15.6904681 84.0129296,10.2539536 62.7388586,4.71563812 C62.0394059,4.53370807 61.5014311,4.39341092 61.1465784,4.29816855 C60.7911562,4.39369608 60.2531814,4.53370807 59.5540135,4.71563812 C27.4649111,13.0693068 11.7924425,19.7987223 4.27361056,24.0059258 C4.27247139,24.0187578 4.2719018,24.0327305 4.2719018,24.0475587 C4.2719018,33.5794953 8.63180478,87.7227885 20.279857,107.733097 C23.300946,112.923236 30.0012816,118.988807 39.1454298,124.812279 C46.670812,129.604624 55.2786941,133.810402 61.1462937,135.566112 C67.014178,133.810117 75.6223449,129.604339 83.1471575,124.812279 C92.2913057,118.988807 98.9913565,112.923521 102.01273,107.733097 C102.056588,107.657245 102.100731,107.581109 102.14459,107.504116 L102.014154,107.504116 C100.500477,107.504116 99.1075522,106.975721 98.0096735,106.093731 C92.0805586,115.509323 72.8467479,126.9501 61.8747953,130.828517 C61.7050584,130.890396 61.5250689,130.930889 61.3385292,130.947998 C61.3379596,130.947998 61.3368205,130.948283 61.3351117,130.948283 C61.269894,130.954271 61.2052459,130.955982 61.1386042,130.956553 C61.1371803,130.956553 61.1360411,130.956553 61.1346171,130.956553 C60.8652025,130.955127 60.6074644,130.904084 60.3705163,130.811693 C51.987621,127.838363 38.4454075,120.391493 29.7822754,112.40368 C28.914225,111.603245 28.8586902,110.250461 29.6575359,109.381589 C30.4572359,108.512146 31.8080112,108.456825 32.6757769,109.25669 C39.7631468,115.791343 50.9344548,122.324286 59.0089188,125.697406 L59.0094884,69.007377 L17.6640292,69.007377 C20.0779385,82.8275016 23.4014781,96.1063986 27.6614186,103.424663 C28.2554977,104.444954 27.9108976,105.754394 26.8916219,106.349231 C25.8726309,106.944068 24.5648593,106.599314 23.9707802,105.578452 C13.4282961,87.4678583 9.20708756,39.7280463 8.65373388,27.9348163 C8.6138628,27.0841935 9.08206323,26.2906021 9.84559448,25.9150506 C20.8303628,20.5101885 37.8934778,14.7762554 60.5630367,8.87265405 C60.732204,8.8247477 60.9099151,8.79708749 61.0933221,8.79252499 L61.0981636,8.79252499 L61.0984484,8.79252499 C61.1300604,8.79195467 61.1628117,8.79195467 61.1944237,8.79252499 L61.1989804,8.79252499 C61.382957,8.79708749 61.5612377,8.8247477 61.7309746,8.8729392 C84.4002487,14.7765406 101.462794,20.5101885 112.447562,25.9150506 C113.211094,26.2906021 113.679009,27.0844787 113.639423,27.9351014 C113.545441,29.9317694 113.395355,32.2680591 113.199132,34.7888453 L117.455086,34.7888453 C117.868891,29.4136395 118.02097,25.7573589 118.02097,24.0472735 C118.02097,24.0258868 118.019546,24.0059258 118.017553,23.9891015 C117.146654,23.3606159 116.868696,22.1635277 117.408095,21.2051156 C117.987365,20.176555 119.289156,19.8124098 120.317829,20.3924187 C121.535891,21.0799318 122.292872,22.4803369 122.292872,24.0469884 C122.292872,25.8026988 122.143071,29.4792255 121.736955,34.8182164 C122.747118,34.9881699 123.516345,35.8675935 123.516345,36.9272362 C123.516345,38.1086408 122.560293,39.0659122 121.380394,39.0659122 L102.014439,39.0659122 C100.836533,39.0659122 99.8784881,40.0251797 99.8784881,41.2045883 L99.8784881,62.5913488 C99.8784881,63.7707574 100.836533,64.7300249 102.014439,64.7300249 L123.373948,64.7300249 C124.551854,64.7300249 125.509899,63.7707574 125.509899,62.5913488 L125.509899,47.3152135 L114.92555,57.9133514 C114.090821,58.7485757 112.738621,58.7480054 111.904746,57.9133514 L104.776081,50.7755914 C103.941921,49.9400819 103.941921,48.5861574 104.776081,47.7509331 C105.610241,46.9162791 106.96244,46.9157088 107.796885,47.7509331 L113.415291,53.3767918 L131.353576,35.4153348 C132.188021,34.5803957 133.54022,34.5803957 134.37438,35.4153348 C135.20854,36.2508442 135.20854,37.6047688 134.37438,38.439993 L129.781801,43.0381466 L129.781801,62.591634 C129.781801,66.1292893 126.907096,69.0076621 123.373948,69.0076621 L117.624538,69.0076621 C117.382179,70.4576845 117.133269,71.8866052 116.879233,73.2850142 L121.380394,73.2850142 C122.560293,73.2850142 123.516345,74.2422856 123.516345,75.4236903 C123.516345,76.6050949 122.560293,77.5623663 121.380394,77.5623663 L102.014439,77.5623663 C100.836533,77.5623663 99.8784881,78.5216338 99.8784881,79.7010424 C99.8784881,79.7010424 99.8895951,101.338171 99.9106698,101.458792 C99.9183592,101.493866 99.9257638,101.529226 99.9320293,101.56487 C100.149042,102.515298 101.00029,103.226479 102.014439,103.226479 L123.373948,103.226479 C124.551854,103.226479 125.509899,102.267211 125.509899,101.087803 L125.509899,85.8116676 L114.92555,96.4098055 C114.090821,97.2447446 112.738621,97.2447446 111.904746,96.4098055 L104.776081,89.2720455 C103.941921,88.436536 103.941921,87.0826115 104.776081,86.2473872 C105.610241,85.4124481 106.96244,85.4121629 107.796885,86.2473872 L113.415291,91.8732458 L131.353576,73.9117889 C132.188021,73.0768498 133.54022,73.0768498 134.37438,73.9117889 C135.20854,74.7472983 135.20854,76.1012229 134.37438,76.9364471 L129.781801,81.5346007 L129.781801,101.088088 C129.781801,104.625743 126.907096,107.504116 123.373948,107.504116 L106.989211,107.504116 C106.566578,108.346469 106.13597,109.144338 105.703653,109.886601 C105.333137,110.523071 104.926737,111.155264 104.490149,111.781468 L121.380394,111.781468 C122.560293,111.781468 123.516345,112.73874 123.516345,113.920144 C123.516345,115.101549 122.560293,116.05882 121.380394,116.05882 L102.014439,116.05882 C100.836533,116.05882 99.8784881,117.018088 99.8784881,118.197496 L99.8784881,139.584257 C99.8784881,140.763666 100.836533,141.722933 102.014439,141.722933 L123.373948,141.722933 C124.551854,141.722933 125.509899,140.763666 125.509899,139.584257 L125.509899,124.308122 L114.92555,134.90626 C114.090821,135.741484 112.738621,135.740914 111.904746,134.90626 L104.776081,127.7685 C103.941921,126.93299 103.941921,125.579066 104.776081,124.743841 C105.610241,123.908902 106.96244,123.908617 107.796885,124.743841 L113.415291,130.3697 L131.353576,112.408243 C132.188021,111.573304 133.54022,111.573304 134.37438,112.408243 C135.20854,113.243752 135.20854,114.597677 134.37438,115.432901 L129.781801,120.031055 L129.781801,139.584542 C129.781516,143.121627 126.907096,146 123.373663,146 Z M63.281675,69.0076621 L63.2811054,125.706246 C74.8764708,120.909908 90.4008468,110.692169 94.6311687,103.424663 C94.9629531,102.854349 95.2958767,102.234418 95.6245283,101.575706 C95.6122822,101.414878 95.6063015,101.251768 95.6063015,101.087803 L95.6063015,79.7010424 C95.6063015,76.163387 98.4810066,73.2850142 102.014154,73.2850142 L103.837117,73.2850142 C104.102545,71.8931639 104.363415,70.4639579 104.617451,69.0076621 L63.281675,69.0076621 Z M108.185059,73.2850142 L112.535848,73.2850142 C112.793302,71.8891717 113.046198,70.4605361 113.29226,69.0076621 L108.953432,69.0076621 C108.703383,70.4611064 108.446499,71.889742 108.185059,73.2850142 Z M63.281675,64.73031 L95.9722611,64.73031 C95.735313,64.061047 95.6063015,63.3410261 95.6063015,62.591634 L95.6063015,41.2048734 C95.6063015,37.6672181 98.4810066,34.7888453 102.014154,34.7888453 L108.913845,34.7888453 C109.073899,32.7622359 109.20405,30.8533962 109.299171,29.1444515 C101.822488,25.6099328 88.0048795,20.2578247 63.2825293,13.7029252 L63.281675,64.73031 Z M16.9474888,64.73031 L59.0097732,64.73031 L59.0103427,13.7029252 C34.2882774,20.2578247 20.4698143,25.6105031 12.9931317,29.1447366 C13.458769,37.6039133 14.7688189,51.1571312 16.9474888,64.73031 Z" id="Shape" fill="#000000"></path>
        </g>
    </g>
</svg>
