<?xml version="1.0" encoding="UTF-8"?>
<svg width="584px" height="265px" viewBox="0 0 584 265" version="1.1" xmlns="http://www.w3.org/2000/svg" xmlns:xlink="http://www.w3.org/1999/xlink">
    <!-- Generator: Sketch 64 (93537) - https://sketch.com -->
    <title>logo-kafka</title>
    <desc>Created with Sketch.</desc>
    <g id="logo-kafka" stroke="none" stroke-width="1" fill="none" fill-rule="evenodd">
        <g id="g3175" fill="#231F20" fill-rule="nonzero">
            <path d="M55.9444221,23.4560207 L55.9444221,23.4560207 C52.9492113,20.3984513 48.8298649,18.6848085 44.5356235,18.7097017 C40.2550638,18.6954738 36.1519845,20.4082762 33.1663016,23.4560207 L33.1663016,23.4560207 C26.8934727,29.8654005 26.8934727,40.0708457 33.1663016,46.4802255 L33.1663016,46.4802255 C36.158617,49.5135553 40.260856,51.2118544 44.5356235,51.1873156 C48.817894,51.1914074 52.9247382,49.4970849 55.9444221,46.4802255 L55.9444221,46.4802255 C58.9574818,43.4068788 60.631012,39.278081 60.602686,34.9877349 C60.6244416,30.6870415 58.9526309,26.5484088 55.9444221,23.4560207 L55.9444221,23.4560207 Z M44.5356235,246.284824 L44.5356235,246.284824 C48.8227135,246.274462 52.9287523,244.566355 55.9444221,241.538779 L55.9444221,241.538779 C58.9624648,238.484612 60.6377637,234.365557 60.602686,230.085511 C60.6453668,225.776788 58.9872743,221.622952 55.983899,218.514574 L55.983899,218.514574 C52.9953623,215.44258 48.8751644,213.714418 44.5751003,213.729209 C40.2750361,213.714418 36.1548382,215.44258 33.1663016,218.514574 L33.1663016,218.514574 C30.1328046,221.593639 28.4446405,225.737637 28.468561,230.046288 C28.4264264,234.335286 30.1188893,238.461574 33.1663016,241.499555 L33.1663016,241.499555 C36.1519845,244.5473 40.2550638,246.260102 44.5356235,246.245601 L44.5356235,246.284824 Z M132.2531,196.980863 L132.2531,196.980863 C136.419255,195.890165 139.955973,193.155459 142.043349,189.410724 L142.319687,188.822371 L142.319687,188.822371 C146.337322,181.099876 143.624164,171.604657 136.121827,167.131766 L135.884966,167.131766 C128.155467,162.857984 118.402624,165.614092 114.093766,173.289858 C109.639345,181.058657 112.25288,190.940306 119.975811,195.529592 L119.975811,195.529592 C123.666475,197.693322 128.08372,198.273789 132.213623,197.137757 L132.2531,196.980863 Z M61.1948381,115.827405 L61.1948381,115.827405 C56.8670718,111.389044 50.9131653,108.883631 44.6935307,108.883631 C38.4738962,108.883631 32.5199896,111.389044 28.1922233,115.827405 C23.8068066,120.262238 21.3657657,126.241078 21.4018093,132.458176 C21.3684963,138.694477 23.7748227,144.699822 28.1132697,149.206618 C32.4680815,153.595196 38.4118722,156.065927 44.6145771,156.065927 C50.8172819,156.065927 56.7610726,153.595196 61.1158845,149.206618 C65.5010865,144.723828 67.9393881,138.709442 67.9062985,132.458176 C67.9423421,126.241078 65.5013012,120.262238 61.1158845,115.827405 L61.1948381,115.827405 Z M51.7993569,88.0571542 L51.7993569,88.0571542 C61.0139434,89.6650141 69.4750419,94.1431512 75.9591658,100.844021 L75.9591658,100.844021 C76.9855629,101.863832 77.9724832,103.001314 78.9199267,104.138796 L95.2238501,94.6074816 C90.114992,78.8761797 96.6769421,61.7289827 111.014575,53.3443411 L111.290913,53.3443411 C119.158157,48.7648692 128.552739,47.5344382 137.345609,49.9318951 C146.288742,52.3913124 153.875819,58.292154 158.426226,66.3273255 L158.426226,66.3273255 C162.958939,74.4612592 164.106713,84.0350664 161.623848,92.9993174 C159.274248,101.95545 153.456241,109.625422 145.438355,114.336911 L143.227654,115.631287 L142.990793,115.631287 C129.102669,122.329038 112.421716,118.972497 102.250723,107.433572 L86.1836601,116.533428 C88.0786415,121.550523 89.0546297,126.86409 89.0654674,132.222835 C89.0663773,137.671951 88.0905384,143.077678 86.1836601,148.186807 L102.250723,157.522004 C113.103558,145.202926 131.244446,142.30319 145.438355,150.618665 L145.951554,150.893229 L145.951554,150.893229 C162.511711,160.918004 167.922932,182.284359 158.110412,198.902815 L157.834074,199.491168 L157.834074,199.491168 C153.229631,207.188946 145.800476,212.812937 137.108748,215.180575 C128.20413,217.593186 118.696486,216.334576 110.738237,211.689682 L110.738237,211.689682 C96.4187996,203.308991 89.8596102,186.185301 94.9475124,170.465765 L78.8804499,161.05212 C77.9330064,162.189602 76.9460861,163.287861 75.919689,164.307672 L75.919689,164.307672 C69.4091197,170.951617 60.9288059,175.35013 51.7204033,176.859198 L51.7204033,195.647263 C58.313926,197.06433 64.3414311,200.379332 69.0507237,205.178578 L69.0507237,205.178578 C82.6699699,218.919467 82.6699699,240.976992 69.0507237,254.717881 L69.0507237,254.717881 L69.0507237,254.717881 C62.5946293,261.292603 53.7410496,265 44.4961467,265 C35.2512437,265 26.3976641,261.292603 19.9415696,254.717881 L19.9415696,254.717881 L19.9415696,254.717881 C6.32232337,240.976992 6.32232337,218.919467 19.9415696,205.178578 L19.9415696,205.178578 C24.656559,200.386755 30.6816737,197.073067 37.2718901,195.647263 L37.2718901,176.859198 C28.0634875,175.35013 19.5831736,170.951617 13.0726043,164.307672 L13.0726043,164.307672 C-4.35753476,146.682292 -4.35753476,118.430178 13.0726043,100.804797 L13.0726043,100.804797 C19.5835088,94.1398434 28.0577873,89.7032539 37.2718901,88.1356012 L37.2718901,69.4652069 C30.6981075,67.9736567 24.6872476,64.6542048 19.9415696,59.8946686 L19.9415696,59.8946686 C6.29638562,46.149073 6.29638562,24.0617379 19.9415696,10.3161423 L19.9415696,10.3161423 C26.3867444,3.72137977 35.2444069,0 44.4961467,0 C53.7478864,0 62.6055489,3.72137977 69.0507237,10.3161423 L69.0507237,10.3161423 C82.569556,24.1129947 82.569556,46.0978162 69.0507237,59.8946686 L69.0507237,59.8946686 C64.3346661,64.651765 58.3496301,67.9720825 51.7993569,69.4652069 L51.7993569,88.0571542 Z M142.082826,75.5840756 L142.082826,75.5840756 C139.933659,71.9813766 136.469636,69.3403244 132.411007,68.2100543 C128.268904,67.0628425 123.835069,67.6436169 120.133718,69.8182185 L120.133718,69.8182185 C116.382931,71.9878357 113.666264,75.5632634 112.593647,79.7417685 C111.492943,83.9124971 112.073645,88.3453602 114.212197,92.0971765 L114.212197,92.0971765 C116.313811,95.7656423 119.814514,98.4379498 123.923492,99.5104213 C128.033494,100.679689 132.446956,100.112033 136.121827,97.9414806 L136.358688,97.9414806 C139.963778,95.7371639 142.578406,92.2405961 143.661898,88.1748248 C144.781032,83.9966714 144.214464,79.5494967 142.082826,75.7801932 L142.082826,75.7801932" id="path3139"></path>
            <g id="kafka" transform="translate(224.000000, 18.000000)">
                <polyline id="path3141" points="0 1 17.8308157 1 17.8308157 56.7653374 43.4773414 27.4608896 64.8821752 27.4608896 33.81571 61.2281442 65 104 44.6555891 104 17.8308157 65.7699387 17.8308157 104 0 104 0 1"></polyline>
                <path d="M85.8254968,65.8100175 C85.6877585,71.9295807 88.0244878,77.8452925 92.305178,82.2141111 C96.5858682,86.5829298 102.44735,89.0342098 108.558895,89.011438 C117.02517,89.3144648 124.850345,84.5129086 128.426079,76.8208611 C130.129565,73.4999614 131.106682,69.8535191 131.292293,66.1246131 C131.440875,62.4494737 130.742252,58.7894422 129.250606,55.428365 C125.751948,47.0721104 117.484769,41.7291205 108.441105,41.9794061 C102.28319,41.996277 96.3964906,44.5187407 92.1319224,48.9679272 C87.8673542,53.4171136 85.5910886,59.4109992 85.8254968,65.5740709 L85.8254968,65.8100175 Z M149,103.600806 L131.174503,103.600806 L131.174503,92.6292866 C125.865671,101.384401 116.180241,106.506646 105.967523,105.960272 C82.0169656,105.960272 68,86.9272426 68,65.4167731 C68,41.4288639 85.0009695,25.0305718 105.967523,25.0305718 C116.204902,24.5516152 125.881217,29.7294223 131.174503,38.5188552 L131.174503,27.3900383 L149,27.3900383 L149,103.600806" id="path3143"></path>
                <path d="M169.278226,42.1779947 L160,42.1779947 L160,28.2358243 L169.278226,28.2358243 L169.278226,23.9789711 C169.278226,1.48404056 186.183468,0.156214795 199,0 L199,13.7859557 C194.478831,13.7859557 187.205645,13.7859557 187.205645,24.4085618 L187.205645,28.3139317 L199,28.3139317 L199,42.2561021 L187.205645,42.2561021 L187.205645,104 L169.278226,104 L169.278226,42.1779947" id="path3145"></path>
                <polyline id="path3147" points="211.039204 1 228.837756 1 228.837756 56.6799387 254.516285 27.5781011 275.882388 27.5781011 244.872135 61.2936447 276 104 255.574789 104 228.798552 65.8284839 228.798552 104 211 104 211 1"></polyline>
                <path d="M296.856105,65.8122767 C296.718433,71.9318563 299.05403,77.8475838 303.332646,82.2164141 C307.611263,86.5852444 313.469905,89.036531 319.578488,89.0137591 C328.040661,89.3167868 335.862045,84.5152177 339.436047,76.8231497 C341.156031,73.5089668 342.133707,69.8586589 342.300872,66.1268731 C342.449382,62.4517239 341.751098,58.7916827 340.260174,55.4305965 C336.763212,47.0743196 328.500038,41.7313153 319.460756,41.9816016 C313.305824,41.9984725 307.421977,44.5209431 303.159475,48.9701414 C298.896973,53.4193397 296.62181,59.4132413 296.856105,65.5763295 L296.856105,65.8122767 Z M360,103.603166 L342.143895,103.603166 L342.143895,92.6316174 C336.825379,101.373703 327.153053,106.491511 316.949128,105.962639 C293.010174,105.962639 279,86.9295582 279,65.4190313 C279,41.431058 295.992733,25.0327221 316.949128,25.0327221 C327.185475,24.536292 336.865484,29.7186006 342.143895,38.5210415 L342.143895,27.3921949 L359.960756,27.3921949 L359.960756,103.603166" id="path3149"></path>
            </g>
        </g>
    </g>
</svg>