<?xml version="1.0" encoding="UTF-8"?>
<svg width="1257px" height="427px" viewBox="0 0 1257 427" version="1.1" xmlns="http://www.w3.org/2000/svg" xmlns:xlink="http://www.w3.org/1999/xlink">
    <!-- Generator: Sketch 64 (93537) - https://sketch.com -->
    <title>logo-postgresql</title>
    <desc>Created with Sketch.</desc>
    <g id="logo-postgresql" stroke="none" stroke-width="1" fill="none" fill-rule="evenodd">
        <g id="Postgresql_elephant" transform="translate(18.000000, 18.000000)">
            <g id="Layer_x0020_3">
                <path d="M303.412214,292.108204 C306.230218,269.63643 305.385829,266.340958 322.871476,269.981064 L327.310302,270.354071 C340.755462,270.939533 358.343766,268.284193 368.675964,263.689078 C390.919253,253.809581 404.108493,237.314225 382.176067,241.648443 C332.146742,251.52794 328.707014,235.311475 328.707014,235.311475 C381.535546,160.278229 403.619065,65.0305595 384.557418,41.7158869 C332.565322,-21.8781524 242.568493,8.19405205 241.062618,8.97482715 L240.583311,9.05957381 C230.697887,7.0962071 219.635524,5.92314412 207.207535,5.73080742 C184.568078,5.37469776 167.388955,11.4123696 154.357315,20.8739952 C154.357315,20.8739952 -6.19197387,-42.4429531 1.27710943,100.501595 C2.86561622,130.90963 46.8105689,330.596445 99.2233406,270.282099 C118.379693,248.226931 136.892632,229.578653 136.892632,229.578653 C146.085484,235.424968 157.091458,238.406949 168.635297,237.335678 L169.527399,236.607657 C169.247623,239.346041 169.371245,242.024218 169.88453,245.195124 C156.384427,259.636519 160.351175,262.172137 133.356753,267.491121 C106.045686,272.879308 122.091245,282.472303 132.563693,284.979547 C145.264229,288.019659 174.643616,292.326195 194.500493,265.72297 L193.709601,268.758238 C199.006552,272.814257 198.648698,297.912305 199.399829,315.845018 C200.151682,333.777731 201.405975,350.511839 205.224522,360.378188 C209.043069,370.242461 213.549128,395.656076 249.026478,388.37794 C278.676243,382.294949 301.346064,373.540701 303.412214,292.107512" id="Shape" stroke="#000000" stroke-width="37.3953" fill="#000000" fill-rule="nonzero"></path>
                <path d="M382.181186,241.64654 C332.1468,251.526037 328.707072,235.309572 328.707072,235.309572 C381.535604,160.271481 403.619123,65.0220128 384.56109,41.7101776 C332.568995,-21.8799863 242.568551,8.19405205 241.06629,8.97482715 L240.583369,9.05766379 C230.697945,7.09335591 219.635582,5.9231462 207.201809,5.72890432 C184.56163,5.37374829 167.389013,11.4104596 154.357373,20.8702236 C154.357373,20.8702236 -6.19495237,-42.4438874 1.27210672,100.499692 C2.8606135,130.909803 46.8045541,330.596618 99.2190608,270.28158 C118.376859,248.227104 136.886907,229.578826 136.886907,229.578826 C146.080481,235.425141 157.086455,238.407122 168.625233,237.335851 L169.520951,236.60783 C169.24262,239.346214 169.369857,242.024391 169.88025,245.195297 C156.377255,259.636692 160.34545,262.17231 133.352474,267.490602 C106.03996,272.879481 122.084797,282.472476 132.560859,284.979028 C145.260672,288.019832 174.642951,292.326368 194.49549,265.722451 L193.703876,268.758411 C198.99432,272.81443 202.709487,295.143644 202.087039,315.384988 C201.464591,335.627023 201.048903,349.523786 205.217351,360.378361 C209.385798,371.232936 213.54051,395.655557 249.02509,388.377421 C278.675578,382.295122 294.040132,366.533324 296.177854,340.240823 C297.694573,321.548947 301.127072,324.312244 301.343953,307.600973 L304.097615,299.689625 C307.272749,274.351441 304.601501,266.177118 322.869365,269.979161 L327.308191,270.352168 C340.753351,270.93763 358.350331,268.28229 368.678191,263.687175 C390.917142,253.807678 404.106382,237.312322 382.179017,241.64654 L382.181186,241.64654 Z" id="Shape" fill="#336791" fill-rule="nonzero"></path>
                <path d="M196.643954,256.170605 C195.26632,303.318077 196.990111,350.793989 201.809338,362.332295 C206.631601,373.870601 216.951365,396.313309 252.438692,389.035865 C282.086288,382.95149 292.873936,371.1772 297.554222,345.18781 C301.001903,326.06618 307.648574,272.962083 308.500916,262.08166" id="Shape" stroke="#FFFFFF" stroke-width="12.4651"></path>
                <path d="M154.110028,19.8170772 C154.110028,19.8170772 -6.55203927,-43.0410516 0.917044037,99.9028737 C2.50555083,130.312985 46.4525277,330.00672 98.866167,269.688914 C118.019628,247.630978 135.341892,230.331477 135.341892,230.331477" id="Shape" stroke="#FFFFFF" stroke-width="12.4651"></path>
                <path d="M240.890516,8.34447979 C235.329267,10.0136276 330.26056,-24.8756415 384.210365,41.115124 C403.267675,64.4279973 381.184156,159.678089 328.356347,234.718255" id="Shape" stroke="#FFFFFF" stroke-width="12.4651"></path>
                <path d="M328.355479,234.718096 C328.355479,234.718096 331.798099,250.938714 381.833931,241.052296 C403.756235,236.718078 390.562657,253.21551 368.328767,263.099852 C350.081145,271.207046 309.171655,273.284537 308.50294,262.081868 C306.783076,233.179009 330.034859,241.960246 328.356925,234.718096 C326.839483,228.195662 316.441498,221.794335 309.563487,205.831154 C303.558059,191.897714 227.208088,85.0502162 330.73683,100.918588 C334.529351,100.167729 303.735178,6.65250168 206.846602,5.1318923 C109.979729,3.61128292 113.15774,119.164793 113.15774,119.164793" id="Shape" stroke="#FFFFFF" stroke-width="12.4651"></path>
                <path d="M169.527211,244.601849 C156.02241,259.042552 159.994146,261.578239 132.999493,266.898953 C105.68656,272.288317 121.73371,281.879582 132.206736,284.385719 C144.906838,287.427906 174.288756,291.734581 194.141584,265.12409 C200.187279,257.022016 194.105799,244.094317 185.801219,240.798838 C181.788636,239.207759 176.423296,237.21388 169.527211,244.601822 L169.527211,244.601849 Z" id="Shape" stroke="#FFFFFF" stroke-width="12.4651"></path>
                <path d="M168.642916,244.349948 C167.282207,235.859366 171.55736,225.755649 176.138821,213.935685 C183.024061,196.200893 198.91043,178.46285 186.201942,122.205154 C176.729676,80.2823345 113.196337,113.480477 113.156569,119.164897 C113.117776,124.847414 116.030217,147.977376 112.095241,174.912224 C106.960691,210.059594 135.458357,239.785283 168.27393,236.743787" id="Shape" stroke="#FFFFFF" stroke-width="12.4651"></path>
                <path d="M153.525751,118.312773 C153.239285,120.254313 157.238937,125.435222 162.45408,126.127465 C167.660302,126.822615 172.11655,122.773834 172.399001,120.834197 C172.681525,118.892657 168.686871,116.754005 163.46966,116.058904 C158.260474,115.362841 153.802275,116.37598 153.526737,118.312773 L153.525751,118.312773 Z" id="Shape" stroke="#FFFFFF" stroke-width="12.4651" fill="#FFFFFF" fill-rule="nonzero"></path>
                <path d="M312.101714,114.354642 C312.384165,116.296154 308.389583,121.476987 303.173457,122.16923 C297.96336,122.864311 293.50723,118.815641 293.22174,116.876031 C292.946207,114.934519 296.941823,112.795901 302.152961,112.100807 C307.364099,111.405713 311.819191,112.417878 312.101714,114.355583 L312.101714,114.354642 Z" id="Shape" stroke="#FFFFFF" stroke-width="12.4651" fill="#FFFFFF" fill-rule="nonzero"></path>
                <path d="M330.736685,100.918553 C331.595099,116.147484 327.310114,126.520403 326.770002,142.732024 C325.970312,166.296245 338.505931,193.267217 319.617427,220.271822" id="Shape" stroke="#FFFFFF" stroke-width="12.4651"></path>
            </g>
        </g>
        <text id="PosgreSQL" font-family="ArialMT, Arial" font-size="150" font-weight="normal">
            <tspan x="487" y="162" fill="#000000">Posgre</tspan>
            <tspan x="962.268555" y="162" fill="#336791">SQL</tspan>
        </text>
    </g>
</svg>