<?xml version="1.0" encoding="UTF-8"?>
<svg width="1326px" height="225px" viewBox="0 0 1326 225" version="1.1" xmlns="http://www.w3.org/2000/svg" xmlns:xlink="http://www.w3.org/1999/xlink">
    <!-- Generator: Sketch 64 (93537) - https://sketch.com -->
    <title>logo-kubernetes</title>
    <desc>Created with Sketch.</desc>
    <g id="logo-kubernetes" stroke="none" stroke-width="1" fill="none" fill-rule="evenodd">
        <g id="Kubernetes_logo" fill-rule="nonzero">
            <path d="M211.704379,49.8188183 C210.377868,45.5789188 207.194241,42.1340006 203.214708,40.0140508 L122.297527,1.32496857 C120.175109,0.264993714 117.787389,0 115.664971,0 C113.542553,0 111.154833,0 109.032415,0.529987428 L28.1152343,39.4840634 C24.1357003,41.3390194 21.2173757,44.7839377 20.1561668,49.2888308 L0.258499472,136.471763 C-0.537407225,140.976656 0.523801705,145.481549 3.17682392,149.191461 L59.1555955,218.35482 C62.3392223,221.534745 66.8493603,223.654695 71.3594982,223.919688 L160.501048,223.919688 C165.276489,224.449676 169.786626,222.329726 172.704951,218.35482 L228.683722,149.191461 C231.336744,145.481549 232.397953,140.976656 231.867349,136.471763 L211.704379,49.8188183 Z" id="path10349" fill="#326DE6"></path>
            <path d="M199.231361,133.416936 L199.231361,133.416936 C198.966437,133.416936 198.701512,133.416936 198.701512,133.152717 C198.701512,132.888499 198.171664,132.888499 197.641815,132.888499 C196.582117,132.62428 195.52242,132.62428 194.462722,132.62428 C193.932874,132.62428 193.403025,132.62428 192.873176,132.360062 L192.608252,132.360062 C189.694084,132.095843 186.514991,131.567406 183.600823,130.774751 C182.80605,130.510532 182.011277,129.717877 181.746352,128.925221 C182.011277,128.925221 181.746352,128.925221 181.746352,128.925221 L181.746352,128.925221 L179.626957,128.396784 C180.686655,120.734447 180.156806,112.807892 178.56726,105.145555 C176.712789,97.4832185 173.533697,90.0851003 169.294907,83.4796376 L170.884453,81.8943265 L170.884453,81.8943265 L170.884453,81.630108 C170.884453,80.8374525 171.149377,79.7805784 171.679226,79.2521414 C174.063546,77.1383933 176.447865,75.5530823 179.097109,73.9677712 L179.097109,73.9677712 C179.626957,73.7035527 180.156806,73.4393342 180.686655,73.1751157 C181.746352,72.6466787 182.541126,72.1182417 183.600823,71.5898047 C183.865747,71.3255861 184.130672,71.3255861 184.395596,71.0613676 C184.660521,70.7971491 184.395596,70.7971491 184.395596,70.5329306 L184.395596,70.5329306 C186.779916,68.6834011 187.309764,65.512779 185.455294,63.1348124 C184.660521,62.0779383 183.070974,61.2852828 181.746352,61.2852828 C180.421731,61.2852828 179.097109,61.8137198 178.037411,62.6063754 L178.037411,62.6063754 L177.772487,62.8705939 C177.507562,63.1348124 177.242638,63.3990309 176.977714,63.3990309 C176.182941,64.1916864 175.388167,64.9843419 174.858319,65.7769975 C174.593394,66.3054345 174.063546,66.569653 173.798621,66.8338715 L173.798621,66.8338715 C171.944151,68.9476196 169.559831,71.0613676 167.175512,72.6466787 C166.645663,72.9108972 166.115814,73.1751157 165.585966,73.1751157 C165.321041,73.1751157 164.791192,73.1751157 164.526268,72.9108972 L164.261344,72.9108972 L162.141949,74.2319897 C160.022554,72.1182417 157.638234,70.0044936 155.518839,67.8907455 C145.716637,60.2284088 133.530116,55.4724756 121.078671,54.1513831 L120.813746,52.037635 L120.813746,52.037635 L120.813746,52.3018535 C120.018973,51.7734165 119.754049,50.980761 119.489124,50.1881054 C119.489124,47.2817018 119.489124,44.3752982 120.018973,41.2046761 L120.018973,40.9404576 C120.018973,40.4120206 120.283897,39.8835836 120.283897,39.3551466 C120.548822,38.2982725 120.548822,37.2413985 120.813746,36.1845245 L120.813746,34.5992134 L120.813746,34.5992134 C121.078671,31.9570283 118.959276,29.3148432 116.310032,29.0506247 C114.720486,28.7864062 113.130939,29.5790617 111.806317,30.9001543 C110.74662,31.9570283 110.216771,33.2781209 110.216771,34.5992134 L110.216771,34.5992134 L110.216771,35.9203059 C110.216771,36.97718 110.481696,38.034054 110.74662,39.0909281 C111.011544,39.6193651 111.011544,40.1478021 111.011544,40.6762391 L111.011544,40.9404576 C111.541393,43.8468612 111.541393,46.7532648 111.541393,49.9238869 C111.276469,50.7165425 111.011544,51.509198 110.216771,52.037635 L110.216771,52.566072 L110.216771,52.566072 L109.951847,54.6798201 C107.037679,54.9440386 104.123511,55.4724756 100.944418,56.0009126 C88.4929724,58.6430977 77.1012243,65.2485604 68.3587199,74.4962083 L66.7691737,73.4393342 L66.5042493,73.4393342 C66.2393249,73.4393342 65.9744005,73.7035527 65.4445518,73.7035527 C64.914703,73.7035527 64.3848543,73.4393342 63.8550055,73.1751157 C61.4706862,71.3255861 59.0863668,69.2118381 57.2318962,67.09809 L57.2318962,67.09809 C56.9669718,66.569653 56.437123,66.3054345 56.1721987,66.041216 C55.3774255,65.2485604 54.8475768,64.4559049 54.0528037,63.6632494 C53.7878793,63.3990309 53.5229549,63.3990309 53.2580305,63.1348124 C52.9931062,62.8705939 52.9931062,62.8705939 52.9931062,62.8705939 L52.9931062,62.8705939 C51.9334087,62.0779383 50.6087868,61.5495013 49.2841649,61.5495013 C47.6946186,61.5495013 46.3699968,62.0779383 45.5752236,63.3990309 C43.9856774,65.7769975 44.5155261,68.9476196 46.6349211,70.7971491 L46.6349211,70.7971491 C46.8998455,70.7971491 46.8998455,71.0613676 46.8998455,71.0613676 C46.8998455,71.0613676 47.4296943,71.5898047 47.6946186,71.5898047 C48.4893918,72.1182417 49.5490893,72.6466787 50.6087868,73.1751157 C51.1386355,73.4393342 51.6684843,73.7035527 52.198333,73.9677712 L52.198333,73.9677712 C54.8475768,75.5530823 57.4968205,77.1383933 59.6162155,79.2521414 C60.1460643,79.7805784 60.675913,80.8374525 60.4109887,81.630108 L60.4109887,81.3658895 L60.4109887,81.3658895 L62.0005349,82.9512005 C61.7356105,83.4796376 61.4706862,83.7438561 61.2057618,84.2722931 C52.9931062,97.219 49.5490893,112.543674 51.9334087,127.604129 L49.8140137,128.132566 L49.8140137,128.132566 C49.8140137,128.396784 49.5490893,128.396784 49.5490893,128.396784 C49.2841649,129.18944 48.4893918,129.717877 47.6946186,130.246314 C44.7804505,131.038969 41.8662824,131.567406 38.6871899,131.831625 L38.6871899,131.831625 C38.1573411,131.831625 37.6274924,131.831625 37.0976436,132.095843 C36.0379461,132.095843 34.9782486,132.360062 33.9185511,132.360062 C33.6536268,132.360062 33.3887024,132.62428 32.8588536,132.62428 C32.5939293,132.62428 32.5939293,132.62428 32.3290049,132.888499 L32.3290049,132.888499 C29.4148368,133.416936 27.5603661,136.059121 28.0902149,138.965524 C28.0902149,138.965524 28.0902149,138.965524 28.0902149,138.965524 C28.6200636,141.343491 31.004383,142.928802 33.3887024,142.664584 C33.9185511,142.664584 34.1834755,142.664584 34.7133243,142.400365 L34.7133243,142.400365 C34.9782486,142.400365 34.9782486,142.400365 34.9782486,142.136147 C34.9782486,141.871928 35.7730218,142.136147 36.0379461,142.136147 C37.0976436,141.871928 38.1573411,141.343491 38.9521143,141.079273 C39.481963,140.815054 40.0118118,140.550835 40.5416605,140.550835 L40.8065849,140.550835 C43.720753,139.493961 46.3699968,138.701306 49.5490893,138.172869 L49.8140137,138.172869 C50.6087868,138.172869 51.4035599,138.437087 51.9334087,138.965524 C52.198333,138.965524 52.198333,139.229743 52.198333,139.229743 L52.198333,139.229743 L54.5826524,138.965524 C58.556518,151.119576 65.9744005,161.952535 76.3064512,169.87909 C78.6907705,171.72862 80.8101655,173.313931 83.4594093,174.635023 L82.1347874,176.484553 L82.1347874,176.484553 C82.1347874,176.748771 82.3997118,176.748771 82.3997118,176.748771 C82.9295605,177.541427 82.9295605,178.598301 82.6646362,179.390956 C81.6049387,182.033141 80.0153924,184.675326 78.4258462,187.053293 L78.4258462,187.317512 C78.1609218,187.845949 77.8959974,188.110167 77.3661487,188.638604 C76.8362999,189.167041 76.3064512,190.223915 75.511678,191.280789 C75.2467537,191.545008 75.2467537,191.809226 74.9818293,192.073445 C74.9818293,192.073445 74.9818293,192.337663 74.7169049,192.337663 L74.7169049,192.337663 C73.392283,194.979848 74.4519805,198.15047 76.8362999,199.471563 C77.3661487,199.735781 78.1609218,200 78.6907705,200 C80.8101655,200 82.6646362,198.678907 83.7243337,196.829378 L83.7243337,196.829378 C83.7243337,196.829378 83.7243337,196.565159 83.989258,196.565159 C83.989258,196.300941 84.2541824,196.036722 84.5191068,195.772504 C84.7840312,194.71563 85.3138799,193.922974 85.5788043,192.8661 L86.108653,191.280789 L86.108653,191.280789 C86.9034262,188.374386 88.228048,185.732201 89.5526699,183.090015 C90.0825187,182.29736 90.8772918,181.768923 91.6720649,181.504704 C91.9369893,181.504704 91.9369893,181.504704 91.9369893,181.240486 L91.9369893,181.240486 L92.9966868,179.126738 C100.414569,182.033141 108.097376,183.354234 116.045107,183.354234 C120.813746,183.354234 125.582385,182.825797 130.351024,181.504704 C133.265192,180.976267 136.17936,179.919393 138.828604,179.126738 L139.888301,180.976267 L139.888301,180.976267 C140.153226,180.976267 140.153226,180.976267 140.153226,181.240486 C140.947999,181.504704 141.742772,182.033141 142.272621,182.825797 C143.597242,185.467982 144.921864,188.110167 145.716637,191.016571 L145.716637,191.280789 L146.246486,192.8661 C146.511411,193.922974 146.776335,194.979848 147.306184,195.772504 C147.571108,196.036722 147.571108,196.300941 147.836032,196.565159 C147.836032,196.565159 147.836032,196.829378 148.100957,196.829378 L148.100957,196.829378 C149.160654,198.678907 151.015125,200 153.13452,200 C153.929293,200 154.459142,199.735781 155.253915,199.471563 C156.313612,198.943126 157.37331,197.886252 157.638234,196.565159 C157.903159,195.244067 157.903159,193.922974 157.37331,192.601882 L157.37331,192.601882 C157.37331,192.337663 157.108386,192.337663 157.108386,192.337663 C157.108386,192.073445 156.843461,191.809226 156.578537,191.545008 C156.048688,190.488134 155.518839,189.695478 154.724066,188.902823 C154.459142,188.374386 154.194217,188.110167 153.664369,187.58173 L153.664369,187.053293 C151.809898,184.675326 150.485276,182.033141 149.425579,179.390956 C149.160654,178.598301 149.160654,177.541427 149.690503,176.748771 C149.690503,176.484553 149.955427,176.484553 149.955427,176.484553 L149.955427,176.484553 L149.160654,174.370805 C162.671797,166.180031 173.003848,153.497542 177.772487,138.437087 L179.891882,138.701306 L179.891882,138.701306 C180.156806,138.701306 180.156806,138.437087 180.156806,138.437087 C180.686655,137.90865 181.481428,137.644432 182.276201,137.644432 L182.541126,137.644432 C185.455294,138.172869 188.369462,138.965524 191.018706,140.022398 L191.28363,140.022398 C191.813479,140.286617 192.343327,140.550835 192.873176,140.550835 C193.932874,141.079273 194.727647,141.60771 195.787344,141.871928 C196.052269,141.871928 196.317193,142.136147 196.847042,142.136147 C197.111966,142.136147 197.111966,142.136147 197.376891,142.400365 L197.376891,142.400365 C197.906739,142.664584 198.171664,142.664584 198.701512,142.664584 C201.085832,142.664584 203.205227,141.079273 204,138.965524 C203.735076,136.059121 201.615681,133.945373 199.231361,133.416936 L199.231361,133.416936 Z M122.668217,125.226162 L115.515259,128.661003 L108.362301,125.226162 L106.50783,117.563825 L111.541393,111.222581 L119.489124,111.222581 L124.522687,117.563825 L122.668217,125.226162 L122.668217,125.226162 Z M165.85089,108.051959 C167.175512,113.600548 167.440436,119.149136 166.910587,124.697725 L141.742772,117.563825 L141.742772,117.563825 C139.358452,117.035388 138.033831,114.657422 138.563679,112.279455 C138.828604,111.4868 139.093528,110.958362 139.623377,110.429925 L159.492705,92.4630669 C162.406873,97.219 164.526268,102.50337 165.85089,108.051959 L165.85089,108.051959 Z M151.544974,82.686982 L129.821175,98.0116556 C127.966704,99.0685296 125.317461,98.8043111 123.992839,96.9547815 C123.46299,96.4263445 123.198066,95.8979075 123.198066,95.105252 L121.608519,68.4191825 C133.265192,69.7402751 143.597242,74.7604268 151.544974,82.686982 L151.544974,82.686982 L151.544974,82.686982 Z M103.593662,69.2118381 L108.892149,68.154964 L107.567527,94.5768149 L107.567527,94.5768149 C107.567527,96.9547815 105.448132,98.8043111 103.063813,98.8043111 C102.26904,98.8043111 101.739191,98.5400926 100.944418,98.2758741 L78.9556949,82.686982 C85.8437287,76.0815193 94.3213087,71.3255861 103.593662,69.2118381 Z M71.272888,92.4630669 L90.8772918,109.901488 L90.8772918,109.901488 C92.7317624,111.4868 92.9966868,114.128985 91.4071406,115.978514 C90.8772918,116.77117 90.3474431,117.035388 89.2877456,117.299607 L63.5900812,124.697725 C62.795308,113.600548 65.4445518,102.239152 71.272888,92.4630669 L71.272888,92.4630669 Z M66.7691737,137.115995 L92.9966868,132.62428 C95.1160818,132.62428 97.2354768,133.945373 97.5004012,136.059121 C97.7653256,136.851776 97.7653256,137.90865 97.2354768,138.701306 L97.2354768,138.701306 L87.1683505,163.009409 C77.8959974,156.932383 70.4781149,147.684735 66.7691737,137.115995 L66.7691737,137.115995 Z M126.907007,169.87909 C123.198066,170.671746 119.489124,171.200183 115.515259,171.200183 C109.951847,171.200183 104.123511,170.143308 98.8250231,168.557997 L111.806317,145.04255 C113.130939,143.457239 115.250334,142.928802 117.104805,143.985676 C117.899578,144.514113 118.429427,145.04255 119.2242,145.835206 L119.2242,145.835206 L131.94057,168.822216 C130.351024,169.086434 128.761477,169.350653 126.907007,169.87909 L126.907007,169.87909 Z M159.227781,146.89208 C155.253915,153.233324 149.690503,158.781913 143.332318,162.74519 L133.000267,137.90865 C132.470419,135.794902 133.530116,133.681154 135.384587,132.888499 C136.17936,132.62428 136.974133,132.360062 137.768906,132.360062 L164.261344,136.851776 C162.936722,140.550835 161.347176,143.985676 159.227781,146.89208 Z" id="path10351" fill="#FFFFFF"></path>
            <path d="M1283.30791,165.786202 C1287.01641,166.051741 1290.9898,165.520664 1294.4334,164.192971 C1296.55254,163.130817 1297.87701,160.74097 1297.61211,158.351123 C1297.34722,155.695737 1295.75787,153.30589 1293.37383,152.509274 C1289.40044,150.119427 1284.89727,147.995119 1280.3941,146.667426 C1275.89092,145.074195 1271.91753,143.215425 1268.20904,141.356655 C1264.76543,139.763423 1261.85161,137.639115 1258.9378,134.983729 C1256.28887,132.328344 1254.43462,129.407419 1253.11016,125.955418 C1251.5208,121.97234 1250.99102,117.723723 1250.99102,113.475106 C1250.72613,104.712333 1254.69951,96.2150993 1261.58672,90.904328 C1268.73882,85.3280182 1278.27495,82.6726326 1290.46001,82.6726326 C1296.28765,82.6726326 1302.38018,83.2037097 1308.20782,84.5314025 C1312.71099,85.3280182 1317.21417,86.3901725 1321.71734,87.9834038 L1316.68438,110.554182 C1312.97588,109.226489 1309.53228,108.429873 1305.82378,107.367719 C1301.5855,106.305565 1297.08233,106.040026 1292.84405,106.040026 C1283.8377,106.040026 1279.33453,108.429873 1279.33453,113.475106 C1279.33453,114.53726 1279.59942,115.599414 1279.86431,116.661568 C1280.3941,117.723723 1281.18877,118.520338 1282.24834,119.316954 C1283.30791,120.11357 1284.89727,120.910185 1286.75152,121.97234 C1288.60577,123.034494 1291.25469,124.096648 1294.4334,125.158802 C1299.73125,127.017572 1305.02911,129.407419 1309.79717,132.062805 C1313.50567,133.921575 1316.68438,136.311422 1319.33331,139.497885 C1321.71734,141.887732 1323.3067,144.808656 1324.36627,148.260657 C1325.42584,151.978197 1325.95562,155.695737 1325.95562,159.413277 C1326.48541,168.441588 1322.24713,177.204361 1314.56524,182.249593 C1307.14825,187.294826 1296.55254,189.950212 1282.77813,189.950212 C1275.09624,190.21575 1267.67925,189.419134 1260.26226,187.560364 C1256.02398,186.49821 1252.05059,185.170517 1248.0772,183.842825 L1252.84527,160.475431 C1257.61333,162.334201 1262.64629,163.927432 1267.67925,164.989587 C1272.9771,165.255125 1278.01006,165.786202 1283.30791,165.786202 M1137.3521,136.576961 C1137.0872,128.610804 1138.67656,120.644647 1141.32548,113.209567 C1143.70952,106.836642 1147.41801,101.260332 1152.18608,96.2150993 C1156.68925,91.7009437 1161.72221,88.2489424 1167.54985,86.1246339 C1173.37749,83.7347869 1179.47002,82.6726326 1185.56255,82.6726326 C1199.86675,82.6726326 1211.25713,87.1867882 1219.4688,95.9495607 C1227.68047,104.712333 1231.91875,117.723723 1231.91875,134.718191 C1231.91875,136.311422 1231.91875,138.170192 1231.65386,140.2945 C1231.65386,142.418809 1231.38897,144.01204 1231.38897,145.605272 L1166.75517,145.605272 C1167.28496,151.181582 1170.19878,156.492353 1174.96684,159.678815 C1180.79448,163.396355 1187.68169,165.255125 1194.5689,164.989587 C1199.60185,164.989587 1204.89971,164.45851 1209.93267,163.661894 C1214.17095,162.865278 1218.40923,161.537585 1222.38262,159.678815 L1226.35601,183.046209 C1224.50176,184.108363 1222.38262,184.63944 1220.26348,185.436056 C1217.34966,186.232672 1214.43584,187.029287 1211.52202,187.294826 C1208.34331,187.825903 1205.1646,188.35698 1201.4561,188.888057 C1198.0125,189.153596 1194.304,189.419134 1190.59551,189.419134 C1182.38384,189.684673 1174.43706,188.35698 1166.75517,185.436056 C1160.39775,183.046209 1154.83501,179.328669 1150.06694,174.548975 C1145.56377,169.769281 1142.38505,163.927432 1140.26591,157.820046 C1138.41167,150.650504 1137.3521,143.480963 1137.3521,136.576961 M1204.36992,125.68988 C1204.36992,123.300033 1203.84014,120.910185 1203.04546,118.520338 C1202.51567,116.130491 1201.19121,114.271721 1199.86675,112.412952 C1198.27739,110.554182 1196.42314,108.96095 1194.304,107.898796 C1191.65508,106.571103 1189.00615,106.040026 1186.09233,106.040026 C1183.17851,106.040026 1180.52959,106.571103 1177.88066,107.898796 C1175.76152,108.96095 1173.64238,110.288643 1172.05303,112.147413 C1170.46367,114.006183 1169.13921,116.130491 1168.34453,118.520338 C1167.54985,120.910185 1167.02007,123.300033 1166.75517,125.68988 L1204.36992,125.68988 M1059.73857,59.8363163 L1088.34697,55.3221608 L1088.34697,85.0624797 L1122.783,85.0624797 L1122.783,108.96095 L1088.34697,108.96095 L1088.34697,144.543117 C1088.08207,149.58835 1089.14164,154.633583 1091.52568,158.8822 C1093.64482,162.334201 1097.8831,164.192971 1104.50541,164.192971 C1107.68413,164.192971 1110.86284,163.927432 1113.77665,163.396355 C1116.95537,162.865278 1119.86918,162.068663 1122.783,161.006508 L1126.75639,183.311747 C1123.0479,184.904979 1119.07451,185.967133 1115.10112,187.029287 C1110.06816,188.091442 1104.77031,188.622519 1099.47245,188.622519 C1092.85014,188.888057 1086.22783,187.825903 1080.1353,185.436056 C1075.36723,183.577286 1071.12895,180.390823 1067.95024,176.673283 C1064.77153,172.690205 1062.65238,167.910511 1061.32792,162.865278 C1060.00346,157.02343 1059.47367,150.916043 1059.73857,145.074195 L1059.73857,59.8363163 M943.980503,136.576961 C943.715611,128.610804 945.304966,120.644647 947.953892,113.209567 C950.337925,106.836642 954.046422,101.260332 958.814488,96.2150993 C963.317662,91.7009437 968.350622,88.2489424 974.178259,86.1246339 C980.005896,83.7347869 986.098425,82.6726326 992.190955,82.6726326 C1006.49516,82.6726326 1017.88554,87.1867882 1026.09721,95.9495607 C1034.30888,104.712333 1038.54716,117.723723 1038.54716,134.718191 C1038.54716,136.311422 1038.54716,138.170192 1038.28227,140.2945 C1038.01737,142.418809 1038.01737,144.01204 1038.01737,145.605272 L973.118688,145.605272 C973.648474,151.181582 976.562292,156.492353 981.330359,159.678815 C987.157996,163.396355 994.045203,165.255125 1000.93241,164.989587 C1005.96537,164.989587 1011.26322,164.45851 1016.29618,163.661894 C1020.53446,162.865278 1024.77274,161.537585 1029.01103,159.678815 L1032.98441,183.046209 C1031.13017,184.108363 1029.01103,184.63944 1026.89188,185.436056 C1023.97807,186.232672 1021.06425,187.029287 1018.15043,187.294826 C1014.97172,187.825903 1011.79301,188.35698 1008.08451,188.888057 C1004.64091,189.153596 1000.93241,189.419134 997.223914,189.419134 C989.012244,189.684673 981.065466,188.35698 973.383581,185.436056 C967.026159,183.046209 961.463414,179.328669 956.695348,174.548975 C952.192174,169.769281 949.013462,163.927432 946.894322,157.820046 C944.775181,150.650504 943.715611,143.480963 943.980503,136.576961 M1010.99833,125.68988 C1010.99833,123.300033 1010.46854,120.910185 1009.67387,118.520338 C1009.14408,116.130491 1007.81962,114.271721 1006.49516,112.412952 C1004.9058,110.554182 1003.05155,108.96095 1000.93241,107.898796 C998.283485,106.571103 995.634559,106.040026 992.72074,106.040026 C989.806922,106.040026 987.157996,106.571103 984.50907,107.898796 C982.389929,108.96095 980.535681,110.288643 978.946325,112.147413 C977.35697,114.006183 976.032507,116.130491 975.237829,118.520338 C974.443151,120.910185 973.913366,123.300033 973.648474,125.68988 L1010.99833,125.68988 M835.37454,88.514481 C841.46707,86.9212496 847.824492,85.5935568 854.181914,84.5314025 C862.128692,83.2037097 870.340363,82.6726326 878.28714,82.6726326 C885.43924,82.407094 892.59134,83.7347869 899.478548,86.1246339 C904.7764,87.9834038 909.544466,91.1698666 912.98807,95.4184836 C916.431674,99.6671006 918.815707,104.712333 920.14017,110.023104 C921.729525,116.130491 922.259311,122.503417 922.259311,128.876342 L922.259311,185.967133 L893.915803,185.967133 L893.915803,132.593882 C893.915803,123.300033 892.59134,116.927107 890.207307,112.944029 C887.823274,109.226489 883.3201,107.10218 876.697785,107.10218 C874.578644,107.10218 872.459503,107.10218 870.07547,107.367719 C867.691437,107.367719 865.837188,107.633257 863.98294,107.898796 L863.98294,185.967133 L835.37454,185.967133 L835.37454,88.514481 M815.242703,110.554182 C812.593777,110.023104 809.679959,109.226489 806.236355,108.695412 C802.527859,107.898796 798.819363,107.633257 795.110866,107.633257 C792.991726,107.633257 790.872585,107.898796 788.488551,108.164335 C786.634303,108.429873 784.780055,108.695412 782.925807,109.226489 L782.925807,186.49821 L754.317407,186.49821 L754.317407,90.3732509 C760.145044,88.2489424 766.237574,86.655711 772.330103,85.3280182 C780.011989,83.4692483 787.958766,82.6726326 795.640651,82.9381712 C797.4949,82.9381712 799.349148,83.2037097 801.203396,83.2037097 C803.322537,83.2037097 805.441677,83.4692483 807.825711,84.0003254 C809.944851,84.265864 812.063992,84.5314025 814.448026,85.0624797 C816.302274,85.3280182 818.156522,85.8590953 820.01077,86.655711 L815.242703,110.554182 M637.499774,136.576961 C637.234881,128.610804 638.824237,120.644647 641.473163,113.209567 C643.857196,106.836642 647.565692,101.260332 652.333759,96.2150993 C656.836933,91.7009437 661.869892,88.2489424 667.697529,86.1246339 C673.525166,83.7347869 679.617696,82.6726326 685.710226,82.6726326 C700.014426,82.6726326 711.404807,87.1867882 719.616477,95.9495607 C727.828148,104.712333 732.066429,117.723723 732.066429,134.452652 C732.066429,136.045884 732.066429,137.904653 731.801537,140.028962 C731.536644,142.15327 731.536644,143.746502 731.536644,145.339733 L666.637959,145.339733 C667.167744,150.916043 670.081563,156.226814 674.849629,159.413277 C680.677266,163.130817 687.564474,164.989587 694.451681,164.724048 C699.48464,164.724048 704.782492,164.192971 709.815452,163.396355 C714.053733,162.59974 718.292015,161.272047 722.265403,159.678815 L726.238792,183.046209 C724.384544,184.108363 722.265403,184.63944 720.146263,185.436056 C717.232444,186.232672 714.318626,187.029287 711.404807,187.294826 C708.226096,187.825903 705.047385,188.35698 701.338889,188.888057 C697.895285,189.153596 694.186789,189.419134 690.478292,189.419134 C682.266622,189.684673 674.319844,188.35698 666.637959,185.436056 C660.280537,183.046209 654.717792,179.328669 649.949726,174.548975 C645.446552,169.769281 642.26784,163.927432 640.1487,157.820046 C638.559344,150.650504 637.499774,143.746502 637.499774,136.576961 M704.782492,125.68988 C704.782492,123.300033 704.252707,120.910185 703.458029,118.520338 C702.928244,116.130491 701.603781,114.271721 700.279318,112.412952 C698.689963,110.554182 696.835715,108.96095 694.716574,107.898796 C692.067648,106.571103 689.418722,106.040026 686.504903,106.040026 C683.591085,106.040026 680.942159,106.571103 678.293233,107.898796 C676.174092,108.96095 674.054952,110.288643 672.465596,112.147413 C670.87624,114.006183 669.551778,116.130491 668.7571,118.520338 C667.962422,120.910185 667.432637,123.300033 667.167744,125.68988 L704.782492,125.68988 M591.14357,134.983729 C591.14357,116.39603 584.256363,107.367719 570.746841,107.367719 C567.833022,107.367719 564.919204,107.633257 562.005385,108.429873 C559.621352,108.96095 557.237318,110.023104 555.118178,111.350797 L555.118178,163.396355 C556.442641,163.661894 558.296889,163.927432 560.416029,164.192971 C562.53517,164.45851 564.919204,164.45851 567.568129,164.45851 C574.455337,164.989587 581.077652,162.068663 585.315933,156.492353 C589.289322,150.119427 591.408463,142.684348 591.14357,134.983729 M620.281755,136.045884 C620.281755,143.480963 619.222185,150.916043 616.573259,158.085584 C614.454118,164.45851 611.010515,170.034819 606.507341,174.814514 C601.739274,179.594208 596.176529,183.311747 590.084,185.701595 C582.9319,188.35698 575.514907,189.419134 567.833022,189.419134 C564.389418,189.419134 560.680922,189.153596 556.972426,188.888057 C553.263929,188.622519 549.555433,188.091442 545.846937,187.825903 C542.403333,187.294826 538.959729,186.763749 535.516126,185.967133 C532.072522,185.436056 529.158704,184.63944 526.77467,183.577286 L526.77467,41.5141555 L555.38307,37 L555.38307,87.4523267 C558.561781,86.1246339 562.005385,85.0624797 565.448989,84.265864 C569.157485,83.4692483 572.865981,83.2037097 576.574478,83.2037097 C583.196792,83.2037097 589.554215,84.265864 595.646744,87.1867882 C600.944596,89.5766352 605.712663,93.2941751 609.421159,97.8083306 C613.394548,102.853563 616.308366,108.429873 617.897722,114.53726 C619.487078,121.175724 620.281755,128.610804 620.281755,136.045884 M499.490733,182.78067 C493.398204,184.373902 487.040781,185.701595 480.683359,186.49821 C472.736581,187.825903 464.524911,188.35698 456.578133,188.35698 C449.161141,188.622519 442.009041,187.294826 435.121833,184.904979 C429.823981,182.78067 425.320807,179.594208 421.612311,175.345591 C418.168707,170.831435 415.784674,165.786202 414.460211,160.209893 C412.870855,154.102506 412.34107,147.464042 412.34107,141.091116 L412.34107,85.0624797 L440.94947,85.0624797 L440.94947,137.904653 C440.94947,147.198503 442.273933,153.836967 444.657967,157.820046 C447.042,161.803124 451.545174,163.927432 458.167489,163.927432 C460.28663,163.927432 462.40577,163.927432 464.789804,163.661894 C467.173837,163.396355 469.028085,163.396355 470.882333,162.865278 L470.882333,85.0624797 L499.490733,85.0624797 L499.490733,182.78067 M332.6084,121.706801 C335.522218,118.520338 338.171144,115.333876 341.349856,112.147413 C344.263674,108.695412 347.177493,105.508949 350.091311,102.322486 C353.00513,98.8704849 355.654056,95.9495607 358.038089,93.0286365 C360.422122,90.1077123 362.806156,87.4523267 364.660404,85.3280182 L398.566655,85.3280182 C391.679448,93.0286365 385.057133,100.729255 378.699711,107.898796 C372.077396,115.068337 365.190189,122.503417 357.508304,129.938497 C361.746585,133.921575 365.719974,137.904653 369.42847,142.418809 C373.401859,147.198503 377.375248,151.978197 381.348637,157.288968 C385.057133,162.334201 388.76563,167.644972 391.944341,172.690205 C395.123052,177.735438 397.771978,182.515132 399.891118,186.763749 L367.044437,186.763749 C364.925296,183.311747 362.541263,179.859746 359.892337,175.876668 C357.243411,171.893589 354.329593,167.910511 351.680667,163.661894 C348.766848,159.678815 345.588137,155.695737 342.144533,151.978197 C339.230715,148.526196 336.052004,145.339733 332.6084,142.684348 L332.6084,187.029287 L304,187.029287 L304,41.5141555 L332.6084,37 L332.6084,121.706801" id="path3003" fill="#000000"></path>
        </g>
    </g>
</svg>