<?xml version="1.0" encoding="UTF-8"?>
<svg width="408px" height="244px" viewBox="0 0 408 244" version="1.1" xmlns="http://www.w3.org/2000/svg" xmlns:xlink="http://www.w3.org/1999/xlink">
    <!-- Generator: Sketch 64 (93537) - https://sketch.com -->
    <title>logo-aws</title>
    <desc>Created with Sketch.</desc>
    <g id="logo-aws" stroke="none" stroke-width="1" fill="none" fill-rule="evenodd">
        <g id="Amazon_Web_Services_Logo">
            <path d="M115.042785,88.2244681 C115.042785,93.2234043 115.585207,97.2765957 116.534445,100.248936 C117.619289,103.221277 118.975344,106.46383 120.873822,109.976596 C121.551849,111.057447 121.82306,112.138298 121.82306,113.084043 C121.82306,114.435106 121.009427,115.78617 119.246555,117.137234 L110.703408,122.811702 C109.482959,123.62234 108.262509,124.02766 107.177665,124.02766 C105.82161,124.02766 104.465555,123.352128 103.1095,122.13617 C101.211022,120.109574 99.5837563,117.947872 98.2277012,115.78617 C96.8716461,113.489362 95.515591,110.92234 94.0239304,107.814894 C83.4467005,120.244681 70.1573604,126.459574 54.1559101,126.459574 C42.7650471,126.459574 33.6794779,123.217021 27.0348078,116.731915 C20.3901378,110.246809 17,101.6 17,90.7914894 C17,79.3074468 21.0681653,69.9851064 29.3401015,62.9595745 C37.6120377,55.9340426 48.5960841,52.4212766 62.5634518,52.4212766 C67.1740392,52.4212766 71.9202321,52.8265957 76.937636,53.5021277 C81.9550399,54.1776596 87.1080493,55.2585106 92.5322698,56.4744681 L92.5322698,46.6117021 C92.5322698,36.343617 90.3625816,29.1829787 86.1588107,24.9946809 C81.8194344,20.806383 74.4967368,18.7797872 64.0551124,18.7797872 C59.3089195,18.7797872 54.4271211,19.3202128 49.4097172,20.5361702 C44.3923133,21.7521277 39.5105149,23.2382979 34.764322,25.1297872 C32.5946338,26.0755319 30.9673677,26.6159574 30.0181291,26.8861702 C29.0688905,27.156383 28.3908629,27.2914894 27.8484409,27.2914894 C25.9499637,27.2914894 25.0007252,25.9404255 25.0007252,23.1031915 L25.0007252,16.4829787 C25.0007252,14.3212766 25.2719362,12.7 25.9499637,11.7542553 C26.6279913,10.8085106 27.8484409,9.86276596 29.7469181,8.91702128 C34.4931109,6.48510638 40.1885424,4.45851064 46.8332125,2.83723404 C53.4778825,1.08085106 60.5293691,0.270212766 67.9876722,0.270212766 C84.1247281,0.270212766 95.9224075,3.91808511 103.516316,11.2138298 C110.974619,18.5095745 114.771574,29.5882979 114.771574,44.45 L114.771574,88.2244681 L115.042785,88.2244681 Z M59.9869471,108.760638 C64.4619289,108.760638 69.0725163,107.95 73.9543147,106.328723 C78.8361131,104.707447 83.1754895,101.735106 86.8368383,97.6819149 C89.0065265,95.1148936 90.6337926,92.2776596 91.4474257,89.0351064 C92.2610587,85.7925532 92.8034808,81.8744681 92.8034808,77.2808511 L92.8034808,71.606383 C88.870921,70.6606383 84.6671501,69.85 80.3277737,69.3095745 C75.9883974,68.7691489 71.7846265,68.4989362 67.5808557,68.4989362 C58.4952864,68.4989362 51.8506164,70.2553191 47.3756345,73.9031915 C42.9006526,77.5510638 40.7309645,82.6851064 40.7309645,89.4404255 C40.7309645,95.7904255 42.3582306,100.519149 45.7483684,103.761702 C49.0029007,107.139362 53.7490935,108.760638 59.9869471,108.760638 Z M168.878173,123.352128 C166.437273,123.352128 164.810007,122.946809 163.725163,122.001064 C162.640319,121.190426 161.69108,119.298936 160.877447,116.731915 L129.010152,12.2946809 C128.196519,9.59255319 127.789703,7.83617021 127.789703,6.89042553 C127.789703,4.7287234 128.874547,3.51276596 131.044235,3.51276596 L144.333575,3.51276596 C146.91008,3.51276596 148.672951,3.91808511 149.62219,4.86382979 C150.707034,5.67446809 151.520667,7.56595745 152.3343,10.1329787 L175.116026,99.5734043 L196.270486,10.1329787 C196.948513,7.43085106 197.762146,5.67446809 198.846991,4.86382979 C199.931835,4.05319149 201.830312,3.51276596 204.271211,3.51276596 L215.119652,3.51276596 C217.696157,3.51276596 219.459028,3.91808511 220.543872,4.86382979 C221.628716,5.67446809 222.577955,7.56595745 223.120377,10.1329787 L244.546048,100.654255 L268.005801,10.1329787 C268.819434,7.43085106 269.768673,5.67446809 270.717912,4.86382979 C271.802756,4.05319149 273.565627,3.51276596 276.006526,3.51276596 L288.617839,3.51276596 C290.787527,3.51276596 292.007977,4.59361702 292.007977,6.89042553 C292.007977,7.56595745 291.872371,8.24148936 291.736766,9.05212766 C291.60116,9.86276596 291.329949,10.943617 290.787527,12.4297872 L258.106599,116.867021 C257.292966,119.569149 256.343727,121.325532 255.258883,122.13617 C254.174039,122.946809 252.411168,123.487234 250.105874,123.487234 L238.4438,123.487234 C235.867295,123.487234 234.104423,123.081915 233.019579,122.13617 C231.934735,121.190426 230.985497,119.434043 230.443075,116.731915 L209.42422,29.5882979 L188.540972,116.596809 C187.862944,119.298936 187.049311,121.055319 185.964467,122.001064 C184.879623,122.946809 182.981146,123.352128 180.540247,123.352128 L168.878173,123.352128 Z M343.131255,127 C336.079768,127 329.028281,126.189362 322.248006,124.568085 C315.46773,122.946809 310.179115,121.190426 306.653372,119.16383 C304.483684,117.947872 302.992023,116.596809 302.449601,115.380851 C301.907179,114.164894 301.635968,112.81383 301.635968,111.597872 L301.635968,104.707447 C301.635968,101.870213 302.720812,100.519149 304.754895,100.519149 C305.568528,100.519149 306.382161,100.654255 307.195794,100.924468 C308.009427,101.194681 309.229877,101.735106 310.585932,102.275532 C315.196519,104.302128 320.213923,105.923404 325.502538,107.004255 C330.926759,108.085106 336.215373,108.625532 341.639594,108.625532 C350.182741,108.625532 356.827411,107.139362 361.437999,104.167021 C366.048586,101.194681 368.489485,96.8712766 368.489485,91.3319149 C368.489485,87.5489362 367.269036,84.4414894 364.828136,81.8744681 C362.387237,79.3074468 357.77665,77.0106383 351.13198,74.8489362 L331.469181,68.7691489 C321.569978,65.6617021 314.247281,61.0680851 309.772299,54.9882979 C305.297317,49.043617 302.992023,42.4234043 302.992023,35.3978723 C302.992023,29.7234043 304.212473,24.7244681 306.653372,20.4010638 C309.094271,16.0776596 312.348803,12.2946809 316.416969,9.32234043 C320.485134,6.21489362 325.095722,3.91808511 330.519942,2.29680851 C335.944162,0.675531915 341.639594,0 347.606236,0 C350.589558,0 353.708484,0.135106383 356.691806,0.540425532 C359.810732,0.945744681 362.658448,1.48617021 365.506164,2.02659574 C368.218274,2.70212766 370.794779,3.37765957 373.235678,4.18829787 C375.676577,4.99893617 377.575054,5.80957447 378.931109,6.62021277 C380.829587,7.70106383 382.185642,8.78191489 382.999275,9.99787234 C383.812908,11.0787234 384.219724,12.5648936 384.219724,14.456383 L384.219724,20.806383 C384.219724,23.643617 383.13488,25.1297872 381.100798,25.1297872 C380.015954,25.1297872 378.253082,24.5893617 375.947788,23.5085106 C368.218274,19.9957447 359.539521,18.2393617 349.91153,18.2393617 C342.182016,18.2393617 336.079768,19.4553191 331.875997,22.0223404 C327.672226,24.5893617 325.502538,28.5074468 325.502538,34.0468085 C325.502538,37.8297872 326.858593,41.0723404 329.570703,43.6393617 C332.282814,46.206383 337.300218,48.7734043 344.48731,51.0702128 L363.743292,57.15 C373.506889,60.2574468 380.558376,64.5808511 384.762146,70.1202128 C388.965917,75.6595745 391,82.0095745 391,89.0351064 C391,94.8446809 389.77955,100.11383 387.474257,104.707447 C385.033358,109.301064 381.778825,113.354255 377.575054,116.596809 C373.371284,119.974468 368.35388,122.406383 362.522843,124.162766 C356.420595,126.054255 350.047136,127 343.131255,127 Z" id="Shape" fill="#252F3E" fill-rule="nonzero"></path>
            <g id="Group" transform="translate(0.000000, 152.000000)" fill="#FF9900">
                <path d="M368.721645,41.5352941 C324.118006,74.4117647 259.313935,91.8647059 203.59328,91.8647059 C125.503018,91.8647059 55.1404392,63.0470588 1.99567794,15.1529412 C-2.20709655,11.3647059 1.58895783,6.22352941 6.60517253,9.2 C64.0882816,42.4823529 134.993154,62.6411765 208.338348,62.6411765 C257.822628,62.6411765 312.18755,52.3588235 362.214123,31.2529412 C369.670659,27.8705882 376.042607,36.1235294 368.721645,41.5352941 Z" id="Path"></path>
                <path d="M387.295197,20.4294118 C381.601115,13.1235294 349.6058,16.9117647 335.099449,18.6705882 C330.761101,19.2117647 330.083235,15.4235294 334.014862,12.5823529 C359.502656,-5.27647059 401.394827,-0.135294118 406.275469,5.81764706 C411.15611,11.9058824 404.919735,53.7117647 381.058822,73.7352941 C377.398341,76.8470588 373.873433,75.2235294 375.500314,71.1647059 C380.923249,57.7705882 392.989278,27.6 387.295197,20.4294118 Z" id="Path"></path>
            </g>
        </g>
    </g>
</svg>