<?xml version="1.0" encoding="UTF-8"?>
<svg width="1473px" height="339px" viewBox="0 0 1473 339" version="1.1" xmlns="http://www.w3.org/2000/svg" xmlns:xlink="http://www.w3.org/1999/xlink">
    <!-- Generator: Sketch 64 (93537) - https://sketch.com -->
    <title>logo-docker</title>
    <desc>Created with Sketch.</desc>
    <defs>
        <path d="M95.7302326,0 L95.7302326,107.223022 L44.3627907,107.223022 L44.3627907,160.834532 L1.35595337,160.834532 C1.17341216,162.386222 1.02560234,163.941364 0.875581395,165.496403 C-1.81224802,194.705266 3.29550625,221.642913 15.030814,244.67536 L18.9709302,251.741007 C21.3324386,255.975804 24.0872232,259.952822 26.997093,263.832734 C29.9033812,267.707867 30.9330439,269.852654 32.7613372,272.428058 C63.7888155,307.24251 110.041839,324 163.44186,324 C281.699892,324 382.064005,271.698498 426.481105,154.205935 C457.994493,157.434211 488.223439,149.367165 502,122.519784 C480.055292,109.877572 451.850504,113.929649 435.601744,122.082734 L478.651163,0 L310.539535,107.223022 L256.837209,107.223022 L256.837209,0 L95.7302326,0 Z" id="path-1"></path>
        <path d="M95.7302326,0 L95.7302326,107.223022 L44.3627907,107.223022 L44.3627907,160.834532 L1.35595337,160.834532 C1.17341216,162.386222 1.02560234,163.941364 0.875581395,165.496403 C-1.81224802,194.705266 3.29550625,221.642913 15.030814,244.67536 L18.9709302,251.741007 C21.3324386,255.975804 24.0872232,259.952822 26.997093,263.832734 C29.9033812,267.707867 30.9330439,269.852654 32.7613372,272.428058 C63.7888155,307.24251 110.041839,324 163.44186,324 C281.699892,324 382.064005,271.698498 426.481105,154.205935 C457.994493,157.434211 488.223439,149.367165 502,122.519784 C480.055292,109.877572 451.850504,113.929649 435.601744,122.082734 L478.651163,0 L310.539535,107.223022 L256.837209,107.223022 L256.837209,0 L95.7302326,0 Z" id="path-3"></path>
        <path d="M95.7302326,0 L95.7302326,107.223022 L44.3627907,107.223022 L44.3627907,160.834532 L1.35595337,160.834532 C1.17341216,162.386222 1.02560234,163.941364 0.875581395,165.496403 C-1.81224802,194.705266 3.29550625,221.642913 15.030814,244.67536 L18.9709302,251.741007 C21.3324386,255.975804 24.0872232,259.952822 26.997093,263.832734 C29.9033812,267.707867 30.9330439,269.852654 32.7613372,272.428058 C63.7888155,307.24251 110.041839,324 163.44186,324 C281.699892,324 382.064005,271.698498 426.481105,154.205935 C457.994493,157.434211 488.223439,149.367165 502,122.519784 C480.055292,109.877572 451.850504,113.929649 435.601744,122.082734 L478.651163,0 L310.539535,107.223022 L256.837209,107.223022 L256.837209,0 L95.7302326,0 Z" id="path-5"></path>
        <path d="M95.7302326,0 L95.7302326,107.223022 L44.3627907,107.223022 L44.3627907,160.834532 L1.35595337,160.834532 C1.17341216,162.386222 1.02560234,163.941364 0.875581395,165.496403 C-1.81224802,194.705266 3.29550625,221.642913 15.030814,244.67536 L18.9709302,251.741007 C21.3324386,255.975804 24.0872232,259.952822 26.997093,263.832734 C29.9033812,267.707867 30.9330439,269.852654 32.7613372,272.428058 C63.7888155,307.24251 110.041839,324 163.44186,324 C281.699892,324 382.064005,271.698498 426.481105,154.205935 C457.994493,157.434211 488.223439,149.367165 502,122.519784 C480.055292,109.877572 451.850504,113.929649 435.601744,122.082734 L478.651163,0 L310.539535,107.223022 L256.837209,107.223022 L256.837209,0 L95.7302326,0 Z" id="path-7"></path>
        <path d="M95.7302326,0 L95.7302326,107.223022 L44.3627907,107.223022 L44.3627907,160.834532 L1.35595337,160.834532 C1.17341216,162.386222 1.02560234,163.941364 0.875581395,165.496403 C-1.81224802,194.705266 3.29550625,221.642913 15.030814,244.67536 L18.9709302,251.741007 C21.3324386,255.975804 24.0872232,259.952822 26.997093,263.832734 C29.9033812,267.707867 30.9330439,269.852654 32.7613372,272.428058 C63.7888155,307.24251 110.041839,324 163.44186,324 C281.699892,324 382.064005,271.698498 426.481105,154.205935 C457.994493,157.434211 488.223439,149.367165 502,122.519784 C480.055292,109.877572 451.850504,113.929649 435.601744,122.082734 L478.651163,0 L310.539535,107.223022 L256.837209,107.223022 L256.837209,0 L95.7302326,0 Z" id="path-9"></path>
    </defs>
    <g id="logo-docker" stroke="none" stroke-width="1" fill="none" fill-rule="evenodd">
        <g id="Docker_(container_engine)_logo">
            <path d="M1094.03207,265.200745 L1093.93345,205.372996 L1093.63698,98.4952659 M1154.05247,144.554711 L1093.93362,205.372996 L1154.34913,265.398853 M751.611745,206.165418 C751.901904,193.335241 748.178908,180.22518 740.636102,169.615016 C729.767088,154.326016 712.175902,143.887869 692.8772,143.663238 C691.590587,143.663238 690.31706,143.663238 689.02089,143.76214 C681.391717,144.234295 674.003233,145.296298 667.465107,148.021401 C624.466852,165.943137 616.848335,225.757075 653.12755,252.819019 C684.545074,276.254427 730.245218,266.685541 746.074489,230.92841 C749.419462,223.372332 751.611745,213.84674 751.611745,206.165343 L751.611745,98 M1041.72771,150.795022 C1032.82471,145.032257 1022.43854,142.953228 1012.16268,142.96977 C1011.04842,142.96977 1009.90281,143.025652 1008.89965,143.068771 C979.192331,144.348691 951.648292,165.378137 951.648292,206.165265 C951.648292,254.387983 1003.2635,280.414154 1041.8266,257.672605 M1215.06385,252.422819 C1245.44694,226.351329 1306.32982,174.07239 1306.32982,174.07239 C1306.32982,174.07239 1304.11012,169.865492 1302.67127,167.931125 C1290.38586,151.415049 1271.617,143.167886 1251.84711,143.167886 C1202.98786,143.167886 1166.36373,206.456941 1215.06385,252.422822 C1218.43586,255.605498 1223.06789,258.098342 1228.21485,260.247967 C1246.08538,267.711518 1270.54941,267.099356 1283.78524,257.276391 M851.473337,143.366079 C850.088298,143.39143 848.711392,143.538507 847.320395,143.564187 C810.271185,144.246208 783.558412,182.79532 791.65111,218.546991 C799.53726,253.386141 837.531701,274.016081 870.359361,262.625385 C908.585939,252.584742 924.177044,204.36393 903.187418,171.794176 C891.707707,153.980964 872.250081,142.97052 851.473337,143.366081 L851.473337,143.366079 Z M1414,144.554709 C1398.99753,144.594972 1384.3865,149.858698 1373.55822,160.006911 C1356.48173,174.125474 1352.77369,191.953786 1352.99122,214.48585 L1353.48562,265.696044" id="path12" stroke="#394D54" stroke-width="10.5" stroke-linecap="round" stroke-linejoin="round"></path>
            <path d="M344.6231,107.050408 L398.057459,107.050408 L398.057459,161.767015 L425.075554,161.767015 C437.552101,161.767015 450.38532,159.540474 462.201053,155.529975 C468.006904,153.557954 474.523648,150.813665 480.250677,147.362301 C472.707684,137.49714 468.856699,125.040617 467.722814,112.762139 C466.183439,96.0619463 469.546303,74.3244905 480.830122,61.2536928 L486.447016,54.7458715 L493.140215,60.1354153 C509.992111,73.6976592 524.164485,92.6481993 526.662528,114.251501 C546.953657,108.272727 570.77658,109.686855 588.662252,120.027184 L596,124.268372 L592.137752,131.819234 C577.011594,161.391997 545.389091,170.552592 514.472456,168.931593 C468.209532,284.35486 367.489856,339 245.367739,339 C182.275425,339 124.389497,315.374513 91.426609,259.301434 C89.4939939,255.818304 87.8390034,252.176138 86.0838134,248.598812 C74.9414106,223.916474 71.2406268,196.877239 73.7512027,169.860571 L74.5046258,161.768103 L120.196861,161.768103 L120.196861,107.051497 L173.63122,107.051497 L173.63122,53.5257484 L280.499937,53.5257484 L280.499937,0 L344.622266,0 L344.622266,107.051497" id="path14" fill="#394D54" fill-rule="nonzero"></path>
            <g id="g16-Clipped" transform="translate(82.000000, 5.000000)">
                <mask id="mask-2" fill="white">
                    <use xlink:href="#path-1"></use>
                </mask>
                <g id="path10"></g>
                <g id="g16" mask="url(#mask-2)">
                    <g transform="translate(-7.880233, -52.152051)">
                        <g id="g18" transform="translate(214.809302, 0.000000)">
                            <g id="g20" transform="translate(0.000000, 2.643281)" fill-rule="nonzero">
                                <polygon id="path22" fill="#00ACD3" points="0.54638614 0.431114106 46.8179676 0.431114106 46.8179676 46.6231895 0.54638614 46.6231895"></polygon>
                                <polygon id="path24" fill="#20C2EF" points="0.54638614 53.7288941 46.8179676 53.7288941 46.8179676 99.9234691 0.54638614 99.9234691"></polygon>
                                <g id="use28" transform="translate(4.669767, 56.501577)" fill="#000000" stroke="#394D54" stroke-width="1.56">
                                    <path d="M1.55818465,39.572064 L1.55818465,1.07492198 M8.49710884,39.572064 L8.49710884,1.07492198 M15.5060562,39.572064 L15.5060562,1.07492198 M22.5187393,39.572064 L22.5187393,1.07492198 M29.5302084,39.572064 L29.5302084,1.07492198 M36.4678717,39.572064 L36.4678717,1.07492198" id="path26"></path>
                                </g>
                            </g>
                            <g id="use30" transform="translate(77.467940, 52.226899) scale(-1, 1) rotate(-180.000000) translate(-77.467940, -52.226899) translate(53.389451, 1.145818)" fill-rule="nonzero">
                                <g id="g20" transform="translate(0.000000, 0.312345)">
                                    <polygon id="path22" fill="#00ACD3" points="0.54638614 0.431114106 46.8179676 0.431114106 46.8179676 46.6231895 0.54638614 46.6231895"></polygon>
                                    <polygon id="path24" fill="#20C2EF" points="0.54638614 53.7288941 46.8179676 53.7288941 46.8179676 99.9234691 0.54638614 99.9234691"></polygon>
                                    <path d="M6.22795209,42.774475 L6.22795209,4.27733302 M13.1668763,42.774475 L13.1668763,4.27733302 M20.1758236,42.774475 L20.1758236,4.27733302 M27.1885068,42.774475 L27.1885068,4.27733302 M34.1999758,42.774475 L34.1999758,4.27733302 M41.1376392,42.774475 L41.1376392,4.27733302" id="path26" stroke="#394D54" stroke-width="1.56" fill="#000000"></path>
                                </g>
                            </g>
                        </g>
                        <g id="use32" transform="translate(1.251498, 106.598331)">
                            <g id="g18" fill-rule="nonzero">
                                <g id="g20" transform="translate(0.000000, 2.643281)">
                                    <polygon id="path22" fill="#00ACD3" points="0.54638614 0.431114106 46.8179676 0.431114106 46.8179676 46.6231895 0.54638614 46.6231895"></polygon>
                                    <polygon id="path24" fill="#20C2EF" points="0.54638614 53.7288941 46.8179676 53.7288941 46.8179676 99.9234691 0.54638614 99.9234691"></polygon>
                                    <path d="M6.22795209,42.774475 L6.22795209,4.27733302 M13.1668763,42.774475 L13.1668763,4.27733302 M20.1758236,42.774475 L20.1758236,4.27733302 M27.1885068,42.774475 L27.1885068,4.27733302 M34.1999758,42.774475 L34.1999758,4.27733302 M41.1376392,42.774475 L41.1376392,4.27733302" id="path26" stroke="#394D54" stroke-width="1.56" fill="#000000"></path>
                                    <g id="use28" transform="translate(4.669767, 56.501577)" fill="#000000" stroke="#394D54" stroke-width="1.56">
                                        <path d="M1.55818465,39.572064 L1.55818465,1.07492198 M8.49710884,39.572064 L8.49710884,1.07492198 M15.5060562,39.572064 L15.5060562,1.07492198 M22.5187393,39.572064 L22.5187393,1.07492198 M29.5302084,39.572064 L29.5302084,1.07492198 M36.4678717,39.572064 L36.4678717,1.07492198" id="path26"></path>
                                    </g>
                                </g>
                                <g id="use30" transform="translate(77.467940, 52.226899) scale(-1, 1) rotate(-180.000000) translate(-77.467940, -52.226899) translate(53.389451, 1.145818)">
                                    <g id="g20" transform="translate(0.000000, 0.312345)">
                                        <polygon id="path22" fill="#00ACD3" points="0.54638614 0.431114106 46.8179676 0.431114106 46.8179676 46.6231895 0.54638614 46.6231895"></polygon>
                                        <polygon id="path24" fill="#20C2EF" points="0.54638614 53.7288941 46.8179676 53.7288941 46.8179676 99.9234691 0.54638614 99.9234691"></polygon>
                                        <path d="M6.22795209,42.774475 L6.22795209,4.27733302 M13.1668763,42.774475 L13.1668763,4.27733302 M20.1758236,42.774475 L20.1758236,4.27733302 M27.1885068,42.774475 L27.1885068,4.27733302 M34.1999758,42.774475 L34.1999758,4.27733302 M41.1376392,42.774475 L41.1376392,4.27733302" id="path26" stroke="#394D54" stroke-width="1.56" fill="#000000"></path>
                                        <g id="use28" transform="translate(4.669767, 56.501577)" fill="#000000" stroke="#394D54" stroke-width="1.56">
                                            <path d="M1.55818465,39.572064 L1.55818465,1.07492198 M8.49710884,39.572064 L8.49710884,1.07492198 M15.5060562,39.572064 L15.5060562,1.07492198 M22.5187393,39.572064 L22.5187393,1.07492198 M29.5302084,39.572064 L29.5302084,1.07492198 M36.4678717,39.572064 L36.4678717,1.07492198" id="path26"></path>
                                        </g>
                                    </g>
                                </g>
                            </g>
                        </g>
                        <g id="use34" transform="translate(108.030400, 106.598331)">
                            <g id="g18" fill-rule="nonzero">
                                <g id="g20" transform="translate(0.000000, 2.643281)">
                                    <polygon id="path22" fill="#00ACD3" points="0.54638614 0.431114106 46.8179676 0.431114106 46.8179676 46.6231895 0.54638614 46.6231895"></polygon>
                                    <polygon id="path24" fill="#20C2EF" points="0.54638614 53.7288941 46.8179676 53.7288941 46.8179676 99.9234691 0.54638614 99.9234691"></polygon>
                                    <path d="M6.22795209,42.774475 L6.22795209,4.27733302 M13.1668763,42.774475 L13.1668763,4.27733302 M20.1758236,42.774475 L20.1758236,4.27733302 M27.1885068,42.774475 L27.1885068,4.27733302 M34.1999758,42.774475 L34.1999758,4.27733302 M41.1376392,42.774475 L41.1376392,4.27733302" id="path26" stroke="#394D54" stroke-width="1.56" fill="#000000"></path>
                                    <g id="use28" transform="translate(4.669767, 56.501577)" fill="#000000" stroke="#394D54" stroke-width="1.56">
                                        <path d="M1.55818465,39.572064 L1.55818465,1.07492198 M8.49710884,39.572064 L8.49710884,1.07492198 M15.5060562,39.572064 L15.5060562,1.07492198 M22.5187393,39.572064 L22.5187393,1.07492198 M29.5302084,39.572064 L29.5302084,1.07492198 M36.4678717,39.572064 L36.4678717,1.07492198" id="path26"></path>
                                    </g>
                                </g>
                                <g id="use30" transform="translate(77.467940, 52.226899) scale(-1, 1) rotate(-180.000000) translate(-77.467940, -52.226899) translate(53.389451, 1.145818)">
                                    <g id="g20" transform="translate(0.000000, 0.312345)">
                                        <polygon id="path22" fill="#00ACD3" points="0.54638614 0.431114106 46.8179676 0.431114106 46.8179676 46.6231895 0.54638614 46.6231895"></polygon>
                                        <polygon id="path24" fill="#20C2EF" points="0.54638614 53.7288941 46.8179676 53.7288941 46.8179676 99.9234691 0.54638614 99.9234691"></polygon>
                                        <path d="M6.22795209,42.774475 L6.22795209,4.27733302 M13.1668763,42.774475 L13.1668763,4.27733302 M20.1758236,42.774475 L20.1758236,4.27733302 M27.1885068,42.774475 L27.1885068,4.27733302 M34.1999758,42.774475 L34.1999758,4.27733302 M41.1376392,42.774475 L41.1376392,4.27733302" id="path26" stroke="#394D54" stroke-width="1.56" fill="#000000"></path>
                                        <g id="use28" transform="translate(4.669767, 56.501577)" fill="#000000" stroke="#394D54" stroke-width="1.56">
                                            <path d="M1.55818465,39.572064 L1.55818465,1.07492198 M8.49710884,39.572064 L8.49710884,1.07492198 M15.5060562,39.572064 L15.5060562,1.07492198 M22.5187393,39.572064 L22.5187393,1.07492198 M29.5302084,39.572064 L29.5302084,1.07492198 M36.4678717,39.572064 L36.4678717,1.07492198" id="path26"></path>
                                        </g>
                                    </g>
                                </g>
                            </g>
                        </g>
                        <g id="use36" transform="translate(214.809302, 106.598331)">
                            <g id="g18" fill-rule="nonzero">
                                <g id="g20" transform="translate(0.000000, 2.643281)">
                                    <polygon id="path22" fill="#00ACD3" points="0.54638614 0.431114106 46.8179676 0.431114106 46.8179676 46.6231895 0.54638614 46.6231895"></polygon>
                                    <polygon id="path24" fill="#20C2EF" points="0.54638614 53.7288941 46.8179676 53.7288941 46.8179676 99.9234691 0.54638614 99.9234691"></polygon>
                                    <path d="M6.22795209,42.774475 L6.22795209,4.27733302 M13.1668763,42.774475 L13.1668763,4.27733302 M20.1758236,42.774475 L20.1758236,4.27733302 M27.1885068,42.774475 L27.1885068,4.27733302 M34.1999758,42.774475 L34.1999758,4.27733302 M41.1376392,42.774475 L41.1376392,4.27733302" id="path26" stroke="#394D54" stroke-width="1.56" fill="#000000"></path>
                                    <g id="use28" transform="translate(4.669767, 56.501577)" fill="#000000" stroke="#394D54" stroke-width="1.56">
                                        <path d="M1.55818465,39.572064 L1.55818465,1.07492198 M8.49710884,39.572064 L8.49710884,1.07492198 M15.5060562,39.572064 L15.5060562,1.07492198 M22.5187393,39.572064 L22.5187393,1.07492198 M29.5302084,39.572064 L29.5302084,1.07492198 M36.4678717,39.572064 L36.4678717,1.07492198" id="path26"></path>
                                    </g>
                                </g>
                                <g id="use30" transform="translate(77.467940, 52.226899) scale(-1, 1) rotate(-180.000000) translate(-77.467940, -52.226899) translate(53.389451, 1.145818)">
                                    <g id="g20" transform="translate(0.000000, 0.312345)">
                                        <polygon id="path22" fill="#00ACD3" points="0.54638614 0.431114106 46.8179676 0.431114106 46.8179676 46.6231895 0.54638614 46.6231895"></polygon>
                                        <polygon id="path24" fill="#20C2EF" points="0.54638614 53.7288941 46.8179676 53.7288941 46.8179676 99.9234691 0.54638614 99.9234691"></polygon>
                                        <path d="M6.22795209,42.774475 L6.22795209,4.27733302 M13.1668763,42.774475 L13.1668763,4.27733302 M20.1758236,42.774475 L20.1758236,4.27733302 M27.1885068,42.774475 L27.1885068,4.27733302 M34.1999758,42.774475 L34.1999758,4.27733302 M41.1376392,42.774475 L41.1376392,4.27733302" id="path26" stroke="#394D54" stroke-width="1.56" fill="#000000"></path>
                                        <g id="use28" transform="translate(4.669767, 56.501577)" fill="#000000" stroke="#394D54" stroke-width="1.56">
                                            <path d="M1.55818465,39.572064 L1.55818465,1.07492198 M8.49710884,39.572064 L8.49710884,1.07492198 M15.5060562,39.572064 L15.5060562,1.07492198 M22.5187393,39.572064 L22.5187393,1.07492198 M29.5302084,39.572064 L29.5302084,1.07492198 M36.4678717,39.572064 L36.4678717,1.07492198" id="path26"></path>
                                        </g>
                                    </g>
                                </g>
                            </g>
                        </g>
                    </g>
                </g>
            </g>
            <g id="path38-Clipped" transform="translate(82.000000, 5.000000)">
                <mask id="mask-4" fill="white">
                    <use xlink:href="#path-3"></use>
                </mask>
                <g id="path10"></g>
                <path d="M435.619583,122.09357 C439.199707,94.3199011 418.379198,72.503438 405.466731,62.1457384 C390.587241,79.3195216 388.275099,124.329394 411.619103,143.279606 C398.591572,154.831994 371.1385,165.303297 343.030166,165.303297 L-2.33488372,165.303297 C-5.06843716,194.596227 -2.33488372,335.654676 -2.33488372,335.654676 L504.334884,335.654676 L502.031357,122.551252 C480.086649,109.90904 451.868272,113.940017 435.619513,122.093102" id="path38" fill="#17B5EB" fill-rule="nonzero" mask="url(#mask-4)"></path>
            </g>
            <g id="path40-Clipped" transform="translate(82.000000, 5.000000)">
                <mask id="mask-6" fill="white">
                    <use xlink:href="#path-5"></use>
                </mask>
                <g id="path10"></g>
                <polyline id="path40" fill-opacity="0.17" fill="#000000" fill-rule="nonzero" mask="url(#mask-6)" points="-2.33488372 202.791367 -2.33488372 335.654676 504.334884 335.654676 504.334884 202.791367"></polyline>
            </g>
            <g id="path42-Clipped" transform="translate(82.000000, 5.000000)">
                <mask id="mask-8" fill="white">
                    <use xlink:href="#path-7"></use>
                </mask>
                <g id="path10"></g>
                <path d="M178.005371,323.743527 C146.391935,308.766872 129.039,288.408507 119.384031,266.182596 L23.3488372,270.388489 L72.3813953,335.654676 L178.005371,323.743527" id="path42" fill="#D4EDF1" fill-rule="nonzero" mask="url(#mask-8)"></path>
            </g>
            <g id="path44-Clipped" transform="translate(82.000000, 5.000000)">
                <mask id="mask-10" fill="white">
                    <use xlink:href="#path-9"></use>
                </mask>
                <g id="path10"></g>
                <path d="M437.790698,121.06295 L437.790698,121.135791 C389.082245,183.812645 319.218017,238.565326 244.214244,267.329137 C177.308665,292.987303 118.974862,293.11019 78.7293605,272.500899 C74.3956528,270.057333 70.147026,267.345989 65.8875,264.779676 C36.3823846,244.192856 19.7630956,210.139193 21.1598837,165.277878 L-2.33488372,165.277878 L-2.33488372,335.654676 L504.334884,335.654676 L504.334884,111.884892 L445.962791,111.884892 L437.790698,121.06295 Z" id="path44" fill-opacity="0.085" fill="#000000" fill-rule="nonzero" mask="url(#mask-10)"></path>
            </g>
            <path d="M107,273.940019 C140.020754,275.852555 175.261075,276.19549 206,266" id="path46" stroke="#394D54" stroke-width="3.4" stroke-linecap="round"></path>
            <path d="M238,250.501223 C238,257.403901 232.403903,263 225.501227,263 C218.597327,263 213,257.403901 213,250.501223 C213,243.598568 218.597327,238 225.501227,238 C232.403903,238 238,243.598568 238,250.501223 Z" id="path48" fill="#D4EDF1" fill-rule="nonzero"></path>
            <path d="M228.939951,241.643154 C227.782256,242.312316 226.998766,243.566163 226.998766,245.000608 C226.998766,247.141891 228.734659,248.875205 230.875943,248.875205 C232.342879,248.875205 233.617523,248.060527 234.276276,246.857336 C234.741429,247.978671 235,249.210417 235,250.501941 C235,255.747322 230.74731,260 225.500645,260 C220.255281,260 216,255.747322 216,250.501941 C216,245.253988 220.255281,241 225.500645,241 C226.714214,241 227.871909,241.228779 228.939951,241.643154 L228.939951,241.643154 Z" id="path50" fill="#394D54" fill-rule="nonzero"></path>
            <path d="M0,210 L595,210 C582.044436,206.674191 554.009553,202.181873 558.632951,185 C535.076136,212.585333 478.264584,204.352589 463.927028,190.750113 C447.960593,214.184207 355.012573,205.276918 348.529761,187.021098 C328.513785,210.792463 266.489958,210.792463 246.472742,187.021098 C239.987427,205.276918 147.040654,214.184207 131.072984,190.750113 C116.735407,204.352589 59.9288872,212.585333 36.3695548,185 C40.9929618,202.181873 12.9580713,206.674191 0,210" id="path52" fill="#394D54" fill-rule="nonzero"></path>
        </g>
    </g>
</svg>