<?xml version="1.0" encoding="UTF-8"?>
<svg width="467px" height="233px" viewBox="0 0 467 233" version="1.1" xmlns="http://www.w3.org/2000/svg" xmlns:xlink="http://www.w3.org/1999/xlink">
    <!-- Generator: Sketch 64 (93537) - https://sketch.com -->
    <title>logo-golang</title>
    <desc>Created with Sketch.</desc>
    <g id="logo-golang" stroke="none" stroke-width="1" fill="none" fill-rule="evenodd">
        <g id="go">
            <g id="g921" transform="translate(193.000000, 0.000000)" fill="#00ACD7" fill-rule="nonzero">
                <g id="g841" transform="translate(17.000000, 22.000000)">
                    <g id="g839">
                        <g id="g837">
                            <path d="M0.579519186,4.38034188 C0.115903837,4.38034188 -2.39946951e-14,4.14529915 0.231807675,3.79273504 L2.66578826,0.61965812 C2.89759593,0.267094017 3.47711512,0.0320512821 3.94073047,0.0320512821 L45.3184004,0.0320512821 C45.7820157,0.0320512821 45.8979196,0.384615385 45.6661119,0.737179487 L43.6957466,3.79273504 C43.463939,4.14529915 42.8844198,4.49786325 42.5367083,4.49786325 L0.579519186,4.38034188 Z" id="path835"></path>
                        </g>
                    </g>
                </g>
                <g id="g849" transform="translate(0.000000, 33.000000)">
                    <g id="g847">
                        <g id="g845">
                            <path d="M0.459583911,4.61538462 C0,4.61538462 -0.114895978,4.38034188 0.114895978,4.02777778 L2.52771151,0.854700855 C2.75750347,0.502136752 3.33198336,0.267094017 3.79156727,0.267094017 L56.1841331,0.267094017 C56.6437171,0.267094017 56.873509,0.61965812 56.758613,0.972222222 L55.8394452,3.79273504 C55.7245492,4.26282051 55.2649653,4.49786325 54.8053814,4.49786325 L0.459583911,4.61538462 Z" id="path843"></path>
                        </g>
                    </g>
                </g>
                <g id="g857" transform="translate(28.000000, 43.000000)">
                    <g id="g855">
                        <g id="g853">
                            <path d="M0.685747573,4.85042735 C0.228582524,4.85042735 0.114291262,4.49786325 0.342873786,4.14529915 L1.94295146,1.20726496 C2.17153398,0.854700855 2.62869903,0.502136752 3.08586408,0.502136752 L25.9441165,0.502136752 C26.4012816,0.502136752 26.6298641,0.854700855 26.6298641,1.32478632 L26.4012816,4.14529915 C26.4012816,4.61538462 25.9441165,4.96794872 25.6012427,4.96794872 L0.685747573,4.85042735 Z" id="path851"></path>
                        </g>
                    </g>
                </g>
                <g id="g870" transform="translate(63.000000, 0.000000)">
                    <g id="CXHf1q_3_">
                        <g id="g867">
                            <g id="g861">
                                <path d="M85.301848,24.6294559 C78.0325439,26.4662289 73.0709554,27.8438086 65.9170372,29.6805816 C64.1862505,30.1397749 64.0708647,30.2545732 62.5708496,28.5325985 C60.8400629,26.5810272 59.5708193,25.3182458 57.147718,24.1702627 C49.8784139,20.611515 42.8398814,21.6446998 36.2628921,25.8922373 C28.4166591,30.943363 24.3781569,38.4052533 24.4935426,47.7039165 C24.6089284,56.8877814 30.9551462,64.46447 40.0706228,65.7272514 C47.9168557,66.7604362 54.4938451,64.0052767 59.6862051,58.1505629 C60.7246771,56.8877814 61.6477634,55.5102017 62.8016211,53.9030253 C58.6477331,53.9030253 53.4553731,53.9030253 40.5321659,53.9030253 C38.1090645,53.9030253 37.5321356,52.4106473 38.3398361,50.459076 C39.8398512,46.9003283 42.6091099,40.9308161 44.2245108,37.94606 C44.5706681,37.2572702 45.3783686,36.1092871 47.1091552,36.1092871 C52.99383,36.1092871 74.6863563,36.1092871 89.1095787,36.1092871 C88.8788071,39.2088415 88.8788071,42.3083959 88.417264,45.4079503 C87.1480204,53.6734287 84.0326044,61.2501173 78.9556302,67.9084193 C70.6478541,78.8142589 59.8015909,85.5873593 46.0706832,87.4241323 C34.7628769,88.9165103 24.2627711,86.7353424 15.0319088,79.8474437 C6.49336116,73.4187383 1.64715846,64.9236632 0.37791489,54.3622186 C-1.12210023,41.8492026 2.57024468,30.5989681 10.1857061,20.7263133 C18.3780964,10.0500704 29.2243596,3.27696998 42.4937241,0.866205441 C53.3399873,-1.08536585 63.7247074,0.177415572 73.0709554,6.4913227 C79.1864017,10.5092636 83.5710613,16.0195826 86.4557058,22.6778846 C87.1480204,23.7110694 86.6864773,24.285061 85.301848,24.6294559 Z" id="path859"></path>
                            </g>
                            <g id="g865" transform="translate(81.923903, 0.605300)">
                                <path d="M41.5706379,87.507622 C31.070532,87.2780253 21.4935124,84.2932692 13.4165079,77.4053705 C6.60874694,71.5506567 2.33947313,64.0887664 0.954843783,55.2492964 C-1.12210023,42.2770872 2.45485891,30.7972561 10.3010919,20.5802064 C18.7242537,9.55956848 28.8782022,3.81965291 42.6091099,1.40888837 C54.3784593,-0.657481238 65.4554941,0.490501876 75.4940568,7.26360225 C84.6095333,13.4627111 90.2634365,21.8429878 91.7634516,32.8636257 C93.7250098,48.3613977 89.2249645,60.989212 78.494087,71.7802533 C70.8786257,79.4717402 61.5323776,84.2932692 50.8015002,86.4744371 C47.6860841,87.0484287 44.5706681,87.163227 41.5706379,87.507622 L41.5706379,87.507622 Z M69.0324532,41.1291041 C68.9170674,39.6367261 68.9170674,38.488743 68.6862959,37.3407598 C66.6093518,25.975727 56.109246,19.5470216 45.147597,22.0725844 C34.4167196,24.483349 27.4935729,31.2564493 24.9550857,42.0474906 C22.8781417,51.0017589 27.2628013,60.0708255 35.5705774,63.7443715 C41.9167952,66.499531 48.263013,66.155136 54.3784593,63.0555816 C63.4939358,58.3488508 68.4555243,51.0017589 69.0324532,41.1291041 L69.0324532,41.1291041 Z" id="path863"></path>
                            </g>
                        </g>
                    </g>
                </g>
            </g>
            <g id="Page-1">
                <g id="Artboard-3">
                    <g id="Group">
                        <path d="M18.8970465,45.1399181 C-7.26981726,37.78113 12.1874937,4.49038273 33.2001402,18.183301 L18.8970465,45.1399181 Z" id="Shape" fill="#6AD7E5" fill-rule="nonzero"></path>
                        <path d="M135.253267,15.5054639 C155.965174,0.956711314 174.681704,33.7813501 150.610468,42.0402403 L135.253267,15.5054639 Z" id="path950" fill="#6AD7E5" fill-rule="nonzero"></path>
                        <path d="M20.1955704,35.8983474 C16.7433686,34.0721042 14.210742,31.5918328 16.3224213,27.5986618 C18.2774393,23.9019083 21.9093029,24.3033517 25.3619384,26.1295948 L20.1955704,35.8983474 Z" id="path952" fill="#000000" fill-rule="nonzero"></path>
                        <path d="M145.355806,32.2012827 C148.808003,30.3750396 151.340631,27.8947682 149.228954,23.9015972 C147.273933,20.2048436 143.642068,20.606287 140.189436,22.4325301 L145.355806,32.2012827 Z" id="path954" fill="#000000" fill-rule="nonzero"></path>
                        <path d="M158.84096,20.7269511 C163.432245,28.725369 160.557595,37.5500117 150.279283,41.0765217 L151.493242,41.5301394 L136.136042,14.9953631 L135.83974,16.3390462 C144.707999,10.1096778 154.223474,12.6828924 158.84096,20.7269511 Z M133.903237,15.2082313 L134.370486,16.0155648 L149.727686,42.5503411 L150.147849,43.2763127 L150.941646,43.0039588 C162.474939,39.0468641 165.817729,28.785106 160.610133,19.7130214 C155.415835,10.6641023 144.553967,7.72679219 134.666795,14.6718816 L133.903237,15.2082313 Z" id="path956" fill="#000000" fill-rule="nonzero"></path>
                        <path d="M9.24605783,24.2650262 C13.8169068,16.1080855 23.6322786,13.1648858 32.6430785,19.0367861 L32.2991702,17.7060103 L17.9960765,44.6626281 L19.173324,44.1590757 C8.00470936,41.0181773 4.67457555,32.4230967 9.24605783,24.2650262 Z M19.4126678,46.3434629 L19.7980165,45.6172087 L34.1011102,18.6605916 L34.5374375,17.8382579 L33.757202,17.3298159 C23.7161037,10.786521 12.5923423,14.1220492 7.46649621,23.2694131 C2.26172698,32.5576205 6.15887226,42.6161585 18.6207683,46.1207611 L19.4126678,46.3434629 Z" id="path958" fill="#000000" fill-rule="nonzero"></path>
                        <path d="M2.96494851,126.150432 C3.2964987,132.986258 10.1249581,129.823314 13.2178356,127.68633 C16.1536173,125.657416 17.0120026,127.343908 17.2697783,123.339888 C17.4385912,120.708157 17.7419339,118.076418 17.5926495,115.434273 C13.1531745,115.031957 8.32443153,116.089166 4.68475679,118.733485 C2.81002253,120.095795 -0.705104142,124.443969 2.96494851,126.150432" id="path960" fill="#F6D2A2" fill-rule="nonzero"></path>
                        <path d="M3.21074711,126.125223 C4.20452987,125.75546 5.25776602,125.49289 5.93214954,124.594094" id="path962" stroke="#000000" stroke-width="1.76671122" fill="#C6B198" fill-rule="nonzero"></path>
                        <path d="M7.15266759,131.297538 C9.21601086,131.100996 11.7005121,129.973541 13.7978291,128.52443 C14.2631027,128.202877 14.6892188,127.97021 15.1264754,127.783416 C15.2948621,127.711484 15.4596265,127.648242 15.6607006,127.576664 C15.6902058,127.566135 16.0622982,127.43647 16.1678878,127.397607 C17.6592917,126.848678 18.1217337,125.979174 18.2874377,123.405305 C18.3193359,122.908016 18.3483515,122.510096 18.4167858,121.607808 C18.6509478,118.520287 18.7100716,117.133984 18.6107909,115.376838 L18.5611896,114.49891 L17.6847599,114.419487 C12.8169424,113.978356 7.79947733,115.210736 4.08505398,117.909358 C2.84403163,118.81117 1.47736762,120.407498 0.813742809,121.898943 C-0.150617932,124.066271 0.31380266,126.041601 2.53471594,127.074253 L3.39518652,125.226604 C2.30211884,124.718365 2.12550183,123.967154 2.67737777,122.726854 C3.18695958,121.581608 4.31933001,120.258942 5.2845401,119.557558 C8.58153481,117.162209 13.1063055,116.050847 17.5005438,116.449059 L16.5745101,115.491708 C16.667042,117.129399 16.6104805,118.455644 16.3830938,121.453818 C16.3140647,122.363992 16.2846649,122.767143 16.2521066,123.274716 C16.1328005,125.127881 16.0594789,125.265745 15.4629319,125.485309 C15.3770563,125.516896 15.0204174,125.641229 14.9762569,125.656948 C14.7386338,125.741534 14.5363862,125.819158 14.3247141,125.909586 C13.7643116,126.148985 13.21806,126.447252 12.6377517,126.848304 C10.8013702,128.117122 8.60993861,129.11159 6.9591234,129.268835 C5.07703794,129.448109 4.10537799,128.613575 3.98351864,126.101108 L1.94638382,126.199756 C2.12473891,129.877039 4.11548873,131.586838 7.15267031,131.297538 L7.15266759,131.297538 Z" id="path964" fill="#000000" fill-rule="nonzero"></path>
                        <path d="M3.21074711,126.125223 C4.20452987,125.75546 5.25776602,125.49289 5.93214954,124.594094" id="path966" stroke="#000000" stroke-width="1.76671122" fill="#C6B198" fill-rule="nonzero"></path>
                        <path d="M139.963973,210.242761 C145.224944,213.498145 154.841198,223.341539 146.949091,228.114595 C139.365964,235.058056 135.121772,220.493246 128.466032,218.475174 C131.332381,214.582253 134.965545,211.032624 139.963973,210.242761 Z" id="path968" fill="#F6D2A2" fill-rule="nonzero"></path>
                        <path d="M147.513924,219.132845 C149.646819,222.693608 149.437937,225.418309 146.421051,227.242889 L146.334615,227.295195 L146.260132,227.363397 C143.103035,230.25418 140.947521,229.313526 136.764236,224.457418 C136.634285,224.306573 136.498384,224.147909 136.335943,223.957555 C136.235306,223.839636 136.120766,223.705188 135.90444,223.451239 C132.711719,219.704938 131.078501,218.202496 128.762144,217.500161 L129.287444,219.079045 C132.631777,214.536951 136.021645,211.897387 140.123267,211.249233 L139.427075,211.109086 C142.353985,212.920196 145.732459,216.158801 147.513924,219.132879 L147.513924,219.132845 Z M140.178824,209.17719 L139.804673,209.236289 C135.070533,209.984396 131.276532,212.938646 127.644626,217.87131 L126.790133,219.031833 L128.16992,219.450194 C129.960249,219.993037 131.433521,221.348336 134.351634,224.772424 C134.567538,225.02587 134.682744,225.161099 134.78402,225.279773 C134.948351,225.472341 135.086203,225.63328 135.21848,225.786829 C137.465473,228.39522 138.919886,229.740018 140.639947,230.490644 C142.960873,231.503481 145.293227,231.012836 147.638049,228.865806 L147.477131,228.98628 C151.606613,226.488818 151.911882,222.506835 149.263945,218.086227 C147.303914,214.814044 143.690173,211.349919 140.500865,209.376442 L140.178824,209.17719 Z" id="path970" fill="#000000" fill-rule="nonzero"></path>
                        <path d="M146.795168,225.609865 C146.773209,225.550902 146.773209,225.550902 146.75125,225.491843 C145.792129,222.914707 145.216337,221.785119 143.981091,220.599203 L142.568019,222.068707 C143.508839,222.971959 143.985395,223.906866 144.839623,226.202154 C144.86165,226.261253 144.86165,226.261253 144.883677,226.320508 C145.308421,227.461169 145.545809,228.045578 145.879346,228.708846 L147.701757,227.79389 C147.411825,227.217334 147.194813,226.683091 146.795181,225.609865 L146.795168,225.609865 Z" id="path972" fill="#000000" fill-rule="nonzero"></path>
                        <path d="M45.5049611,221.305214 C39.330055,222.260867 35.8544191,227.832033 30.7067113,230.661237 C25.8558368,233.5538 24.0001968,229.735093 23.563193,228.959984 C22.8028837,228.613221 22.8666773,229.282876 21.6932321,228.10111 C17.1964737,221.003584 26.3787657,215.815632 31.160206,212.289873 C37.8198522,210.943629 41.9933058,216.717471 45.5049611,221.305214 Z" id="path974" fill="#F6D2A2" fill-rule="nonzero"></path>
                        <path d="M35.4619423,225.848327 C35.3954129,225.905184 35.3954129,225.905184 35.328955,225.961919 C32.8881214,228.046807 31.7362326,228.932486 30.21524,229.768433 C27.8032554,231.205961 26.3281413,230.923291 25.2095356,229.615943 C25.040533,229.418423 24.8885965,229.205306 24.7452498,228.97306 C24.6898291,228.883264 24.637815,228.794194 24.581637,228.694051 C24.5561497,228.648606 24.4700987,228.492544 24.4516723,228.459863 L24.2886979,228.170793 L23.9866319,228.033031 C23.5992145,227.856338 23.3214487,227.816423 22.9419793,227.828174 C22.8581072,227.793734 22.6830167,227.651203 22.4171421,227.383443 L22.5548529,227.556087 C20.0624308,223.622137 21.9881727,220.267487 27.7557393,215.981116 C28.5633438,215.380914 31.2992112,213.453745 31.7657296,213.109741 L31.3624188,213.288587 C35.7107141,212.409579 38.9330389,214.550421 43.1527068,219.920718 C43.3914095,220.224515 43.6370418,220.541823 43.9325303,220.927156 C44.0925535,221.135837 44.6293771,221.838566 44.6949539,221.92424 L45.3488735,220.298267 C41.9134277,220.829955 39.71542,222.215463 35.4619423,225.848327 L35.4619423,225.848327 Z M47.3584732,222.049455 L46.3149676,220.686188 C46.2504506,220.6019 45.7128656,219.898172 45.5514555,219.687684 C45.2514807,219.296496 45.0012071,218.973189 44.7568896,218.662253 C40.1044255,212.741139 36.2973463,210.211805 30.9579938,211.291152 L30.7365067,211.335918 L30.554683,211.469992 C30.1130251,211.795662 27.3729781,213.725778 26.5385496,214.345911 C23.676074,216.473262 21.7682167,218.30937 20.5992686,220.345675 C19.0574124,223.031594 19.0438026,225.824306 20.8316114,228.64612 L20.89105,228.739945 L20.9693195,228.818764 C21.7502573,229.605238 22.2630654,229.878751 22.9326675,229.866986 C23.0979657,229.86223 23.0798567,229.859581 23.1397515,229.886957 L23.5631903,228.960004 L22.6747111,229.460125 C22.6871114,229.482135 22.7717612,229.635657 22.802554,229.690544 C22.8716572,229.813722 22.9375325,229.926533 23.0093048,230.042816 C23.204605,230.35924 23.4164376,230.656373 23.6593295,230.940253 C25.4092568,232.985443 27.974581,233.477018 31.2292929,231.536244 C32.8815541,230.628875 34.10815,229.685755 36.6542089,227.510982 C36.7207042,227.454192 36.7207042,227.454192 36.7871275,227.39745 C40.7615961,224.002885 42.7222343,222.767 45.6610453,222.312175 L47.3584732,222.049455 Z" id="path976" fill="#000000" fill-rule="nonzero"></path>
                        <path d="M23.5724443,229.370016 C23.807654,226.664941 25.9523152,224.85345 26.9738714,222.566308" id="path978" stroke="#000000" stroke-width="1.76671122"></path>
                        <path d="M169.048725,125.534252 C168.717179,132.370078 161.888718,129.207134 158.795839,127.070157 C155.860057,125.041237 155.001675,126.727735 154.743899,122.723715 C154.575081,120.091977 154.271742,117.460245 154.421029,114.818093 C158.860498,114.415784 163.689246,115.472986 167.328915,118.117312 C169.203219,119.479615 172.718776,123.827789 169.048725,125.534252" id="path980" fill="#F6D2A2" fill-rule="nonzero"></path>
                        <path d="M165.054552,128.652655 C163.403739,128.495411 161.21231,127.500949 159.375832,126.232057 C158.795621,125.831073 158.249368,125.532805 157.688961,125.293406 C157.477292,125.202985 157.275046,125.125354 157.037421,125.040768 C156.993231,125.025076 156.63662,124.900744 156.550749,124.869136 C155.954202,124.649572 155.880874,124.511708 155.761555,122.658299 C155.72899,122.150963 155.699621,121.747812 155.630583,120.837638 C155.403197,117.839465 155.346634,116.513219 155.439167,114.875528 L154.513134,115.83288 C158.907374,115.434667 163.432143,116.546029 166.729213,118.941439 C167.694208,119.64283 168.826546,120.965503 169.336148,122.110708 C169.888085,123.351042 169.711516,124.102206 168.618494,124.610431 L169.478963,126.45808 C171.699891,125.425415 172.164209,123.450091 171.199758,121.282736 C170.53613,119.791414 169.16958,118.195153 167.928787,117.2933 C164.214199,114.594556 159.196735,113.362176 154.328917,113.803307 L153.452485,113.882731 L153.402857,114.760658 C153.30358,116.517804 153.362678,117.904107 153.596863,120.991629 C153.665296,121.893916 153.694312,122.291837 153.726197,122.788887 C153.891915,125.362994 154.354357,126.232505 155.84576,126.781427 C155.951346,126.820283 156.323444,126.949982 156.352949,126.960484 C156.554019,127.032062 156.718786,127.095305 156.887176,127.167236 C157.32443,127.35403 157.750548,127.586697 158.215723,127.908183 C160.313137,129.357361 162.79764,130.484823 164.86098,130.681358 C167.89816,130.970659 169.888914,129.26086 170.067264,125.583576 L168.030131,125.484928 C167.90827,127.997395 166.936612,128.831929 165.054524,128.652655 L165.054552,128.652655 Z" id="path982" fill="#000000" fill-rule="nonzero"></path>
                        <path d="M168.825723,125.509043 C167.831944,125.13928 166.778705,124.876717 166.104323,123.977914" id="path984" stroke="#000000" stroke-width="1.76671122" fill="#C6B198" fill-rule="nonzero"></path>
                        <path d="M83.4787247,1.35860058 C109.675093,1.35860058 134.232376,5.10526354 147.033948,30.2751308 C158.524507,58.4872905 154.438283,88.9093424 156.190637,118.725544 C157.69563,144.327666 161.032396,173.905603 149.156041,197.630709 C136.662158,222.591387 105.442622,228.870404 79.7214425,227.950775 C59.5181437,227.227741 35.1123152,220.636252 23.7098512,202.176348 C10.3324078,180.520092 16.6657109,148.31867 17.6373613,124.221634 C18.7882405,95.6774693 9.90625298,67.046504 19.2829615,39.1151379 C29.0103154,10.1404521 55.2444441,3.59236336 83.4787247,1.35860058 Z" id="path986" fill="#6AD7E5" fill-rule="nonzero"></path>
                        <path d="M88.4056342,36.5710972 C93.1089572,63.9139685 137.80054,56.6845104 131.381309,29.1077166 C125.625183,4.37878625 86.8424873,11.2237262 88.4056342,36.5710972" id="path988" fill="#FFFFFF" fill-rule="nonzero"></path>
                        <path d="M114.227953,54.4084101 C127.149668,52.2427587 135.417266,42.0860305 132.344135,28.883951 C126.314013,2.97791044 85.7810297,10.0714821 87.4189796,36.6318463 L89.3922819,36.510348 C87.9004232,12.318905 124.949257,5.83508564 130.418483,29.3314754 C133.211981,41.3322497 125.773572,50.4703202 113.900909,52.4601524 C102.041427,54.4477756 91.4325894,48.3373085 89.379868,36.4037821 L87.4313935,36.7384115 C89.6840496,49.8342941 101.367602,56.5637756 114.227953,54.4084101 L114.227953,54.4084101 Z" id="path990" fill="#000000" fill-rule="nonzero"></path>
                        <path d="M34.5631362,41.1433377 C40.6590603,64.9478628 78.7686781,58.8532968 77.332247,34.9749928 C75.6111388,6.37701348 28.7349692,11.8952362 34.5631362,41.1433377" id="path992" fill="#FFFFFF" fill-rule="nonzero"></path>
                        <path d="M78.2895731,34.9174955 C77.4672092,21.253114 66.1937629,13.6956904 52.9926378,15.4166495 C39.7064658,17.1486954 30.8529752,27.4316389 33.6225464,41.3304672 L35.503726,40.9562081 C32.9673556,28.2276769 40.9856713,18.9147532 53.2407869,17.3171204 C65.4165526,15.729832 75.625096,22.5733722 76.3749208,35.032516 C77.7507984,57.9041804 41.2620148,63.4366445 35.4922544,40.9057857 L33.6340174,41.3808897 C39.9781211,66.1545556 79.8054098,60.1159034 78.2895731,34.9174955 Z" id="path994" fill="#000000" fill-rule="nonzero"></path>
                        <path d="M93.6979246,69.8978874 C93.7179119,73.4527269 94.505536,77.4437248 93.8333219,81.2255458 C92.9259029,82.9406839 91.1457709,83.1220911 89.6112658,83.8151812 C87.4891733,83.4823104 85.7047039,82.0887531 84.8536982,80.1036678 C84.30907,75.7871764 85.0567942,71.6078221 85.1943602,67.2895889 L93.6979246,69.8978874 Z" id="path996" fill="#FFFFFF" fill-rule="nonzero"></path>
                        <path d="M92.8840383,73.7786688 C93.0207545,75.5944317 93.0721777,76.4762314 93.0830076,77.5146642 C93.0966724,78.8280166 93.0195104,79.9772772 92.829277,81.0473585 L92.9317836,80.7493291 C92.5199149,81.5278073 91.9849202,81.8525536 90.4492525,82.3992205 C90.3765502,82.4251018 90.3765502,82.4251018 90.3029981,82.4513228 C89.8101807,82.6272344 89.5114038,82.7420769 89.1912255,82.8866931 L89.7694174,82.8085668 C87.9956691,82.5303322 86.5045583,81.366752 85.7910778,79.7024594 L85.8654525,79.9762243 C85.6345238,78.1459923 85.6258082,76.2815507 85.7833616,73.801928 C85.8238802,73.1646017 85.8609791,72.6674694 85.9531453,71.4900178 C86.1135404,69.4408609 86.1761266,68.4985695 86.2136063,67.322014 L84.8951006,68.2636811 L93.3986718,70.8719836 L92.6781821,69.9036139 C92.6843007,70.9520867 92.7315497,71.7537018 92.8840383,73.7786756 L92.8840383,73.7786688 Z M94.7134724,69.143504 L93.9971842,68.9237979 L85.4936198,66.3155008 L84.2175837,65.9241023 L84.1750936,67.25717 C84.138926,68.3921096 84.0777742,69.3129691 83.9198062,71.3311091 C83.8268582,72.5186075 83.7892561,73.0221389 83.7479149,73.6727999 C83.5829241,76.2694999 83.5921836,78.2518341 83.8419235,80.2311249 L83.8598713,80.3732277 L83.9162982,80.5048897 C84.9055089,82.8123437 86.9843363,84.4345536 89.4531006,84.8218023 L89.7538694,84.8690137 L90.0312925,84.7437099 C90.2877492,84.6278757 90.5451034,84.5289627 90.9891013,84.3704752 C91.061015,84.3448656 91.061015,84.3448656 91.1337037,84.3189842 C93.1225404,83.6109971 94.0096525,83.0725225 94.7348534,81.70181 L94.8094457,81.5608145 L94.8373872,81.4037806 C95.0518841,80.197058 95.1373606,78.924878 95.1224313,77.4934768 C95.11101,76.3972356 95.0577783,75.4844937 94.9178261,73.625833 C94.7690699,71.6501629 94.7232145,70.8762564 94.7176874,69.892222 L94.7134724,69.143504 Z" id="path998" fill="#000000" fill-rule="nonzero"></path>
                        <ellipse id="Oval" fill="#000000" fill-rule="nonzero" cx="45.0310508" cy="37.4381649" rx="6.43528591" ry="6.97079822"></ellipse>
                        <ellipse id="ellipse1001" fill="#FFFFFF" fill-rule="nonzero" cx="47.9581536" cy="39.011389" rx="1.51714606" ry="1.77156014"></ellipse>
                        <ellipse id="ellipse1003" fill="#000000" fill-rule="nonzero" cx="98.8190784" cy="35.5896326" rx="6.32809585" ry="6.97079822"></ellipse>
                        <ellipse id="ellipse1005" fill="#FFFFFF" fill-rule="nonzero" cx="101.697577" cy="37.1628574" rx="1.49197606" ry="1.77156014"></ellipse>
                        <path d="M75.0235855,69.1115837 C72.215818,75.9165966 76.5893293,89.5244556 84.2076104,79.4874949 C83.6629823,75.1709966 84.4107064,70.9916424 84.5482724,66.6734112 L75.0235855,69.1115837 Z" id="path1007" fill="#FFFFFF" fill-rule="nonzero"></path>
                        <path d="M74.8179129,81.1164026 C77.1647747,85.2680686 81.1619119,85.1863624 85.0201235,80.1032262 L85.2713726,79.7722168 L85.2193647,79.3600378 C84.988436,77.5298126 84.9797273,75.665371 85.1372738,73.1857415 C85.1777924,72.5484152 85.2148914,72.0512829 85.3070575,70.8738381 C85.4674526,68.8246744 85.5300389,67.8823878 85.5675186,66.7058302 L85.6107565,65.3495827 L84.2952217,65.6863383 L74.7705279,68.1245128 L74.275569,68.2512159 L74.0808283,68.7232073 C72.5837825,72.3515132 72.9351111,77.7856031 74.8179401,81.1164026 L74.8179129,81.1164026 Z M75.2766634,70.0986614 L84.8013504,67.6604842 L83.5290262,66.6409923 C83.4928587,67.7759312 83.4317069,68.6967894 83.2737388,70.7149362 C83.1807908,71.9024278 83.1431888,72.4059592 83.1018476,73.0566201 C82.9368568,75.6533202 82.946123,77.6356543 83.1958561,79.6149452 L83.3950906,78.8717567 C80.3705556,82.8565458 78.1693975,82.9015359 76.5937483,80.1141562 C75.0177524,77.3261719 74.7088187,72.5478106 75.966363,69.4999601 L75.2766634,70.0986614 Z" id="path1009" fill="#000000" fill-rule="nonzero"></path>
                        <path d="M75.9963984,56.2920419 C70.7631998,56.7381866 66.4855925,62.9607804 69.2065591,67.883565 C72.8097823,74.4038764 80.8524819,67.3067881 85.8617542,67.9716635 C91.6269902,68.0897123 96.3507153,74.0679692 100.981139,69.052308 C106.131016,63.4737608 98.7640044,58.0406003 93.0061379,55.6115406 L75.9963984,56.2920419 Z" id="path1011" fill="#F6D2A2" fill-rule="nonzero"></path>
                        <path d="M68.3138926,68.3761868 C69.4832683,70.4922615 71.181996,71.54462 73.3388557,71.6670774 C74.9381361,71.7578727 76.5473695,71.3949905 79.0893527,70.5339434 C79.3216819,70.4552465 79.542243,70.3794501 79.8973652,70.256653 C83.1674523,69.1259034 84.4418092,68.8110952 85.7274718,68.9817422 L85.8408626,68.9903694 C87.3594866,69.0214813 88.6818811,69.4222549 91.1439693,70.4517005 C93.9606291,71.6293899 94.869938,71.9431315 96.3107949,72.0522271 C98.3369006,72.2056267 100.115469,71.4927622 101.730692,69.7431564 C104.463656,66.7827079 104.325526,63.5223525 101.8756,60.5084235 C100.014329,58.2186646 96.8460073,56.1253803 93.4027848,54.6727931 L93.192938,54.5842667 L92.9653406,54.5933693 L75.9556011,55.2738706 C69.756354,55.8013337 65.3148782,62.9503212 68.3138926,68.3761528 L68.3138926,68.3761868 Z M93.0469352,56.6296752 L92.6094909,56.5502541 C95.771286,57.8841132 98.6734971,59.801581 100.292479,61.7932758 C102.139773,64.0658396 102.230042,66.1966097 100.231566,68.3614392 C98.1156936,70.6533508 96.6429997,70.5418505 91.931267,68.5717845 C89.2422408,67.4474549 87.7357587,66.9908727 85.8826457,66.952929 L85.9960297,66.9615901 C84.2597543,66.7311348 82.8480694,67.0798624 79.2303723,68.3308095 C78.8790232,68.4523024 78.6617866,68.5269507 78.4345494,68.603929 C73.7022923,70.2068875 71.5890582,70.0869163 70.099273,67.3910275 C67.8501242,63.3218618 71.3353412,57.7120641 76.0830851,57.3073058 L93.0469352,56.6296752 Z" id="path1013" fill="#231F20" fill-rule="nonzero"></path>
                        <path d="M75.3376384,56.0194937 C74.9501013,46.9529427 92.2354147,45.8193529 94.2767896,53.4085915 C96.3129636,60.9800359 76.1886441,62.7385765 75.3376384,56.0194937 C74.6584764,50.6540363 75.3376384,56.0194937 75.3376384,56.0194937 L75.3376384,56.0194937 Z" id="path1015" fill="#000000" fill-rule="nonzero"></path>
                        <path d="M119.924682,7.33349091 C131.542643,11.640252 140.216643,19.1203264 146.12485,30.7367704 C149.930789,40.0907496 152.217709,50.2143035 153.405495,61.9003159 C154.308338,70.7829477 154.518253,77.98044 154.605592,94.2661278 C154.619461,96.8503152 154.62626,97.9960435 154.637341,99.4309702 C154.699275,107.450572 154.840729,113.138163 155.172621,118.785275 C155.303171,121.006179 155.359619,121.894195 155.700512,127.170918 C156.431199,138.481302 156.719085,144.342549 156.768251,151.103231 C156.905899,170.030534 154.498565,184.680297 148.243999,197.174885 C142.527596,208.595288 132.501743,216.647211 119.050249,221.538336 C107.559303,225.716583 93.8999668,227.438107 79.7579025,226.932469 C55.4544112,226.0627 34.4376904,217.604019 24.577632,201.641182 C18.0028967,190.997586 15.8027441,177.427618 16.4098578,158.730577 C16.5762763,153.605433 16.8802119,149.013092 17.5401963,140.690814 C18.2892366,131.245565 18.485288,128.503542 18.6562907,124.26265 C18.7789002,121.221694 18.7931905,118.075066 18.7092436,114.742168 C18.5621068,108.900634 18.2357582,104.208272 17.3544682,93.7709587 C16.1904266,79.9849533 15.834388,73.9268989 15.9783649,66.3659919 C16.1677607,56.419891 17.4755372,47.7031015 20.2497775,39.4391872 C24.7398029,26.0648459 32.9601227,16.9686102 44.889696,11.1239139 C54.8748243,6.23186521 67.0291546,3.68215219 83.5592112,2.37437196 C98.9192531,2.37755102 110.226669,3.73844873 119.924682,7.33349091 Z M43.9917948,9.29413292 C31.5824524,15.3738848 22.9831893,24.8894411 18.3161461,38.7910763 C15.4703537,47.2681292 14.1323113,56.1866519 13.9392124,66.3272235 C13.7934489,73.981929 14.1521954,80.0860467 15.3221665,93.942285 C16.2000885,104.33971 16.5245757,109.0053 16.6703678,114.793441 C16.7532439,118.083748 16.7391542,121.186289 16.6184279,124.180611 C16.4489263,128.384284 16.2536954,131.11482 15.5070529,140.52984 C14.8446809,148.882218 14.5391573,153.498566 14.3714138,158.664495 C13.7524633,177.726096 16.0102964,191.651813 22.8420786,202.711535 C33.1306998,219.368196 54.7699192,228.07741 79.6849418,228.969066 C94.0718104,229.483453 107.987107,227.729676 119.747698,223.453379 C133.659507,218.394874 144.099826,210.010094 150.068096,198.086499 C156.491481,185.254659 158.947505,170.308599 158.807729,151.088422 C158.758169,144.277112 158.468916,138.387497 157.735809,127.039643 C157.395235,121.767845 157.338863,120.880998 157.208646,118.665793 C156.879201,113.060295 156.738508,107.40315 156.676819,99.4152444 C156.665738,97.9824507 156.658939,96.8377889 156.645071,94.2552115 C156.557385,77.9041614 156.346219,70.663649 155.434564,61.6944044 C154.228409,49.8275078 151.899502,39.5181009 147.978487,29.8910408 C141.79712,17.7296459 132.722304,9.90392517 120.63409,5.42284023 C110.662495,1.72638327 99.1404193,0.339650146 83.4787247,0.339650146 C66.6343677,1.66910691 54.2543482,4.26616465 43.9917948,9.29413292 Z" id="path1017" fill="#000000" fill-rule="nonzero"></path>
                    </g>
                </g>
            </g>
        </g>
    </g>
</svg>