<?xml version="1.0" encoding="UTF-8"?>
<svg width="889px" height="238px" viewBox="0 0 889 238" version="1.1" xmlns="http://www.w3.org/2000/svg" xmlns:xlink="http://www.w3.org/1999/xlink">
    <!-- Generator: Sketch 64 (93537) - https://sketch.com -->
    <title>logo-mongo</title>
    <desc>Created with Sketch.</desc>
    <g id="logo-mongo" stroke="none" stroke-width="1" fill="none" fill-rule="evenodd">
        <g id="mongodb" fill-rule="nonzero">
            <path d="M830.866642,18.4503499 C830.095975,18.6035083 829.321959,20.2932454 829.321959,21.2138607 C829.167825,27.3601751 829.013692,43.6449117 829.013692,54.705614 C829.013692,55.0135956 829.476092,55.6278941 829.940167,55.6278941 C832.258867,55.7810525 837.824417,55.9342109 842.617625,55.9342109 C849.265458,55.9342109 853.130517,55.0135956 855.296759,54.0929802 C860.860633,51.3261399 863.489275,45.3346487 863.489275,38.7271943 C863.489275,23.8275426 852.976383,18.1423683 837.360342,18.1423683 C836.278058,17.9892099 833.188692,17.9892099 830.866642,18.4503499 L830.866642,18.4503499 Z M870.756992,87.1219287 C870.756992,71.9126306 859.470083,63.4622807 839.062509,63.4622807 C838.134358,63.4622807 831.640658,63.3091223 830.0943,63.6154392 C829.630225,63.7702624 829.013692,64.078244 829.013692,64.539384 C829.013692,75.4452631 828.857883,92.807103 829.321959,99.5660511 C829.630225,102.484385 831.796467,106.632981 834.425109,107.861578 C837.206208,109.398156 843.545775,109.704473 847.874909,109.704473 C860.088292,109.704473 870.756992,102.945525 870.756992,87.1219287 L870.756992,87.1219287 Z M799.329642,10.0016648 C800.874325,10.0016648 805.511725,10.4611401 817.416842,10.4611401 C828.70375,10.4611401 837.670283,10.1548232 848.64725,10.1548232 C862.09705,10.1548232 880.65,14.9160527 880.65,34.8882449 C880.65,44.7203502 873.692225,52.5564016 864.571558,56.3970158 C864.109159,56.5501742 864.109159,56.856491 864.571558,57.0096495 C877.557283,60.2376299 889,68.225175 889,83.2796498 C889,98.0294725 879.723525,107.400438 866.27205,113.238771 C858.077858,116.771403 847.874909,118 837.51615,118 C829.630225,118 808.450309,117.079385 796.701001,117.387366 C795.464584,116.924561 797.783284,111.39421 798.863892,110.473595 C801.648342,110.318772 803.811233,110.165613 806.749817,109.243333 C810.924817,108.169559 811.387217,106.939298 812.005425,100.64149 C812.315367,95.2642969 812.315367,76.21272 812.315367,62.6948238 C812.315367,44.1060517 812.471176,31.5087708 812.315367,25.3641212 C812.161234,20.6028918 810.460742,19.0646484 807.059759,18.1423683 C804.429442,17.682893 800.101984,17.0669297 796.545192,16.6074545 C795.771175,15.8383328 798.399817,10.6142985 799.329642,10.0016648 Z M710.120009,105.557542 C713.832609,108.474212 721.098651,109.702809 727.592351,109.702809 C735.940676,109.702809 744.289001,108.169559 752.329059,100.946142 C760.523251,93.5745599 766.242934,82.205876 766.242934,64.078244 C766.242934,46.7164041 759.595101,32.5825446 745.989492,24.2886827 C738.259376,19.5241237 728.364692,17.5297346 716.923651,17.5297346 C713.522667,17.5297346 710.275817,17.682893 708.267059,18.6035083 C707.801309,18.91149 706.720701,20.2932454 706.720701,21.0607023 C706.410759,24.1338595 706.410759,47.7918426 706.410759,61.6193853 C706.410759,75.9064032 706.410759,95.8785954 706.720701,98.1826309 C706.720701,100.488331 707.801309,104.020964 710.121684,105.557542 L710.120009,105.557542 Z M675.024542,10 C677.963126,10 689.248359,10.4611401 694.659776,10.4611401 C704.402001,10.4611401 711.358101,10.0016648 729.755242,10.0016648 C745.215475,10.0016648 758.202875,14.1485957 767.47935,21.9829824 C778.764583,31.6619293 784.641751,45.0283318 784.641751,61.3114036 C784.641751,84.5099115 773.97305,97.8763141 763.30435,105.557542 C752.639001,113.391929 738.723451,118 718.934084,118 C708.421193,118 690.332318,117.693683 675.334484,117.53886 L675.180351,117.53886 C674.408009,116.157105 676.416768,110.779912 677.653184,110.626753 C681.674051,110.165613 682.756334,110.01079 684.766768,109.244998 C688.011942,108.014736 688.631826,106.324999 689.095901,100.64149 C689.558301,90.0402627 689.404168,77.2898233 689.404168,62.8479822 C689.404168,52.5564016 689.558301,32.4293862 689.248359,25.9767549 C688.785959,20.601227 686.467259,19.2178068 681.828184,18.2955267 C679.509484,17.8360514 676.416768,17.2200882 672.08931,16.7606129 C671.469426,15.6835096 674.252201,10.9222801 675.024542,10.0016648 L675.024542,10 Z" id="Shape" fill="#8E714E"></path>
            <path d="M486.646682,112.439156 C482.776991,111.974276 479.990881,111.356675 476.585822,109.807636 C476.121191,109.497157 475.346246,107.949797 475.346246,107.328839 C475.03761,101.908043 475.03761,86.421013 475.03761,76.0459787 C475.03761,67.6815058 473.645394,60.4028704 470.084339,55.2925534 C465.904336,49.4051997 459.869162,46 452.128103,46 C445.317985,46 436.18471,50.6454376 428.599647,57.1503928 C428.445329,57.3047932 427.207431,58.3906307 427.361748,56.6855134 C427.361748,54.9820744 427.672062,51.5751964 427.82638,49.2507993 C427.982375,47.0824809 426.742799,46 426.742799,46 C421.789528,48.4771192 407.858978,51.7295968 402.749712,52.1927979 C399.036016,52.9698346 398.106754,56.531113 401.978122,57.7696726 L402.13244,57.7696726 C406.309089,59.0082322 409.096876,60.4028704 411.26236,61.7975086 C412.810572,63.0360682 412.656254,64.7395072 412.656254,66.1341455 C412.810572,77.7477394 412.810572,95.5591661 412.347618,105.316599 C412.1933,109.188356 411.109719,110.581316 408.321932,111.200596 L408.632245,111.046196 C406.465084,111.511075 404.762555,111.974276 402.130762,112.284755 C401.2015,113.214514 401.2015,118.170431 402.130762,119.25459 C403.833292,119.25459 412.810572,118.78971 420.242994,118.78971 C430.458172,118.78971 435.721756,119.25459 438.351871,119.25459 C439.435451,118.01603 439.745765,113.368914 439.126815,112.284755 C436.18471,112.130355 434.017549,111.821554 432.006384,111.200596 C429.220273,110.579638 428.445329,109.188356 428.289334,105.935879 C427.982375,97.7258062 427.982375,80.3809372 427.982375,68.6112646 C427.982375,65.358787 428.90996,63.8097484 429.837545,62.8799896 C433.3986,59.7835906 439.126815,57.6152722 444.234404,57.6152722 C449.187675,57.6152722 452.436739,59.1643108 454.914213,61.1782289 C458.319273,63.9641488 459.402853,67.9919848 459.867484,70.9339834 C460.640751,77.593339 460.332116,90.7576499 460.332116,102.218522 C460.332116,108.412998 459.867484,109.962036 457.547683,110.735717 C456.462425,111.200596 453.676315,111.821554 450.425574,112.128677 C449.341993,113.214514 449.652306,118.01603 450.425574,119.10019 C454.914213,119.10019 460.177798,118.63531 467.917179,118.63531 C477.513407,118.63531 483.706254,119.10019 486.183728,119.10019 C486.955318,118.170431 487.265631,113.679394 486.646682,112.439156 L486.646682,112.439156 Z M529.523591,53.2803137 C521.321256,53.2803137 516.21199,59.6291902 516.21199,69.5393452 C516.21199,79.607257 520.70063,91.2225293 533.393282,91.2225293 C535.560442,91.2225293 539.586128,90.2927704 541.441298,88.124452 C544.383404,85.3385321 546.396247,79.7616574 546.396247,73.875982 C546.396247,61.0221502 540.049082,53.2786354 529.523591,53.2786354 L529.523591,53.2803137 Z M528.440011,121.731709 C525.345265,121.731709 523.176426,122.661468 521.78421,123.436826 C515.282727,127.615706 512.342299,131.643542 512.342299,136.446737 C512.342299,140.936096 514.044829,144.497374 517.760201,147.595451 C522.248841,151.467209 528.440011,153.326726 536.33371,153.326726 C552.122785,153.326726 559.088899,144.807853 559.088899,136.446737 C559.088899,130.559383 556.146793,126.687626 550.111619,124.520986 C545.777298,122.661468 537.883599,121.731709 528.440011,121.731709 L528.440011,121.731709 Z M529.523591,162 C520.08168,162 513.269884,159.986082 507.389028,155.495045 C501.660813,151.158408 499.185016,144.653453 499.185016,140.162416 C499.185016,138.923856 499.495329,135.5153 502.281439,132.418901 C503.982292,130.559383 507.699342,126.998105 516.522303,120.958029 C516.830939,120.803629 516.985257,120.649228 516.985257,120.337071 C516.985257,120.02827 516.674944,119.717791 516.366308,119.565069 C509.091558,116.777471 506.924397,112.284755 506.303771,109.807636 L506.303771,109.497157 C506.15113,108.567398 505.840817,107.639318 507.23471,106.709559 C508.318291,105.935879 509.866502,105.00612 511.567355,103.923639 C514.199147,102.372922 516.985257,100.669483 518.687787,99.2748448 C518.9981,98.9660441 518.9981,98.6572433 518.9981,98.3467643 C518.9981,98.0362852 518.687787,97.7258062 518.377473,97.5730841 C507.545024,94.0101275 502.127121,85.9561336 502.127121,73.875982 C502.127121,65.9780668 505.686499,58.8538318 512.031986,54.3627946 C516.366308,50.9559166 527.202112,46.7736802 534.322544,46.7736802 L534.787175,46.7736802 C542.061925,46.9280806 546.085934,48.4771192 551.812472,50.4910372 C554.908895,51.5751964 557.851,52.0383975 561.876686,52.0383975 C567.91186,52.0383975 570.543652,50.1805582 572.709136,48.013918 C572.865131,48.3227188 573.175445,49.0980772 573.329762,51.110317 C573.48408,53.124235 572.865131,56.0662336 571.31692,58.234552 C570.079021,59.937991 567.292911,61.1782289 564.506801,61.1782289 L563.731856,61.1782289 C560.945746,60.8677498 559.706171,60.5572708 559.706171,60.5572708 L559.088899,60.8677498 C558.934581,61.1782289 559.088899,61.4870296 559.243217,61.951909 L559.399212,62.2623881 C559.707848,63.655348 560.326797,67.8359062 560.326797,68.9217437 C560.326797,81.6211751 555.219208,87.1946932 549.801306,91.3769296 C544.537722,95.248687 538.502548,97.7258062 531.690752,98.3467643 C531.536434,98.3467643 530.919162,98.3467643 529.523591,98.5011647 C528.750324,98.5011647 527.666743,98.6572433 527.510748,98.6572433 L527.35643,98.6572433 C526.118532,98.9660441 523.023786,100.515083 523.023786,103.146602 C523.023786,105.469321 524.416002,108.258597 531.071803,108.723477 C532.464019,108.877877 533.856235,108.877877 535.406124,109.033956 C544.229086,109.651557 555.219208,110.426916 560.326797,112.130355 C567.447229,114.761874 571.935869,121.112429 571.935869,128.701544 C571.935869,140.164094 563.733534,150.849607 550.111619,157.507285 C543.455819,160.450961 536.798341,162 529.523591,162 L529.523591,162 Z M617.753206,54.0539938 C614.504142,54.0539938 611.562036,54.8259957 609.394876,56.3750344 C603.359702,60.0923914 600.263278,67.5271054 600.263278,78.3670192 C600.263278,98.6572433 610.478456,112.905713 625.029633,112.905713 C629.363955,112.905713 632.769014,111.665475 635.709442,109.188356 C640.198082,105.469321 642.521238,98.0362852 642.521238,87.6595726 C642.521238,67.5271054 632.458701,54.0523156 617.754883,54.0523156 L617.753206,54.0539938 Z M620.540993,120.338749 C594.226427,120.338749 584.784516,100.979962 584.784516,82.8597347 C584.784516,70.1603032 589.892105,60.4028704 600.107283,53.4330358 C607.38371,48.9419986 616.052353,46.4648794 623.791735,46.4648794 C643.913454,46.4648794 658,60.8677498 658,81.6211751 C658,95.7135665 652.42778,106.863959 641.746293,113.679394 C636.638704,117.086272 627.815743,120.338749 620.539316,120.338749 L620.540993,120.338749 L620.540993,120.338749 Z M344.704354,54.0523156 C341.453613,54.0523156 338.513185,54.8259957 336.344346,56.3750344 C330.309172,60.0923914 327.212749,67.5271054 327.212749,78.3670192 C327.212749,98.6572433 337.427927,112.905713 351.979104,112.905713 C356.313425,112.905713 359.718485,111.665475 362.66059,109.188356 C367.147552,105.469321 369.470709,98.0362852 369.470709,87.6595726 C369.470709,67.5271054 359.564167,54.0523156 344.704354,54.0523156 Z M347.490464,120.338749 C321.175897,120.338749 311.733987,100.979962 311.733987,82.8597347 C311.733987,70.1603032 316.841576,60.4028704 327.056754,53.4330358 C334.333181,48.9419986 343.001824,46.4648794 350.741205,46.4648794 C370.864602,46.4648794 384.949471,60.8677498 384.949471,81.6211751 C384.949471,95.7135665 379.377251,106.863959 368.695764,113.679394 C363.742493,117.086272 354.919532,120.338749 347.490464,120.338749 Z M170.564926,118.78971 C170.254613,118.326509 169.944299,116.931871 170.100295,115.228432 C170.100295,113.988194 170.410608,113.214514 170.564926,112.905713 C173.815667,112.439156 175.518197,111.974276 177.375044,111.511075 C180.471468,110.735717 181.709366,109.033956 181.863684,105.162199 C182.329993,95.8696451 182.329993,78.2126188 182.173997,65.9780668 L182.173997,65.6675878 C182.173997,64.2746278 182.173997,62.5695106 180.471468,61.330951 C177.993994,59.7835906 175.053566,58.3906307 171.183875,57.3031149 C169.791659,56.841592 168.862396,56.0662336 169.016714,55.138153 C169.016714,54.2083942 169.945977,53.124235 171.95882,52.813756 C177.066408,52.3488766 190.376332,49.0980772 195.639916,46.7736802 C195.95023,47.0824809 196.414861,48.013918 196.414861,49.2524776 L196.260543,50.9542383 C196.104548,52.6593556 195.95023,54.6732736 195.95023,56.6855134 C195.95023,57.3047932 196.570856,57.7696726 197.188128,57.7696726 C197.498441,57.7696726 197.808755,57.6152722 198.117391,57.4591936 C208.023933,49.7156788 217.001212,46.9280806 221.64417,46.9280806 C229.23091,46.9280806 235.113444,50.4910372 239.602083,57.924073 C239.910719,58.3906307 240.221032,58.545031 240.685664,58.545031 C240.9943,58.545031 241.457254,58.3906307 241.613249,58.0801516 C250.746524,51.110317 259.879798,46.9280806 265.914972,46.9280806 C280.310154,46.9280806 288.82448,57.6152722 288.82448,75.7354996 C288.82448,80.8458166 288.82448,87.5051722 288.670162,93.5469263 C288.670162,98.9660441 288.515844,103.921961 288.515844,107.484917 C288.515844,108.256919 289.597747,110.735717 291.300276,111.200596 C293.467437,112.284755 296.409543,112.749635 300.279233,113.368914 L300.433551,113.368914 C300.743864,114.453074 300.124915,118.479231 299.505966,119.25459 C298.576704,119.25459 297.18281,119.25459 295.636276,119.10019 C291.717902,118.895635 287.794912,118.792107 283.871209,118.78971 C274.27498,118.78971 269.321709,118.944111 264.521079,119.25459 C264.21412,118.01603 264.058125,114.298673 264.521079,113.368914 C267.308866,112.905713 268.701082,112.439156 270.405289,111.975955 C273.501713,111.046196 274.27498,109.651557 274.430975,105.6254 C274.430975,102.683401 275.048247,77.593339 274.118985,71.5532632 C273.1914,65.358787 268.546765,58.0801516 258.329909,58.0801516 C254.460219,58.0801516 248.425045,59.6291902 242.542511,64.1185492 C242.233875,64.4290282 241.921885,65.2027084 241.921885,65.6675878 L241.921885,65.8236664 C242.542511,69.0744658 242.542511,72.7935011 242.542511,78.5230978 L242.542511,88.5893314 C242.542511,95.5591661 242.386516,102.064121 242.542511,107.01836 C242.542511,110.426916 244.555354,111.200596 246.257884,111.821554 C247.187146,111.974276 247.804418,112.130355 248.579363,112.284755 C249.971579,112.595234 251.365473,112.905713 253.532634,113.368914 C253.842947,113.989873 253.842947,116.002112 253.378316,117.705551 C253.22232,118.63531 252.912007,119.098511 252.757689,119.25459 C247.495782,119.10019 242.07788,118.944111 234.184181,118.944111 C231.862702,118.944111 227.837016,119.10019 224.431957,119.10019 C221.64417,119.10019 219.014055,119.25459 217.467521,119.25459 C217.311525,118.944111 217.001212,117.86163 217.001212,116.156513 C217.001212,114.763553 217.311525,113.679394 217.621839,113.368914 C218.395106,113.214514 219.014055,113.060114 219.788999,113.060114 C221.64417,112.749635 223.194059,112.439156 224.740593,112.130355 C227.374063,111.356675 228.301648,109.962036 228.455966,106.555158 C228.920597,98.8116437 229.385228,76.6652585 228.301648,71.0883838 C226.4448,62.1063094 221.337211,57.6152722 213.131521,57.6152722 C208.334246,57.6152722 202.295717,59.937991 197.344124,63.6570263 C196.569179,64.2746278 195.95023,65.8219882 195.95023,67.2166264 L195.95023,76.3547794 C195.95023,87.5051722 195.95023,101.444842 196.104548,107.484917 C196.260543,109.341078 196.877815,111.511075 200.438869,112.284755 C201.213814,112.439156 202.451712,112.749635 203.999924,112.905713 L206.784357,113.368914 C207.096347,114.298673 206.940352,118.01603 206.321403,119.25459 C204.773191,119.25459 202.916344,119.10019 200.747505,119.10019 C197.498441,118.944111 193.318438,118.78971 188.67548,118.78971 C183.257578,118.78971 179.387887,118.944111 176.291464,119.10019 C174.124303,118.78971 172.421773,118.78971 170.564926,118.78971 L170.564926,118.78971 Z" id="Shape" fill="#442D22"></path>
            <path d="M58.9897167,238 L52.5967377,235.825461 C52.5967377,235.825461 53.3774821,203.390687 41.6798346,201.063106 C33.8842194,192.060547 42.9303777,-180.722407 71,199.820272 C71,199.820272 61.3302601,204.630157 59.6149882,212.857416 C57.7425535,220.92827 58.9897167,238 58.9897167,238 L58.9897167,238 Z" id="Path" fill="#FFFFFF"></path>
            <path d="M58.9897167,238 L52.5967377,235.825461 C52.5967377,235.825461 53.3774821,203.390687 41.6798346,201.063106 C33.8842194,192.060547 42.9303777,-180.722407 71,199.820272 C71,199.820272 61.3302601,204.630157 59.6149882,212.857416 C57.7425535,220.92827 58.9897167,238 58.9897167,238 L58.9897167,238 Z" id="Path" fill="#A6A385"></path>
            <path d="M62.6999768,206 C62.6999768,206 117.973495,169.553743 105.038524,93.7311379 C92.5690318,38.6049194 63.1621188,20.5374155 59.9287932,13.5878607 C56.3884852,8.64636405 53,0 53,0 L55.31071,153.338673 C55.31071,153.494298 50.5374672,200.283728 62.7016452,206" id="Path" fill="#FFFFFF"></path>
            <path d="M62.6999768,206 C62.6999768,206 117.973495,169.553743 105.038524,93.7311379 C92.5690318,38.6049194 63.1621188,20.5374155 59.9287932,13.5878607 C56.3884852,8.64636405 53,0 53,0 L55.31071,153.338673 C55.31071,153.494298 50.5374672,200.283728 62.7016452,206" id="Path" fill="#499D4A"></path>
            <path d="M48.7341727,209 C48.7341727,209 -2.93563564,173.418434 0.131324685,110.766379 C3.04377401,48.1126476 39.5332917,17.3272587 46.5859714,11.7582617 C51.1864118,6.80785581 51.3392614,4.95040586 51.646622,0 C54.866432,6.96208451 54.2533722,104.114428 54.711921,115.56088 C56.0908901,159.65017 52.2596818,200.648181 48.7341727,209 Z" id="Path" fill="#FFFFFF"></path>
            <path d="M48.7341727,209 C48.7341727,209 -2.93563564,173.418434 0.131324685,110.766379 C3.04377401,48.1126476 39.5332917,17.3272587 46.5859714,11.7582617 C51.1864118,6.80785581 51.3392614,4.95040586 51.646622,0 C54.866432,6.96208451 54.2533722,104.114428 54.711921,115.56088 C56.0908901,159.65017 52.2596818,200.648181 48.7341727,209 Z" id="Path" fill="#58AA50"></path>
        </g>
    </g>
</svg>