<?xml version="1.0" encoding="UTF-8"?>
<svg width="828px" height="397px" viewBox="0 0 828 397" version="1.1" xmlns="http://www.w3.org/2000/svg" xmlns:xlink="http://www.w3.org/1999/xlink">
    <!-- Generator: Sketch 64 (93537) - https://sketch.com -->
    <title>logo-mysql</title>
    <desc>Created with Sketch.</desc>
    <g id="logo-mysql" stroke="none" stroke-width="1" fill="none" fill-rule="evenodd">
        <g id="mysql" fill="#00678C" fill-rule="nonzero">
            <g id="Group">
                <path d="M395.177933,306.794696 C371.865267,306.247181 353.7798,308.442763 338.6218,314.484068 C334.257,316.13835 327.252933,316.13835 326.678,321.349061 C329.010733,323.532906 329.2916,327.106597 331.336867,330.133463 C334.831933,335.626562 340.961133,343.026642 346.494867,346.871673 C352.623333,351.269743 358.745933,355.656075 365.148667,359.500416 C376.517533,366.083021 389.3428,369.927362 400.4176,376.51549 C406.833533,380.360522 413.2436,385.299892 419.659533,389.421788 C422.861267,391.61737 424.906533,395.191751 428.989733,396.557431 L428.989733,395.726838 C426.951067,393.266129 426.362933,389.698652 424.3316,386.942437 C421.410733,384.204863 418.496467,381.726202 415.576333,378.988628 C407.1276,368.284817 396.628467,358.946687 385.253,351.269743 C375.9228,345.229129 355.5178,336.998456 351.728667,326.84216 L351.153733,326.288431 C357.556467,325.734703 365.142067,323.53912 371.264667,321.890362 C381.182267,319.429652 390.2118,319.970953 400.411,317.50403 C405.083067,316.403477 409.7412,315.031583 414.413267,313.659689 L414.413267,311.192765 C409.166267,306.253395 405.377133,299.664576 399.842667,295.00207 C384.978733,282.926365 368.644467,271.122002 351.735267,261.24257 C342.699133,255.755685 331.0362,252.181304 321.425133,247.524322 C317.916133,245.876254 312.094933,245.051875 310.056267,242.308087 C304.7968,236.273687 301.889133,228.313664 298.099267,221.171807 C289.651267,206.07545 281.484133,189.33724 274.1992,173.417195 C268.9522,162.714075 265.738,152.010264 259.335267,142.130833 C229.306,95.4712504 196.650667,67.1991889 146.510467,39.4804417 C135.729733,33.716485 122.903733,31.2435548 109.196267,28.2293237 C101.911333,27.9525283 94.6264,27.4050136 87.3341333,27.1282183 C82.6628,25.2089477 78.0046667,19.9924436 73.9207333,17.5195341 C57.3054533,7.64020631 14.4507733,-13.7670624 2.2,14.4991304 C-5.67314,32.3385153 13.8627133,49.9011049 20.5663333,58.9623019 C25.5319533,65.2737734 31.93498,72.4094859 35.4436133,79.5452675 C37.4756067,84.2081878 38.05714,89.1537722 40.1021133,94.093833 C44.7606867,106.168847 49.13832,119.616445 55.2604067,130.873294 C58.46192,136.637734 61.9574267,142.678348 66.0409933,147.894583 C68.3735067,150.915235 72.4570733,152.287129 73.3261467,157.226499 C69.24258,162.719598 68.96164,170.950271 66.6291267,177.815955 C56.1294067,208.831666 60.2129733,247.253671 75.0772,270.033186 C79.7485333,276.891965 90.8233333,291.987631 105.6946,286.223882 C118.813933,281.283821 115.8938,265.64064 119.682933,251.916868 C120.565133,248.625565 119.977,246.429983 121.7216,244.23371 L121.7216,244.781224 C125.805533,252.464383 129.888733,259.87689 133.6786,267.560049 C142.714733,281.007647 158.460867,295.008283 171.5802,304.3402 C178.5718,309.27957 184.112133,317.793322 192.8542,320.80776 L192.8542,319.977167 L192.279267,319.977167 C190.528067,317.516457 187.902,316.415214 185.569267,314.490282 C180.323,309.550221 174.494467,303.509607 170.411267,298.022722 C158.1734,282.655715 147.392667,265.634426 137.7684,248.071837 C133.097067,239.564299 129.013133,230.232383 125.236467,221.724845 C123.4728,218.428019 123.4728,213.487958 120.565133,211.846104 C116.187867,217.880504 109.7844,223.102953 106.5636,230.509247 C101.022533,242.308087 100.4476,256.856238 98.4089333,271.951904 C97.2334,272.228769 97.8215333,271.951904 97.2334,272.499419 C87.9164,270.31005 84.7014667,261.248784 81.2056667,253.565626 C72.4637467,234.077414 71.0002333,202.791052 78.5796,180.282188 C80.6175333,174.518438 89.3728,156.40212 85.8777333,150.915235 C84.1133333,145.69831 78.2987333,142.684562 75.0839467,138.562666 C71.2943733,133.346431 67.2237867,126.763826 64.59728,121.000077 C57.6061933,105.627546 54.1106133,88.6124713 46.5250133,73.2397337 C43.01638,66.1039522 36.90082,58.6913753 31.9417267,52.1092534 C26.4011,44.6966765 20.2920667,39.4802346 15.9144333,30.7019777 C14.4574467,27.6816017 12.4188533,22.7419551 14.75144,19.4508873 C15.3263733,17.2548075 16.5024933,16.4304906 18.8219533,15.8830034 C22.6115267,12.8625998 33.40524,16.7072997 37.1948133,18.3497612 C47.9754733,22.4650908 57.0115333,26.3098459 66.0476667,32.0676577 C70.1313067,34.8112384 74.5088667,40.0276803 79.7558667,41.4056501 L85.8843333,41.4056501 C95.2145333,43.3249207 105.7012,41.9531649 114.443267,44.4198812 C129.895333,49.0888774 143.8844,55.9478637 156.4288,63.3604405 C194.612,86.1393339 226.104267,118.526939 247.378267,157.226499 C250.874067,163.537763 252.3312,169.301513 255.5454,175.890332 C261.673867,189.343454 269.2536,203.061012 275.362267,216.23796 C281.490733,229.137353 287.319267,242.314301 296.061333,253.017421 C300.4386,258.781861 317.922733,261.795609 325.796533,264.816261 C331.630933,267.283184 340.660467,269.484981 345.919933,272.499419 C355.825067,278.263169 365.7368,284.851988 375.067,291.163252 C379.725867,294.448341 394.308933,301.30712 395.177933,306.794005 L395.177933,306.794696 Z" id="Shape-path"></path>
                <path d="M97.8286467,68.2875074 C92.876124,68.2875074 89.3805587,68.8350208 85.8849933,69.6593185 L85.8849933,70.2068056 L86.4599443,70.2068056 C88.7924473,74.5989996 92.8760287,77.6194239 95.7900533,81.4579651 C98.1225667,85.850097 100.167613,90.2422978 102.500127,94.6344987 L103.075133,94.0869839 C107.1587,91.3434032 109.203747,86.9512024 109.203747,80.3629356 C107.452693,78.443665 107.165227,76.5182495 105.708167,74.5989789 C103.957113,71.8554051 100.16754,70.4836147 97.8285733,68.2875074 L97.8286467,68.2875074 Z" id="Shape"></path>
            </g>
        </g>
        <text id="MySQL" font-family="ArialMT, Arial" font-size="150" font-weight="normal">
            <tspan x="333" y="136" fill="#000000">My</tspan>
            <tspan x="532.951172" y="136" fill="#336791">SQL</tspan>
        </text>
    </g>
</svg>