<?xml version="1.0" encoding="UTF-8"?>
<svg width="75px" height="75px" viewBox="0 0 75 75" version="1.1" xmlns="http://www.w3.org/2000/svg" xmlns:xlink="http://www.w3.org/1999/xlink">
    <!-- Generator: Sketch 64 (93537) - https://sketch.com -->
    <title>icon-blue</title>
    <desc>Created with Sketch.</desc>
    <g id="Page-1" stroke="none" stroke-width="1" fill="none" fill-rule="evenodd">
        <g id="icon-blue" fill-rule="nonzero">
            <path d="M37.5046875,74.9947266 C27.8985352,74.9947266 18.2923828,71.3381836 10.9794434,64.0252441 C10.045166,63.0909668 10.044873,61.5760254 10.9794434,60.6416016 C11.9137207,59.7073242 13.4286621,59.7070312 14.3632324,60.6416016 C27.1234863,73.4018555 47.8863281,73.4018555 60.646875,60.6416016 C73.4071289,47.8813477 73.4071289,27.1185059 60.646875,14.357959 C47.8866211,1.59770508 27.1237793,1.59770508 14.3635254,14.357959 C6.10751953,22.6139648 2.86699219,34.7545898 5.90654297,46.0423828 C6.25004883,47.3184082 5.49433594,48.6312012 4.21831055,48.974707 C2.94287109,49.3182129 1.62949219,48.5625 1.28598633,47.2864746 C-2.19785156,34.3510254 1.51669922,20.4370605 10.9792969,10.9743164 C25.6056152,-3.65200195 49.4040527,-3.65170898 64.0300781,10.9743164 C78.6561035,25.6006348 78.6561035,49.3990723 64.0300781,64.0250977 C56.7168457,71.3380371 47.1108398,74.9947266 37.5046875,74.9947266 Z" id="Path" fill="#3A5DE2"></path>
            <circle id="Oval" fill-opacity="0.713896211" fill="#8FA0E4" cx="37.5057129" cy="37.5008789" r="22.645752"></circle>
            <path d="M37.5046875,62.5368164 C23.6991211,62.5368164 12.4674316,51.305127 12.4674316,37.499707 C12.4674316,23.6942871 23.6991211,12.4623047 37.5046875,12.4623047 C51.3102539,12.4623047 62.5419434,23.6939941 62.5419434,37.4995605 C62.5419434,51.305127 51.3101074,62.5368164 37.5046875,62.5368164 Z M37.5046875,17.2475098 C26.3375977,17.2475098 17.2524902,26.3326172 17.2524902,37.499707 C17.2524902,48.6667969 26.3375977,57.7519043 37.5046875,57.7519043 C48.6717773,57.7519043 57.7568848,48.6667969 57.7568848,37.499707 C57.7568848,26.3326172 48.6717773,17.2475098 37.5046875,17.2475098 Z" id="Shape" fill="#3A5DE2"></path>
        </g>
    </g>
</svg>